<svg width="24" height="24" viewBox="0 0 24 24" fill="none" xmlns="http://www.w3.org/2000/svg">
<path d="M23.89 18.58C23.89 18.97 23.89 19.36 23.89 19.75C23.86 19.87 23.82 19.98 23.79 20.1C23.43 21.76 22.46 22.9 20.91 23.55C20.54 23.7 20.14 23.78 19.75 23.89C19.36 23.89 18.97 23.89 18.58 23.89C17.47 23.62 16.43 23.2 15.69 22.27C15.46 21.98 15.26 21.97 14.93 22.05C11.07 23.07 7.56 22.33 4.64 19.6C1.44 16.62 0.48 12.9 1.56 8.66C1.6 8.5 1.62 8.23 1.52 8.14C0.68 7.38 0.26 6.39 0 5.31C0 4.92 0 4.53 0 4.14C0.03 4.02 0.07 3.91 0.1 3.79C0.43 2.24 1.32 1.12 2.74 0.44C3.18 0.23 3.67 0.14 4.14 0C4.53 0 4.92 0 5.31 0C6.16 0.23 7.02 0.46 7.67 1.1C8.02 1.44 8.31 1.48 8.78 1.34C13.94 -0.29 19.56 2.25 21.78 7.18C22.94 9.76 23.06 12.4 22.21 15.09C22.16 15.25 22.12 15.53 22.21 15.61C23.15 16.38 23.61 17.43 23.89 18.58ZM21.88 11.67C21.69 10.67 21.59 9.63 21.28 8.67C19.53 3.27 13.78 0.52 8.45 2.5C8.02 2.66 7.75 2.62 7.44 2.26C5.99 0.64 3.57 0.59 2.07 2.12C0.55 3.67 0.67 6.13 2.36 7.52C2.74 7.83 2.79 8.11 2.66 8.57C2.44 9.4 2.2 10.25 2.15 11.1C1.79 18.14 8.52 23.2 15.18 20.92C15.63 20.77 15.88 20.85 16.15 21.24C17.07 22.55 18.36 23.12 19.93 22.8C21.45 22.49 22.45 21.51 22.78 19.99C23.11 18.48 22.62 17.19 21.37 16.25C20.97 15.95 20.92 15.66 21.09 15.21C21.54 14.08 21.77 12.9 21.88 11.67Z" fill="white"/>
<path d="M12.17 18.07C10.84 18.06 9.68 17.92 8.61 17.41C7.46 16.87 6.65 16.03 6.45 14.72C6.34 13.96 6.7 13.35 7.34 13.18C8.03 12.99 8.62 13.32 8.92 14.05C9.67 15.83 11.49 16.59 13.25 15.82C13.57 15.68 13.87 15.47 14.12 15.23C14.78 14.57 14.7 13.79 13.94 13.24C13.2 12.7 12.32 12.56 11.45 12.42C10.34 12.24 9.28 11.94 8.32 11.35C7.02 10.55 6.44 9.33999 6.67 7.94999C6.78 7.26999 7.14 6.73999 7.65 6.29999C9.26 4.91999 13.5 4.27999 15.71 6.10999C16.33 6.61999 16.84 7.17999 16.81 8.05999C16.79 8.68999 16.53 9.13999 16.08 9.30999C15.53 9.50999 14.97 9.34999 14.56 8.85999C14.39 8.65999 14.21 8.44999 14.11 8.20999C13.64 7.12999 12.76 6.77999 11.69 6.91999C11.05 7.00999 10.37 7.21999 9.83 7.55999C9.17 7.97999 9.19 8.67999 9.88 9.05999C10.61 9.45999 11.43 9.70999 12.23 9.96999C13.2 10.28 14.22 10.47 15.17 10.83C16.47 11.32 17.39 12.22 17.49 13.71C17.59 15.2 16.87 16.28 15.68 17.09C14.58 17.84 13.33 18.09 12.17 18.07Z" fill="white"/>
</svg>
