<svg width="24" height="24" viewBox="0 0 24 24" fill="none" xmlns="http://www.w3.org/2000/svg">
<g clip-path="url(#clip0_193_1918)">
<path d="M12.0049 24C5.37914 24 0 18.6209 0 12.0049C0 5.37914 5.37914 0 12.0049 0C18.6307 0 24.0098 5.37914 24.0098 12.0049C24 18.6209 18.6209 24 12.0049 24ZM12.0049 0.82454C5.84049 0.82454 0.834356 5.84049 0.834356 11.9951C0.834356 18.1595 5.85031 23.1656 12.0049 23.1656C18.1595 23.1656 23.1755 18.1497 23.1755 11.9951C23.1755 5.84049 18.1595 0.82454 12.0049 0.82454Z" fill="white"/>
<path d="M16.2552 19.0626C15.3325 19.7988 14.3117 19.9067 13.3399 19.3374C12.0344 18.5718 11.0528 17.4724 10.1693 16.265C8.64786 14.1939 7.48958 11.9558 6.98897 9.4233C6.93007 9.1779 6.91044 8.92269 6.88099 8.66747C6.68467 7.26379 7.18529 6.37054 8.55952 5.75214C9.25645 6.94968 9.95338 8.15704 10.6601 9.38404C9.86504 10.0221 9.89449 10.8761 10.0908 11.7399C10.3755 12.9472 10.9644 13.9975 11.8675 14.8515C12.5055 15.4503 13.2123 15.8233 14.1546 15.4601C14.8712 16.6577 15.5583 17.865 16.2552 19.0626Z" fill="white"/>
<path d="M11.3571 9.41349C11.2 9.27607 11.0233 9.18773 10.9448 9.0503C10.2773 7.93128 9.63928 6.81227 8.98161 5.69325C8.80493 5.37914 8.86382 5.12392 9.18775 4.9276C10.719 4.01472 10.5031 4.04417 11.2884 5.37914C11.7792 6.22331 12.2503 7.0773 12.7509 7.91165C12.9767 8.28466 12.8982 8.53987 12.535 8.73619C12.1522 8.95214 11.7792 9.16809 11.3571 9.41349Z" fill="white"/>
<path d="M18.4638 17.8847C18.4147 18.0123 18.3951 18.1399 18.3264 18.1889C17.9043 18.454 17.4724 18.7288 17.0209 18.9251C16.9031 18.9742 16.589 18.8172 16.5006 18.6699C15.8331 17.5607 15.1951 16.4417 14.5374 15.3227C14.3509 14.9988 14.4098 14.7534 14.7338 14.5669C16.2749 13.654 16.0785 13.6834 16.8638 15.0577C17.3252 15.8626 17.7865 16.6577 18.2479 17.4626C18.3362 17.5902 18.3951 17.7472 18.4638 17.8847Z" fill="white"/>
</g>
<defs>
<clipPath id="clip0_193_1918">
<rect width="24" height="24" fill="white"/>
</clipPath>
</defs>
</svg>
