<svg width="24" height="24" viewBox="0 0 24 24" fill="none" xmlns="http://www.w3.org/2000/svg">
<path d="M11.49 23.1201C5.17001 23.1101 -0.00998555 17.8701 1.44545e-05 11.5101C0.0100145 5.14013 5.26001 -0.0298701 11.68 0.000129904C17.98 0.0301299 23.14 5.29013 23.12 11.6601C23.1 17.9701 17.85 23.1401 11.49 23.1201ZM1.01001 11.5101C0.990014 17.4001 5.63001 22.1001 11.48 22.1201C17.38 22.1401 22.09 17.5101 22.11 11.6701C22.14 5.71013 17.5 1.01013 11.59 1.01013C5.70001 1.00013 1.02001 5.65013 1.01001 11.5101Z" fill="white"/>
<path d="M8.65 14C7.1 14.62 5.65 13.91 4.26 13.28C3.19 12.79 3.3 11.37 4.43 10.79C5.53 10.22 6.7 9.77001 7.85 9.29001C10.02 8.37001 12.19 7.45001 14.36 6.55001C14.79 6.37001 15.24 6.20001 15.7 6.12001C17 5.88001 17.96 6.70001 17.78 8.00001C17.39 10.8 16.97 13.6 16.44 16.38C16.08 18.3 14.8 18.78 13.16 17.74C12.02 17.02 10.89 16.28 9.82 15.47C9.37 15.11 9.08 14.56 8.65 14ZM13.56 9.62001C13.61 9.68001 13.66 9.74001 13.71 9.79001C13.55 9.98001 13.41 10.18 13.24 10.36C12.3 11.28 11.35 12.19 10.42 13.12C9.64 13.9 9.69 14.23 10.61 14.86C11.53 15.48 12.46 16.09 13.38 16.72C14.77 17.66 15.31 17.47 15.6 15.78C16.03 13.32 16.41 10.86 16.78 8.39001C16.97 7.12001 16.5 6.75001 15.27 7.25001C11.93 8.61001 8.61 10.02 5.3 11.43C4.97 11.57 4.71 11.87 4.39 12.12C5.93 13.39 7.71 13.51 9.15 12.54C10.16 11.86 11.17 11.19 12.18 10.52C12.65 10.21 13.11 9.92001 13.56 9.62001Z" fill="white"/>
</svg>
