<svg width="23" height="24" viewBox="0 0 23 24" fill="none" xmlns="http://www.w3.org/2000/svg">
<path d="M11.42 23.12C9.93002 23.12 8.44002 22.79 7.00002 22.14C6.50002 21.91 6.01002 21.8 5.52002 21.8C5.16002 21.8 4.80002 21.86 4.40002 21.98C3.32002 22.3 2.22002 22.58 1.05002 22.86L0.100018 23.11L0.360018 22.14C0.660018 20.99 0.940018 19.92 1.27002 18.86C1.53002 18.01 1.47002 17.23 1.08002 16.35C-1.42998 10.76 0.630018 4.41 5.88002 1.59C7.83002 0.53 9.78002 0 11.67 0C13.98 0 16.2 0.79 18.29 2.35C22.16 5.25 23.66 9.29 22.63 14.04C21.61 18.71 18.68 21.67 13.89 22.82C13.07 23.02 12.24 23.12 11.42 23.12ZM5.67002 20.53C6.12002 20.53 6.50002 20.6 6.78002 20.73C8.41002 21.51 10.03 21.9 11.59 21.9C13.65 21.9 15.64 21.21 17.49 19.85C20.82 17.41 22.23 13.93 21.56 9.8C20.76 4.87 16.51 1.29 11.45 1.29C10.67 1.29 9.88002 1.38 9.10002 1.55C6.38002 2.18 3.99002 3.97 2.56002 6.49C1.18002 8.9 0.850018 11.73 1.65002 14.26L1.89002 14.98C2.55002 16.95 3.11002 18.65 1.90002 20.58L1.67002 20.95L2.48002 21.24L2.59002 21.21C2.85002 21.14 3.10002 21.07 3.35002 20.99C3.94002 20.81 4.50002 20.65 5.07002 20.57C5.26002 20.55 5.46002 20.53 5.67002 20.53Z" fill="white"/>
<path d="M14.93 17.28C12.96 17.13 11.53 16.51 10.23 15.6C8.41002 14.33 6.99002 12.68 5.96002 10.72C5.22002 9.31001 5.40002 7.76001 6.33002 6.70001C7.13002 5.79001 8.16002 5.92001 8.64002 7.01001C8.83002 7.44001 8.98002 7.90001 9.19002 8.33001C9.51002 8.96001 9.45002 9.52001 8.94002 10C8.40002 10.5 8.41002 11.04 8.91002 11.5C9.95002 12.46 11.01 13.4 12.11 14.29C12.72 14.79 13.31 14.66 13.7 13.94C14.18 13.05 14.81 12.94 15.62 13.51C15.81 13.64 16.05 13.71 16.26 13.82C17.66 14.5 17.78 15.77 16.47 16.66C15.93 17.01 15.24 17.15 14.93 17.28Z" fill="white"/>
</svg>
