<svg width="78" height="39" viewBox="0 0 78 39" fill="none" xmlns="http://www.w3.org/2000/svg">
<g clip-path="url(#clip0_193_1862)">
<path d="M73.9184 33.0975C74.0775 33.1216 74.4594 33.2142 74.8453 33.2303C76.9499 33.323 78.2429 31.8694 77.9644 29.7435C77.5427 26.5263 75.0005 24.5816 71.6348 24.7306C70.8113 23.575 70.0554 22.512 69.2517 21.3886C72.5538 16.3475 68.5913 9.07981 64.5135 9.18048C63.9406 7.69875 63.5786 6.14052 62.7869 4.84804C61.0205 1.94901 58.2197 0.463255 54.9614 0.104903C51.5042 -0.277608 48.1902 0.406885 45.1348 2.21475C42.7717 3.61192 41.4151 5.6493 41.049 8.38324C40.9934 8.81004 40.8979 9.22879 40.8064 9.7321C40.0942 9.63144 39.4298 9.50259 38.7615 9.44622C32.9252 8.94292 29.8062 11.6769 29.4441 17.6078C29.4401 17.6521 29.4362 17.6964 29.4402 17.7407C29.4879 19.2546 29.647 20.6759 27.9602 21.6785C27.2083 22.1255 26.9457 23.422 26.4245 24.4044C24.0892 23.1562 21.5988 23.5468 19.0964 24.348C16.956 25.0325 15.858 26.4257 16.1206 28.3906C14.8713 29.1395 13.8728 29.8401 12.7867 30.3595C12.0745 30.6977 11.247 30.8829 10.4554 30.9514C7.88134 31.1688 5.29539 31.2695 2.72139 31.4909C2.057 31.5473 1.3568 31.7969 0.779945 32.1352C0.401993 32.3606 -0.0316391 32.9364 0.00814056 33.3068C0.0479279 33.6894 0.581024 34.2249 0.982841 34.3255C2.18431 34.6154 3.42954 34.857 4.66284 34.8772C8.40649 34.9375 12.1501 34.8651 15.8938 34.9013C16.3235 34.9053 16.8406 35.1872 17.1708 35.4972C19.3391 37.5427 21.9608 38.1225 24.8093 38.058C25.2629 38.05 25.7721 38.0339 26.166 38.2191C29.5476 39.7894 31.9028 39.0566 33.7726 35.7831C35.3321 36.2059 36.8837 36.6971 38.4631 37.0353C40.4762 37.4702 42.4733 37.5467 44.3352 36.3508C44.5699 36.2018 45.1229 36.4032 45.4531 36.5844C48.7711 38.4285 52.288 39.27 56.0356 38.5493C58.0964 38.1506 59.9662 37.293 61.1597 35.3362C61.3308 35.0583 62.035 34.9416 62.4408 35.0181C63.9605 35.316 65.4444 35.8073 66.9682 36.077C68.5555 36.3589 70.2026 36.3951 71.595 35.4288C72.3947 34.857 73.0153 34.0115 73.9184 33.0975ZM65.1023 12.9251C65.2575 12.7479 65.4126 12.5748 65.5638 12.3976C65.0068 12.1681 64.4459 11.9386 63.8889 11.705C64.0122 11.5802 64.1355 11.4554 64.2589 11.3306C64.6925 11.54 65.1301 11.7453 65.5638 11.9547C65.5996 11.8903 65.6354 11.8299 65.6712 11.7654C65.1461 11.2823 64.6249 10.7991 64.0281 10.2475C65.7269 9.59923 67.9031 11.6728 68.7505 13.7223C70.3935 17.7044 69.4149 20.5712 65.162 23.8166C65.8343 24.2192 66.4669 24.6017 67.1034 24.9802C67.1551 24.9077 67.2069 24.8352 67.2586 24.7628C66.9602 24.4165 66.6658 24.0702 66.1247 23.4381C66.8846 23.7481 67.2864 23.9132 67.8593 24.1507C67.6047 23.728 67.4575 23.4783 67.187 23.0274C67.8116 22.8381 68.5754 22.3429 68.8977 22.5482C70.5925 23.6515 70.8232 25.3426 70.1787 27.2471C70.306 27.2793 70.4293 27.3115 70.5566 27.3437C70.9147 26.7317 71.2767 26.1156 71.6507 25.4795C73.8826 25.3345 75.8558 26.4539 76.6674 28.6684C76.9738 29.5059 76.9976 30.6937 76.6356 31.4748C76.1264 32.562 74.8772 32.421 73.8507 32.1513C72.6453 31.8332 71.4756 31.3822 70.2861 30.9997C70.1827 30.9675 70.0554 31.0158 69.8206 31.04C70.1031 31.3742 70.3259 31.6319 70.5487 31.8936C70.5089 31.9379 70.4691 31.9822 70.4254 32.0264C70.0116 31.8453 69.6018 31.6641 69.1403 31.4627C69.1761 31.7567 69.2 31.9459 69.2318 32.1794C68.7266 31.9459 68.2969 31.7446 67.8633 31.5473C67.7957 31.6359 67.732 31.7285 67.6644 31.8171C68.1298 32.268 68.5953 32.719 69.0608 33.1699C69.0409 33.2022 69.017 33.2303 68.9971 33.2626C68.1418 32.7029 67.2904 32.1432 66.4351 31.5835C66.3992 31.6359 66.3634 31.6882 66.3276 31.7365C66.5783 32.107 66.8289 32.4774 67.0795 32.8519C67.0398 32.8961 66.996 32.9404 66.9562 32.9888C66.2401 32.4371 65.524 31.8855 64.5533 31.1326C64.8278 31.7889 64.971 32.1311 65.1262 32.5016C64.2708 32.4935 64.0043 31.1527 62.9381 31.8412C62.763 31.954 61.9514 31.048 61.299 30.5004C61.3746 30.9594 61.4263 31.2695 61.478 31.5795C61.3785 31.66 61.2791 31.7406 61.1796 31.8211C60.7261 31.2856 60.2725 30.7541 59.7076 30.0857C59.7832 30.5447 59.8309 30.8386 59.8866 31.1728C59.5445 31.048 59.2859 30.9554 58.709 30.742C60.7937 32.7955 63.1131 33.5041 65.52 34.0719C67.9946 34.6517 70.3179 34.3014 72.7448 32.7713C71.8496 34.551 71.0221 35.0865 69.2438 35.163C66.435 35.2838 63.7417 34.708 61.2353 33.4558C59.823 32.7472 58.538 31.7768 56.8551 30.7098C57.6866 31.8332 58.2873 32.6425 58.8881 33.4558C58.8125 33.5202 58.7409 33.5847 58.6653 33.6451C58.0248 33.1257 57.3842 32.6022 56.7437 32.0828C56.688 32.1352 56.6323 32.1915 56.5766 32.2439C57.1217 32.9364 57.6667 33.629 58.2118 34.3255C58.1362 34.394 58.0606 34.4624 57.981 34.5269C57.3405 34.0195 56.696 33.5162 56.0555 33.0089C55.9998 33.0733 55.9441 33.1337 55.8884 33.1981C56.2942 33.7296 56.7039 34.2611 57.1097 34.7926C57.0461 34.849 56.9864 34.9053 56.9228 34.9617C56.3379 34.5148 55.7571 34.0719 55.1723 33.6249C55.1245 33.6692 55.0728 33.7095 55.0251 33.7538C55.3632 34.2732 55.6974 34.7886 56.0356 35.308C55.9759 35.3885 55.9162 35.469 55.8566 35.5455C55.1126 34.9496 54.3726 34.3497 53.6287 33.7538C53.5809 33.79 53.5292 33.8263 53.4815 33.8625C53.8037 34.3738 54.126 34.8812 54.4442 35.3925C54.3488 35.4811 54.2533 35.5697 54.1618 35.6583C53.4695 34.8973 52.7733 34.1363 52.0811 33.3713C52.0095 33.4196 51.9379 33.4679 51.8662 33.5122C52.28 34.2088 52.6937 34.9053 53.1712 35.7066C51.3689 35.2395 51.3093 33.3753 50.0839 32.4814C50.4539 33.4156 50.8239 34.3537 51.1899 35.2878C51.1064 35.3442 51.0189 35.3966 50.9353 35.4529C50.3545 34.6476 49.7736 33.8424 49.0098 32.7834C49.2246 33.6773 49.3758 34.3054 49.527 34.9335C49.3917 35.002 49.2525 35.0704 49.1172 35.1389C48.6199 34.2933 48.1226 33.4478 47.5577 32.4895C47.498 33.2102 47.4463 33.8383 47.3946 34.4665C47.311 34.4866 47.2235 34.5067 47.1399 34.5269C46.9848 33.8142 46.8296 33.1015 46.6546 32.2882C46.3562 32.6747 46.0777 32.9928 45.847 33.3431C44.2477 35.771 42.0556 36.9024 39.2031 36.2059C36.4978 35.5455 33.8363 34.708 31.1628 33.9511C31.1628 33.947 31.1827 34.1645 31.2065 34.398C30.936 34.3215 30.7132 34.2611 30.2955 34.1484C30.7252 34.7161 31.0196 35.1067 31.314 35.4972C31.2543 35.5335 31.1986 35.5697 31.1389 35.6059C30.6177 35.2637 30.0966 34.9214 29.5754 34.5792C29.5237 34.6396 29.468 34.7 29.4163 34.7604C29.7306 35.1872 30.0488 35.61 30.3631 36.0368C30.2796 36.1012 30.2 36.1656 30.1165 36.23C29.5197 35.7267 28.923 35.2234 28.1273 34.547C28.3501 35.1671 28.4734 35.5133 28.6007 35.8636C28.541 35.8958 28.4853 35.9321 28.4257 35.9643C28.0557 35.622 27.6817 35.2798 27.2441 34.8772C27.1804 35.1389 27.1247 35.3523 26.9537 36.0327C26.5996 35.3805 26.3808 34.9778 26.162 34.5752C26.4842 36.3468 27.4311 36.9991 29.2532 37.0957C30.8445 37.1803 32.0181 36.4636 32.9252 35.1389C31.7794 37.6393 29.5794 38.6338 27.439 37.6393C26.7189 37.3051 26.0307 36.6166 25.6448 35.9079C25.2629 35.2073 25.2827 34.2812 25.0759 33.1861C24.7099 33.7538 24.3558 34.3054 23.9977 34.861C23.8863 34.6195 23.7431 34.3135 23.6039 34.0115C23.5402 34.0356 23.4805 34.0598 23.4169 34.0839C23.4169 34.5309 23.4169 34.9818 23.4169 35.5375C23.0111 35.159 22.6809 34.853 22.1995 34.4061C22.2831 34.9335 22.3308 35.2516 22.4064 35.7308C22.0006 35.2436 21.7022 34.8892 21.2765 34.3779C21.2964 34.8329 21.3084 35.0946 21.3163 35.2275C20.7792 35.151 20.2859 35.0825 19.5658 34.9859C21.1134 36.7897 22.9952 36.689 25.1912 36.6649C23.1742 37.6675 19.4186 36.5441 18.3246 34.9255C19.0685 34.6839 19.8125 34.4423 20.4888 34.2208C17.2783 34.0034 14.0876 33.7618 10.893 33.5766C7.67844 33.3914 4.40822 34.547 0.911232 33.0975C1.79841 32.8478 2.39516 32.574 3.01181 32.5217C5.45851 32.3163 7.92113 32.264 10.3559 31.9781C11.4619 31.8493 12.723 31.5594 13.5585 30.887C14.6804 29.985 15.8421 29.5623 17.1828 29.3891C17.4971 29.3489 17.8074 29.2603 18.4201 29.1274C17.696 28.9704 17.2942 28.8858 16.8844 28.7972C16.8406 26.9451 17.7238 25.7734 19.3271 25.3104C20.5962 24.944 21.9449 24.7628 23.2617 24.7144C24.8332 24.6621 26.4166 24.8191 27.0412 26.7196C27.081 26.8404 27.2918 26.9008 27.4669 27.0216C27.3754 21.7993 28.8235 21.4249 32.4279 20.3176C31.8033 20.0961 30.7928 20.0357 30.5819 19.5888C30.2637 18.9164 30.4029 17.9621 30.5183 17.1488C30.932 14.1853 31.7317 11.395 35.0894 10.6018C36.4063 10.2918 37.8226 10.3602 39.1911 10.3401C40.3528 10.324 41.0888 10.7548 40.9934 12.1802C40.9337 13.07 41.1087 14.0243 41.3872 14.8819C41.5981 15.5342 42.1391 16.0737 42.533 16.6656C42.6444 16.5972 42.7518 16.5247 42.8632 16.4562C41.427 14.1491 41.7453 11.5923 41.8686 9.09995C42.0078 6.26131 43.4878 4.20784 45.9584 2.86301C48.1226 1.68729 50.4301 1.02293 52.8768 0.914215C57.9134 0.67263 63.8372 4.21991 63.324 10.8555C63.2325 12.0151 63.0136 13.1666 62.8466 14.3746C63.3677 14.6604 63.9247 14.9624 64.4856 15.2684C64.5135 15.204 64.5453 15.1356 64.5732 15.0711C64.1435 14.6001 63.7178 14.129 63.2882 13.6579C63.3558 13.5814 63.4194 13.5049 63.4871 13.4284C64.1077 13.7626 64.7323 14.0927 65.3529 14.4269C65.3967 14.3504 65.4444 14.2739 65.4882 14.1974C64.9272 13.6941 64.3703 13.1948 63.5229 12.4379C64.2907 12.6754 64.6965 12.8002 65.1023 12.9251ZM45.7913 34.7966C50.7722 37.1642 55.6696 37.9372 60.3959 34.1282C59.9702 36.2059 57.4161 37.5829 54.0941 37.6232C50.1357 37.6715 46.1374 36.3508 45.7913 34.7966Z" fill="#4D4D4D"/>
<path d="M65.1021 12.9248C64.6963 12.8 64.2905 12.6712 63.5267 12.4336C64.3741 13.1906 64.931 13.6939 65.492 14.1931C65.4482 14.2696 65.4005 14.3461 65.3567 14.4226C64.7361 14.0885 64.1115 13.7583 63.4909 13.4241C63.4232 13.5006 63.3596 13.5771 63.292 13.6536C63.7216 14.1247 64.1473 14.5958 64.577 15.0669C64.5491 15.1313 64.5173 15.1997 64.4894 15.2642C63.9325 14.9582 63.3755 14.6562 62.8504 14.3703C63.0174 13.1624 63.2363 12.0108 63.3278 10.8512C63.837 4.21968 57.9132 0.672391 52.8726 0.901898C50.4299 1.01061 48.1184 1.67497 45.9542 2.85069C43.4836 4.19149 42.0077 6.24497 41.8644 9.08763C41.7411 11.58 41.4228 14.1368 42.859 16.4439C42.7476 16.5124 42.6402 16.5848 42.5288 16.6533C42.135 16.0614 41.5979 15.5219 41.383 14.8696C41.1046 14.012 40.9295 13.0617 40.9892 12.1678C41.0847 10.7425 40.3487 10.3157 39.187 10.3278C37.8144 10.3439 36.4021 10.2754 35.0853 10.5895C31.7236 11.3827 30.9279 14.173 30.5141 17.1365C30.3988 17.9458 30.2595 18.9041 30.5778 19.5765C30.7886 20.0234 31.7991 20.0838 32.4238 20.3053C28.8193 21.4085 27.3752 21.787 27.4627 27.0093C27.2877 26.8885 27.0768 26.8281 27.037 26.7073C26.4124 24.8068 24.829 24.6458 23.2576 24.7021C21.9368 24.7464 20.5881 24.9316 19.323 25.298C17.7197 25.7611 16.8365 26.9368 16.8802 28.7849C17.286 28.8735 17.6879 28.9581 18.4159 29.1151C17.8032 29.248 17.4929 29.3365 17.1786 29.3768C15.8379 29.554 14.6762 29.9767 13.5543 30.8746C12.7189 31.5471 11.4617 31.837 10.3517 31.9658C7.91697 32.2517 5.45435 32.304 3.00765 32.5094C2.39101 32.5617 1.79425 32.8315 0.907074 33.0851C4.40009 34.5347 7.67031 33.3791 10.8888 33.5643C14.0834 33.7455 17.2741 33.9911 20.4846 34.2085C19.8083 34.43 19.0644 34.6716 18.3204 34.9131C19.4145 36.5318 23.1701 37.6551 25.1871 36.6526C22.991 36.6767 21.1093 36.7774 19.5617 34.9735C20.2818 35.0742 20.7751 35.1427 21.3121 35.2151C21.3042 35.0823 21.2923 34.8205 21.2724 34.3656C21.6981 34.8769 21.9964 35.2353 22.4022 35.7184C22.3266 35.2433 22.2789 34.9212 22.1954 34.3937C22.6767 34.8407 23.0069 35.1467 23.4127 35.5252C23.4127 34.9655 23.4127 34.5186 23.4127 34.0716C23.4764 34.0475 23.5361 34.0233 23.5997 33.9991C23.739 34.3052 23.8822 34.6071 23.9936 34.8487C24.3516 34.2931 24.7057 33.7415 25.0717 33.1737C25.2786 34.2689 25.2587 35.195 25.6406 35.8956C26.0265 36.6002 26.7148 37.2928 27.4349 37.627C29.5752 38.6215 31.7753 37.627 32.9211 35.1265C32.014 36.4553 30.8404 37.1679 29.249 37.0834C27.4309 36.9868 26.4801 36.3345 26.1578 34.5628C26.3766 34.9655 26.5954 35.3681 26.9495 36.0204C27.1206 35.34 27.1723 35.1265 27.2399 34.8648C27.6776 35.2675 28.0515 35.6097 28.4215 35.952C28.4812 35.9198 28.5369 35.8835 28.5966 35.8513C28.4732 35.505 28.3459 35.1547 28.1231 34.5347C28.9188 35.2071 29.5156 35.7144 30.1123 36.2177C30.1959 36.1533 30.2754 36.0889 30.359 36.0244C30.0447 35.5976 29.7264 35.1749 29.4121 34.7481C29.4638 34.6877 29.5195 34.6273 29.5713 34.5669C30.0924 34.9091 30.6136 35.2514 31.1348 35.5936C31.1944 35.5574 31.2501 35.5211 31.3098 35.4849C31.0154 35.0943 30.721 34.7038 30.2913 34.136C30.7131 34.2528 30.9319 34.3132 31.2024 34.3857C31.1785 34.1522 31.1586 33.9347 31.1586 33.9388C33.8321 34.6957 36.4936 35.5372 39.1989 36.1936C42.0514 36.8901 44.2435 35.7587 45.8428 33.3308C46.0736 32.9805 46.352 32.6624 46.6504 32.2758C46.8255 33.0892 46.9806 33.8019 47.1358 34.5145C47.2193 34.4944 47.3068 34.4743 47.3904 34.4541C47.4421 33.826 47.4938 33.1979 47.5535 32.4772C48.1184 33.4355 48.6157 34.281 49.113 35.1265C49.2483 35.0581 49.3875 34.9897 49.5228 34.9212C49.3716 34.2931 49.2204 33.669 49.0056 32.7711C49.7695 33.83 50.3503 34.6353 50.9311 35.4406C51.0147 35.3842 51.1022 35.3319 51.1858 35.2755C50.8158 34.3414 50.4458 33.4032 50.0798 32.4691C51.3051 33.363 51.3688 35.2272 53.167 35.6943C52.6896 34.889 52.2758 34.1924 51.8621 33.4999C51.9337 33.4516 52.0053 33.4032 52.0769 33.3589C52.7692 34.1199 53.4654 34.8809 54.1576 35.646C54.2531 35.5574 54.3486 35.4688 54.4401 35.3802C54.1178 34.8689 53.7956 34.3615 53.4773 33.8502C53.525 33.8139 53.5768 33.7777 53.6245 33.7415C54.3685 34.3374 55.1084 34.9373 55.8524 35.5332C55.9121 35.4527 55.9717 35.3722 56.0314 35.2957C55.6933 34.7763 55.3591 34.2609 55.0209 33.7415C55.0687 33.6972 55.1204 33.6569 55.1681 33.6126C55.7529 34.0595 56.3338 34.5025 56.9186 34.9494C56.9823 34.893 57.0419 34.8366 57.1056 34.7803C56.6998 34.2488 56.29 33.7173 55.8842 33.1858C55.9399 33.1214 55.9956 33.061 56.0513 32.9966C56.6918 33.5039 57.3363 34.0072 57.9768 34.5145C58.0524 34.4461 58.128 34.3776 58.2076 34.3132C57.6626 33.6207 57.1175 32.9281 56.5725 32.2315C56.6282 32.1792 56.6839 32.1228 56.7396 32.0705C57.3801 32.5899 58.0206 33.1133 58.6611 33.6327C58.7367 33.5683 58.8083 33.5039 58.8839 33.4435C58.2832 32.6342 57.6824 31.8209 56.851 30.6975C58.5338 31.7645 59.8188 32.7348 61.2312 33.4435C63.7375 34.6997 66.4309 35.2715 69.2396 35.1507C71.018 35.0742 71.8455 34.5427 72.7406 32.759C70.3178 34.2891 67.9904 34.6394 65.5159 34.0595C63.1089 33.4958 60.7896 32.7832 58.7049 30.7297C59.2857 30.9431 59.5403 31.0357 59.8825 31.1605C59.8268 30.8263 59.779 30.5324 59.7035 30.0734C60.2684 30.7418 60.7219 31.2773 61.1755 31.8088C61.2749 31.7282 61.3744 31.6477 61.4738 31.5672C61.4221 31.2572 61.3704 30.9471 61.2948 30.4881C61.9473 31.0357 62.7628 31.9376 62.9339 31.8289C64.0001 31.1404 64.2667 32.4772 65.122 32.4892C64.9669 32.1188 64.8236 31.7766 64.5491 31.1203C65.5238 31.8732 66.2399 32.4248 66.9521 32.9764C66.9918 32.9321 67.0356 32.8879 67.0754 32.8395C66.8248 32.4691 66.5741 32.0987 66.3235 31.7242C66.3593 31.6719 66.3951 31.6195 66.4309 31.5712C67.2862 32.1309 68.1376 32.6906 68.993 33.2502C69.0129 33.218 69.0367 33.1898 69.0566 33.1576C68.5911 32.7067 68.1257 32.2557 67.6602 31.8047C67.7278 31.7162 67.7915 31.6236 67.8591 31.535C68.2888 31.7363 68.7224 31.9336 69.2277 32.1671C69.1998 31.9336 69.176 31.7443 69.1362 31.4504C69.5977 31.6517 70.0074 31.8329 70.4212 32.0141C70.461 31.9698 70.5008 31.9255 70.5445 31.8812C70.3217 31.6195 70.099 31.3618 69.8165 31.0276C70.0512 31.0035 70.1785 30.9552 70.282 30.9874C71.4715 31.3699 72.6411 31.8209 73.8466 32.1389C74.869 32.4087 76.1222 32.5496 76.6314 31.4625C76.9975 30.6814 76.9736 29.4936 76.6633 28.6561C75.8517 26.4415 73.8744 25.3182 71.6465 25.4671C71.2726 26.1033 70.9145 26.7194 70.5525 27.3314C70.4252 27.2992 70.3018 27.267 70.1745 27.2347C70.819 25.3302 70.5883 23.6391 68.8935 22.5359C68.5752 22.3265 67.8074 22.8218 67.1828 23.015C67.4533 23.466 67.6045 23.7156 67.8551 24.1384C67.2862 23.9049 66.8804 23.7398 66.1206 23.4257C66.6616 24.0579 66.96 24.4042 67.2544 24.7504C67.2027 24.8229 67.151 24.8954 67.0993 24.9679C66.4627 24.5854 65.8262 24.2069 65.1578 23.8042C69.4107 20.5589 70.3934 17.6921 68.7463 13.71C67.8989 11.6605 65.7227 9.58691 64.024 10.2352C64.6207 10.7868 65.1459 11.27 65.667 11.7531C65.6312 11.8175 65.5954 11.8779 65.5596 11.9424C65.126 11.733 64.6884 11.5276 64.2547 11.3183C64.1314 11.4431 64.0081 11.5679 63.8847 11.6927C64.4417 11.9222 65.0027 12.1517 65.5596 12.3853C65.4084 12.5745 65.2573 12.7517 65.1021 12.9248ZM32.2766 33.4797C32.3084 33.3267 32.3402 33.1737 32.3681 33.0167C33.0404 33.057 33.7088 33.0972 34.3891 33.1375C34.2379 32.8798 34.0907 32.6221 33.9395 32.3604C33.9992 32.3 34.0589 32.2356 34.1185 32.1752C34.95 32.7308 35.7855 33.2824 36.9233 34.0434C36.418 33.2986 36.1515 32.904 35.881 32.5094C35.9367 32.4651 35.9963 32.4208 36.052 32.3765C37.1341 33.1415 38.2123 33.9065 39.2944 34.6675C39.3183 34.6192 39.3382 34.5709 39.362 34.5226C38.6459 33.7656 37.9338 33.0046 37.2177 32.2477C38.809 33.1013 40.1577 34.2246 41.9798 34.4702C41.0011 33.669 40.0224 32.8637 39.0398 32.0624C39.0915 32.0101 39.1392 31.9537 39.191 31.9014C40.4919 32.5899 41.7928 33.2784 43.0938 33.9629C43.1534 33.8461 43.2131 33.7254 43.2728 33.6086C42.7635 33.2422 42.2543 32.8798 41.7451 32.5134C41.7809 32.4731 41.8167 32.4329 41.8565 32.3926C42.6681 32.5899 43.4797 32.7912 44.2952 32.9885C44.3231 32.8677 44.3469 32.7469 44.3748 32.6302C44.0963 32.3201 43.8178 32.0101 43.5393 31.7001C44.1798 31.7323 44.9835 31.9054 45.0949 32.2879C45.2222 32.7187 44.8204 33.4113 44.4782 33.8623C43.4319 35.2393 41.9559 36.0124 40.293 35.654C37.5917 35.0823 34.95 34.2206 32.2766 33.4797ZM73.0191 29.8882C73.5005 30.0855 73.9699 30.2747 74.7139 30.5767C74.3041 29.9244 74.0773 29.562 73.8466 29.1956C73.8983 29.1554 73.954 29.1151 74.0057 29.0748C74.3916 29.3647 74.7815 29.6546 75.1674 29.9445C75.2151 29.9043 75.2589 29.86 75.3027 29.8157C75.1276 29.5016 74.9526 29.1835 74.7417 28.8051C75.0361 28.8655 75.2549 28.9138 75.5056 28.9661C75.4538 28.5917 75.4101 28.2776 75.3663 27.9595C75.8557 28.4789 76.2256 29.0305 76.3927 29.6385C76.6832 30.6894 76.0029 31.7041 74.9645 31.6195C73.2498 31.4786 71.5789 31.0558 70.3257 29.5701C71.2288 29.7754 72.1359 29.9767 73.035 30.1781C73.039 30.2183 73.031 30.0694 73.0191 29.8882ZM20.1346 33.1697C16.9519 33.979 14.2147 33.222 11.2031 32.7107C12.5597 32.4208 13.6458 32.1913 14.9507 31.9094C15.0462 31.9779 15.4202 32.2477 15.8857 32.5818C15.7782 32.2235 15.7106 32.0061 15.5952 31.6115C16.2477 32.0665 16.7529 32.4168 17.5685 32.9845C17.1826 32.3483 16.9996 32.0544 16.8206 31.7605C16.8643 31.7162 16.9081 31.6759 16.9519 31.6316C17.4969 32.0262 18.0419 32.4208 18.7859 32.9603C18.5631 32.4248 18.4557 32.1711 18.3522 31.9175C18.4079 31.8732 18.4636 31.8329 18.5193 31.7886C18.9848 32.1832 19.4503 32.5818 20.1346 33.1697ZM47.7683 27.3515C47.645 27.5327 47.5217 27.7139 47.3984 27.8991C46.0895 27.0093 44.4066 26.671 43.3842 25.3504C43.4677 25.2256 43.5513 25.1048 43.6308 24.9799C45.0113 25.7732 46.3878 26.5623 47.7683 27.3515ZM39.8514 27.6696C37.9139 27.1703 37.1779 26.5664 37.0784 25.4752C38.1049 26.2885 38.9761 26.9811 39.8514 27.6696ZM39.1154 28.5514C39.0199 28.6762 38.9204 28.8051 38.825 28.9299C37.8542 28.2897 36.8795 27.6495 35.9088 27.0093C36.0202 26.8482 36.1276 26.6831 36.239 26.5221C37.1938 27.1945 38.1566 27.8709 39.1154 28.5514ZM60.7896 22.1776C60.7219 22.2621 60.6543 22.3507 60.5906 22.4352C59.6955 21.8192 58.8004 21.2032 57.9092 20.5831C58.0166 20.4422 58.124 20.3012 58.2275 20.1563C59.0828 20.8327 59.9382 21.5051 60.7896 22.1776ZM31.9384 28.2615C32.0856 28.0843 32.2328 27.9072 32.38 27.73C33.0484 28.3541 33.7167 28.9822 34.3891 29.6063C34.3015 29.711 34.218 29.8157 34.1305 29.9164C33.3985 29.3688 32.6704 28.8131 31.9384 28.2615ZM47.3347 7.24755C47.2591 7.37237 47.1835 7.49719 47.1079 7.62201C46.3003 7.1791 45.4887 6.73619 44.6811 6.29329C44.7766 6.12015 44.8721 5.95104 44.9676 5.7779C45.7593 6.2651 46.547 6.75633 47.3347 7.24755ZM32.8813 29.7795C32.7699 29.9002 32.6545 30.0251 32.5431 30.1459C31.8787 29.5701 31.2183 28.9943 30.5539 28.4185C30.6932 28.2655 30.8364 28.1165 30.9756 27.9635C31.6122 28.5675 32.2487 29.1755 32.8813 29.7795ZM46.5231 28.028C46.4595 28.1568 46.3958 28.2897 46.3321 28.4185C45.437 27.9917 44.5419 27.5649 43.6428 27.1421C43.7223 26.973 43.8059 26.8079 43.8854 26.6388C44.7647 27.1019 45.6439 27.5649 46.5231 28.028ZM57.404 21.6501C57.5392 21.489 57.6745 21.328 57.8098 21.1669C58.4622 21.7991 59.1186 22.4272 59.7711 23.0593C59.7074 23.1358 59.6438 23.2123 59.5762 23.2848C58.8521 22.7372 58.128 22.1937 57.404 21.6501Z" fill="white"/>
<path d="M45.7911 34.7964C46.1372 36.3506 50.1355 37.6712 54.09 37.6229C57.4159 37.5827 59.97 36.2056 60.3917 34.128C55.6694 37.937 50.772 37.1639 45.7911 34.7964Z" fill="white"/>
<path d="M32.2766 33.4798C34.946 34.2206 37.5917 35.0823 40.297 35.6581C41.9599 36.0124 43.4359 35.2393 44.4822 33.8663C44.8243 33.4194 45.2262 32.7268 45.0989 32.292C44.9875 31.9094 44.1798 31.7363 43.5433 31.7041C43.8218 32.0141 44.1003 32.3242 44.3788 32.6342C44.3509 32.755 44.327 32.8758 44.2992 32.9926C43.4876 32.7953 42.676 32.5939 41.8605 32.3966C41.8247 32.4369 41.7888 32.4772 41.7491 32.5174C42.2583 32.8838 42.7675 33.2462 43.2768 33.6126C43.2171 33.7294 43.1574 33.8502 43.0977 33.967C41.7968 33.2784 40.4959 32.5899 39.1949 31.9054C39.1472 31.9578 39.0955 32.0101 39.0438 32.0665C40.0224 32.8677 41.0011 33.673 41.9838 34.4743C40.1657 34.2287 38.813 33.1053 37.2217 32.2517C37.9378 33.0087 38.6499 33.7697 39.366 34.5266C39.3421 34.5749 39.3223 34.6233 39.2984 34.6716C38.2163 33.9066 37.1381 33.1415 36.056 32.3805C36.0003 32.4248 35.9406 32.4691 35.8849 32.5134C36.1515 32.908 36.422 33.3026 36.9273 34.0475C35.7855 33.2865 34.954 32.7349 34.1225 32.1792C34.0628 32.2396 34.0032 32.304 33.9435 32.3644C34.0947 32.6221 34.2458 32.8838 34.393 33.1415C33.7127 33.1013 33.0404 33.061 32.372 33.0207C32.3402 33.1738 32.3084 33.3268 32.2766 33.4798Z" fill="#4D4D4D"/>
<path d="M73.0191 29.8882C73.031 30.0694 73.039 30.2184 73.035 30.1781C72.1359 29.9768 71.2288 29.7714 70.3257 29.5701C71.5789 31.0559 73.2498 31.4786 74.9645 31.6196C76.0029 31.7041 76.6832 30.6895 76.3927 29.6386C76.2257 29.0306 75.8557 28.4749 75.3663 27.9595C75.4101 28.2736 75.4538 28.5917 75.5056 28.9661C75.2549 28.9138 75.0361 28.8655 74.7417 28.8051C74.9526 29.1876 75.1276 29.5017 75.3027 29.8157C75.2589 29.86 75.2112 29.9043 75.1674 29.9486C74.7815 29.6587 74.3916 29.3688 74.0057 29.0789C73.954 29.1191 73.8983 29.1594 73.8466 29.1997C74.0773 29.5661 74.3041 29.9285 74.7139 30.5807C73.9699 30.2747 73.5005 30.0855 73.0191 29.8882Z" fill="#4D4D4D"/>
<path d="M20.1346 33.1697C19.4503 32.5859 18.9848 32.1873 18.5193 31.7887C18.4636 31.833 18.4079 31.8732 18.3522 31.9175C18.4557 32.1712 18.5631 32.4248 18.7859 32.9604C18.0419 32.4208 17.4969 32.0262 16.9519 31.6316C16.9081 31.6759 16.8643 31.7162 16.8206 31.7605C16.9996 32.0544 17.1786 32.3483 17.5685 32.9845C16.7529 32.4168 16.2477 32.0665 15.5952 31.6115C15.7146 32.0061 15.7782 32.2195 15.8856 32.5819C15.4202 32.2477 15.0462 31.9779 14.9507 31.9095C13.6418 32.1873 12.5597 32.4208 11.2031 32.7107C14.2147 33.2221 16.9479 33.9791 20.1346 33.1697Z" fill="#4D4D4D"/>
<path d="M47.7683 27.3515C46.3878 26.5624 45.0113 25.7692 43.6308 24.98C43.5473 25.1048 43.4637 25.2256 43.3842 25.3504C44.4066 26.6671 46.0895 27.0053 47.3984 27.8991C47.5217 27.718 47.645 27.5327 47.7683 27.3515Z" fill="#4D4D4D"/>
<path d="M39.8514 27.6696C38.9801 26.9771 38.1049 26.2886 37.0785 25.4752C37.1779 26.5704 37.9139 27.1703 39.8514 27.6696Z" fill="#4D4D4D"/>
<path d="M39.1154 28.5514C38.1566 27.875 37.1938 27.1945 36.235 26.5181C36.1236 26.6791 36.0162 26.8442 35.9048 27.0053C36.8755 27.6455 37.8502 28.2857 38.821 28.9259C38.9204 28.8011 39.0199 28.6762 39.1154 28.5514Z" fill="#4D4D4D"/>
<path d="M60.7896 22.1776C59.9342 21.5052 59.0789 20.8328 58.2275 20.1603C58.1201 20.3013 58.0127 20.4422 57.9092 20.5871C58.8043 21.2032 59.6995 21.8192 60.5906 22.4393C60.6583 22.3507 60.7259 22.2621 60.7896 22.1776Z" fill="#4D4D4D"/>
<path d="M31.9384 28.2615C32.6704 28.8132 33.3985 29.3688 34.1305 29.9204C34.218 29.8157 34.3015 29.711 34.3891 29.6104C33.7207 28.9863 33.0523 28.3582 32.38 27.7341C32.2328 27.9072 32.0856 28.0844 31.9384 28.2615Z" fill="#4D4D4D"/>
<path d="M47.3347 7.24754C46.547 6.75632 45.7553 6.26912 44.9676 5.77789C44.8721 5.95103 44.7766 6.12014 44.6811 6.29328C45.4887 6.73618 46.3003 7.17909 47.1079 7.622C47.1835 7.49718 47.2591 7.37236 47.3347 7.24754Z" fill="#4D4D4D"/>
<path d="M32.8813 29.7795C32.2487 29.1755 31.6122 28.5675 30.9796 27.9636C30.8404 28.1166 30.6971 28.2655 30.5579 28.4186C31.2223 28.9943 31.8827 29.5701 32.5471 30.1459C32.6545 30.0251 32.7699 29.9003 32.8813 29.7795Z" fill="#4D4D4D"/>
<path d="M46.5231 28.028C45.6439 27.5649 44.7647 27.1019 43.8854 26.6389C43.8059 26.808 43.7223 26.973 43.6428 27.1422C44.5379 27.569 45.433 27.9958 46.3321 28.4185C46.3958 28.2857 46.4595 28.1568 46.5231 28.028Z" fill="#4D4D4D"/>
<path d="M57.404 21.6501C58.128 22.1937 58.8521 22.7413 59.5801 23.2848C59.6438 23.2083 59.7074 23.1318 59.7751 23.0594C59.1226 22.4272 58.4662 21.7991 57.8137 21.1669C57.6745 21.328 57.5392 21.489 57.404 21.6501Z" fill="#4D4D4D"/>
</g>
<defs>
<clipPath id="clip0_193_1862">
<rect width="78" height="39" fill="white" transform="matrix(-1 0 0 1 78 0)"/>
</clipPath>
</defs>
</svg>
