<svg width="87" height="43" viewBox="0 0 87 43" fill="none" xmlns="http://www.w3.org/2000/svg">
<g clip-path="url(#clip0_193_1806)">
<path d="M4.55281 36.4918C4.37531 36.5185 3.94932 36.6206 3.51889 36.6383C1.1715 36.7404 -0.270663 35.1378 0.0399564 32.7938C0.510323 29.2467 3.34583 27.1025 7.09989 27.2668C8.01843 25.9927 8.86154 24.8207 9.7579 23.5821C6.07484 18.0239 10.4945 10.0108 15.0429 10.1218C15.6819 8.48812 16.0857 6.77007 16.9687 5.34503C18.9389 2.14866 22.0629 0.510524 25.6971 0.115418C29.5532 -0.306325 33.2496 0.448373 36.6575 2.44166C39.2934 3.98213 40.8065 6.22847 41.2148 9.24282C41.2769 9.71339 41.3834 10.1751 41.4854 10.73C42.2797 10.619 43.0208 10.477 43.7663 10.4148C50.276 9.85989 53.7549 12.8742 54.1587 19.4135C54.1631 19.4623 54.1676 19.5111 54.1631 19.56C54.1099 21.2292 53.9324 22.7963 55.8139 23.9017C56.6525 24.3945 56.9454 25.824 57.5267 26.9072C60.1315 25.531 62.9093 25.9616 65.7004 26.845C68.0878 27.5997 69.3125 29.1358 69.0196 31.3022C70.413 32.1279 71.5267 32.9004 72.7382 33.473C73.5325 33.846 74.4554 34.0502 75.3385 34.1256C78.2095 34.3654 81.0938 34.4763 83.9648 34.7205C84.7059 34.7827 85.4869 35.0579 86.1303 35.4308C86.5518 35.6794 87.0355 36.3143 86.9911 36.7227C86.9468 37.1444 86.3522 37.7349 85.904 37.8459C84.5639 38.1655 83.175 38.4319 81.7994 38.4541C77.6238 38.5206 73.4482 38.4407 69.2725 38.4807C68.7933 38.4851 68.2164 38.7959 67.8481 39.1377C65.4297 41.3929 62.5055 42.0322 59.3283 41.9612C58.8224 41.9523 58.2544 41.9345 57.8151 42.1387C54.0433 43.8701 51.4164 43.0621 49.3308 39.4529C47.5913 39.9191 45.8607 40.4607 44.0991 40.8336C41.8537 41.313 39.6262 41.3974 37.5494 40.0789C37.2876 39.9146 36.6708 40.1366 36.3025 40.3364C32.6017 42.3696 28.679 43.2974 24.499 42.5028C22.2004 42.0633 20.1148 41.1177 18.7836 38.9601C18.5928 38.6538 17.8074 38.5251 17.3548 38.6094C15.6597 38.9379 14.0045 39.4795 12.305 39.777C10.5344 40.0877 8.69736 40.1277 7.14426 39.0622C6.25234 38.4319 5.5601 37.4996 4.55281 36.4918ZM14.3861 14.2505C14.2131 14.0551 14.04 13.8642 13.8714 13.6689C14.4926 13.4159 15.1183 13.1628 15.7395 12.9053C15.602 12.7677 15.4644 12.6301 15.3269 12.4925C14.8432 12.7233 14.3551 12.9497 13.8714 13.1806C13.8314 13.1095 13.7915 13.0429 13.7516 12.9719C14.3373 12.4392 14.9186 11.9065 15.5842 11.2983C13.6895 10.5835 11.2622 12.8698 10.317 15.1295C8.48436 19.52 9.57597 22.6809 14.3196 26.259C13.5696 26.703 12.8641 27.1247 12.1541 27.542C12.0964 27.4621 12.0387 27.3822 11.981 27.3023C12.3139 26.9205 12.6422 26.5387 13.2457 25.8417C12.3982 26.1836 11.95 26.3656 11.311 26.6275C11.595 26.1614 11.7592 25.8861 12.0609 25.3889C11.3642 25.1803 10.5123 24.6342 10.1528 24.8606C8.26249 26.077 8.00512 27.9416 8.72398 30.0414C8.58198 30.0769 8.44442 30.1124 8.30243 30.1479C7.90306 29.4732 7.49926 28.7939 7.08214 28.0925C4.59275 27.9327 2.39179 29.1668 1.48655 31.6085C1.14487 32.5319 1.11825 33.8415 1.52205 34.7028C2.09004 35.9014 3.48339 35.746 4.62825 35.4486C5.97278 35.0979 7.27738 34.6007 8.60417 34.1789C8.71954 34.1434 8.86154 34.1967 9.12335 34.2233C8.80829 34.5918 8.5598 34.8759 8.3113 35.1645C8.35568 35.2133 8.40005 35.2621 8.44886 35.311C8.91035 35.1112 9.36741 34.9114 9.88215 34.6894C9.84221 35.0135 9.81559 35.2222 9.78009 35.4797C10.3436 35.2222 10.8229 35.0002 11.3066 34.7827C11.382 34.8803 11.453 34.9824 11.5284 35.0801C11.0093 35.5773 10.4901 36.0745 9.9709 36.5717C9.99308 36.6073 10.0197 36.6383 10.0419 36.6739C10.9959 36.0568 11.9455 35.4397 12.8996 34.8226C12.9395 34.8803 12.9795 34.938 13.0194 34.9913C12.7398 35.3997 12.4603 35.8082 12.1807 36.221C12.2251 36.2699 12.2739 36.3187 12.3183 36.372C13.117 35.7638 13.9158 35.1556 14.9985 34.3254C14.6923 35.049 14.5326 35.4264 14.3595 35.8348C15.3135 35.8259 15.6109 34.3476 16.8001 35.1067C16.9953 35.231 17.9006 34.2322 18.6283 33.6284C18.544 34.1345 18.4863 34.4764 18.4286 34.8182C18.5395 34.907 18.6505 34.9958 18.7614 35.0845C19.2673 34.4941 19.7732 33.9081 20.4033 33.1712C20.319 33.6773 20.2657 34.0013 20.2036 34.3698C20.5852 34.2322 20.8736 34.1301 21.5171 33.8948C19.1919 36.1589 16.6048 36.9402 13.9202 37.5662C11.1601 38.2054 8.56867 37.8192 5.86185 36.1322C6.86027 38.0945 7.78325 38.6849 9.76678 38.7692C12.8996 38.9024 15.9037 38.2676 18.6993 36.8869C20.2746 36.1056 21.7079 35.0357 23.5849 33.8593C22.6575 35.0979 21.9874 35.9902 21.3174 36.8869C21.4017 36.958 21.4816 37.029 21.5659 37.0956C22.2803 36.5229 22.9947 35.9458 23.7091 35.3731C23.7713 35.4308 23.8334 35.493 23.8955 35.5507C23.2876 36.3143 22.6797 37.0778 22.0717 37.8459C22.156 37.9213 22.2404 37.9968 22.3291 38.0678C23.0435 37.5085 23.7624 36.9535 24.4768 36.3942C24.5389 36.4652 24.6011 36.5318 24.6632 36.6028C24.2106 37.1888 23.7535 37.7748 23.3009 38.3608C23.3719 38.423 23.4385 38.4851 23.5095 38.5473C24.1618 38.0545 24.8096 37.5662 25.4619 37.0734C25.5152 37.1222 25.5729 37.1666 25.6261 37.2155C25.2489 37.7881 24.8762 38.3564 24.499 38.9291C24.5656 39.0179 24.6321 39.1066 24.6987 39.191C25.5285 38.534 26.3538 37.8725 27.1836 37.2155C27.2369 37.2554 27.2946 37.2954 27.3478 37.3353C26.9884 37.8991 26.629 38.4585 26.274 39.0223C26.3805 39.12 26.487 39.2176 26.589 39.3153C27.3611 38.4762 28.1377 37.6372 28.9098 36.7937C28.9897 36.847 29.0695 36.9003 29.1494 36.9491C28.6879 37.7171 28.2264 38.4851 27.6939 39.3686C29.7041 38.8536 29.7707 36.7982 31.1374 35.8126C30.7247 36.8425 30.312 37.8769 29.9038 38.9069C29.997 38.969 30.0946 39.0267 30.1878 39.0889C30.8356 38.201 31.4835 37.3131 32.3355 36.1456C32.0959 37.1311 31.9272 37.8237 31.7586 38.5162C31.9095 38.5917 32.0648 38.6671 32.2157 38.7426C32.7703 37.8103 33.325 36.8781 33.9551 35.8215C34.0217 36.6161 34.0794 37.3087 34.1371 38.0012C34.2303 38.0234 34.3279 38.0456 34.4211 38.0678C34.5941 37.2821 34.7672 36.4963 34.9624 35.5995C35.2952 36.0257 35.6059 36.3764 35.8632 36.7626C37.6471 39.4396 40.0921 40.6871 43.2737 39.9191C46.2912 39.191 49.2598 38.2676 52.2417 37.433C52.2417 37.4286 52.2195 37.6683 52.1929 37.9258C52.4947 37.8414 52.7432 37.7748 53.2091 37.6505C52.7299 38.2765 52.4015 38.7071 52.0731 39.1377C52.1397 39.1777 52.2018 39.2176 52.2684 39.2576C52.8497 38.8802 53.431 38.5029 54.0123 38.1255C54.07 38.1921 54.1321 38.2587 54.1898 38.3253C53.8392 38.7959 53.4842 39.262 53.1337 39.7326C53.2268 39.8036 53.3156 39.8747 53.4088 39.9457C54.0744 39.3908 54.74 38.8358 55.6275 38.09C55.379 38.7737 55.2414 39.1555 55.0994 39.5417C55.166 39.5772 55.2281 39.6172 55.2947 39.6527C55.7074 39.2753 56.1245 38.898 56.6126 38.4541C56.6836 38.7426 56.7457 38.9779 56.9365 39.7282C57.3315 39.009 57.5755 38.565 57.8196 38.1211C57.4601 40.0744 56.404 40.7936 54.3717 40.9002C52.5967 40.9934 51.2877 40.2032 50.276 38.7426C51.5539 41.4995 54.0078 42.596 56.3952 41.4995C57.1983 41.131 57.966 40.3719 58.3964 39.5905C58.8224 38.8181 58.8002 37.797 59.031 36.5895C59.4392 37.2155 59.8342 37.8237 60.2335 38.4363C60.3578 38.1699 60.5175 37.8325 60.6728 37.4996C60.7438 37.5262 60.8104 37.5529 60.8814 37.5795C60.8814 38.0723 60.8814 38.5695 60.8814 39.1821C61.334 38.7648 61.7023 38.4274 62.2392 37.9346C62.146 38.5162 62.0928 38.8669 62.0085 39.3952C62.4611 38.858 62.7939 38.4674 63.2687 37.9036C63.2465 38.4052 63.2332 38.6938 63.2243 38.8403C63.8234 38.7559 64.3736 38.6805 65.1768 38.5739C63.4507 40.5628 61.3518 40.4518 58.9023 40.4251C61.1521 41.5306 65.341 40.292 66.5613 38.5073C65.7315 38.241 64.9017 37.9746 64.1473 37.7304C67.7283 37.4907 71.2871 37.2243 74.8504 37.0201C78.4358 36.8159 82.0834 38.09 85.9839 36.4918C84.9943 36.2166 84.3287 35.9147 83.6409 35.857C80.9119 35.6306 78.1651 35.5729 75.4494 35.2577C74.2158 35.1156 72.8092 34.796 71.8773 34.0546C70.626 33.0602 69.3302 32.594 67.8348 32.4032C67.4843 32.3588 67.1381 32.2611 66.4548 32.1146C67.2624 31.9415 67.7106 31.8482 68.1676 31.7506C68.2164 29.7084 67.2313 28.4166 65.443 27.906C64.0275 27.5021 62.5232 27.3023 61.0544 27.249C59.3017 27.1913 57.5356 27.3644 56.8389 29.4598C56.7945 29.593 56.5593 29.6596 56.3641 29.7928C56.4662 24.0349 54.8509 23.622 50.8306 22.4012C51.5273 22.157 52.6544 22.0904 52.8896 21.5977C53.2446 20.8563 53.0893 19.8041 52.9606 18.9074C52.4991 15.64 51.6072 12.5635 47.862 11.6889C46.3932 11.3471 44.8135 11.4226 43.287 11.4004C41.9913 11.3826 41.1704 11.8576 41.2769 13.4292C41.3434 14.4103 41.1482 15.4624 40.8376 16.408C40.6024 17.1272 39.9989 17.7221 39.5596 18.3747C39.4353 18.2992 39.3155 18.2193 39.1913 18.1438C40.7932 15.6 40.4382 12.781 40.3006 10.033C40.1453 6.90326 38.4946 4.63916 35.739 3.15641C33.325 1.8601 30.7513 1.1276 28.0223 1.00774C22.4045 0.741373 15.7972 4.65248 16.3697 11.9686C16.4717 13.2472 16.7158 14.5168 16.9021 15.8486C16.3208 16.1638 15.6996 16.4968 15.0739 16.8342C15.0429 16.7632 15.0074 16.6877 14.9763 16.6167C15.4555 16.0972 15.9303 15.5778 16.4096 15.0584C16.3342 14.9741 16.2632 14.8897 16.1877 14.8054C15.4955 15.1739 14.7988 15.5379 14.1066 15.9064C14.0578 15.822 14.0045 15.7377 13.9557 15.6533C14.5814 15.0984 15.2026 14.5479 16.1478 13.7133C15.2914 13.9752 14.8387 14.1128 14.3861 14.2505ZM35.9254 38.3653C30.3697 40.9756 24.9072 41.828 19.6356 37.6283C20.1104 39.9191 22.9592 41.4373 26.6645 41.4817C31.0797 41.535 35.5393 40.0789 35.9254 38.3653Z" fill="#4D4D4D"/>
<path d="M14.3861 14.2504C14.8387 14.1128 15.2913 13.9708 16.1433 13.7088C15.1982 14.5434 14.5769 15.0984 13.9512 15.6489C14 15.7332 14.0533 15.8175 14.1021 15.9019C14.7943 15.5334 15.491 15.1694 16.1833 14.8009C16.2587 14.8853 16.3297 14.9696 16.4051 15.054C15.9259 15.5734 15.4511 16.0928 14.9718 16.6122C15.0029 16.6832 15.0384 16.7587 15.0695 16.8297C15.6907 16.4923 16.3119 16.1594 16.8977 15.8442C16.7113 14.5124 16.4673 13.2427 16.3652 11.9642C15.7972 4.65247 22.4045 0.741358 28.0267 0.994403C30.7513 1.11427 33.3294 1.84677 35.7434 3.14307C38.499 4.62139 40.1453 6.88548 40.3051 10.0197C40.4426 12.7677 40.7976 15.5867 39.1957 18.1305C39.32 18.2059 39.4398 18.2859 39.564 18.3613C40.0033 17.7087 40.6024 17.1139 40.842 16.3947C41.1526 15.4491 41.3478 14.4014 41.2813 13.4158C41.1748 11.8443 41.9957 11.3737 43.2914 11.387C44.8223 11.4048 46.3976 11.3293 47.8664 11.6756C51.616 12.5502 52.5035 15.6267 52.965 18.8941C53.0937 19.7864 53.249 20.8429 52.894 21.5843C52.6588 22.0771 51.5317 22.1437 50.835 22.3879C54.8553 23.6043 56.4661 24.0216 56.3685 29.7795C56.5638 29.6463 56.7989 29.5797 56.8433 29.4465C57.54 27.3511 59.3061 27.1735 61.0589 27.2357C62.5321 27.2845 64.0364 27.4887 65.4475 27.8927C67.2357 28.4032 68.2208 29.6995 68.172 31.7372C67.7194 31.8349 67.2712 31.9281 66.4592 32.1013C67.1426 32.2478 67.4887 32.3454 67.8392 32.3898C69.3346 32.5852 70.6304 33.0513 71.8817 34.0413C72.8136 34.7827 74.2158 35.1023 75.4538 35.2444C78.1695 35.5595 80.9163 35.6173 83.6453 35.8437C84.3331 35.9014 84.9987 36.1988 85.9883 36.4785C82.0922 38.0767 78.4447 36.8026 74.8548 37.0068C71.2915 37.2066 67.7327 37.4774 64.1517 37.7171C64.9061 37.9613 65.7359 38.2276 66.5657 38.494C65.3454 40.2786 61.1565 41.5172 58.9067 40.4118C61.3562 40.4384 63.4551 40.5494 65.1812 38.5606C64.378 38.6716 63.8278 38.747 63.2288 38.8269C63.2376 38.6804 63.2509 38.3919 63.2731 37.8902C62.7983 38.454 62.4655 38.8491 62.0129 39.3819C62.0972 38.858 62.1505 38.5029 62.2436 37.9213C61.7067 38.4141 61.3384 38.7515 60.8858 39.1688C60.8858 38.5517 60.8858 38.0589 60.8858 37.5662C60.8148 37.5395 60.7482 37.5129 60.6772 37.4862C60.5219 37.8236 60.3622 38.1566 60.2379 38.423C59.8386 37.8103 59.4436 37.2021 59.0354 36.5762C58.8046 37.7837 58.8268 38.8047 58.4008 39.5772C57.9704 40.3541 57.2027 41.1177 56.3996 41.4861C54.0122 42.5827 51.5583 41.4861 50.2804 38.7293C51.2921 40.1943 52.6011 40.98 54.3761 40.8868C56.404 40.7803 57.4645 40.0611 57.824 38.1078C57.5799 38.5517 57.3359 38.9956 56.9409 39.7148C56.7501 38.9646 56.6924 38.7293 56.617 38.4407C56.1289 38.8847 55.7118 39.262 55.2991 39.6394C55.2325 39.6038 55.1704 39.5639 55.1038 39.5284C55.2414 39.1466 55.3834 38.7603 55.6319 38.0767C54.7444 38.8181 54.0788 39.3774 53.4132 39.9324C53.32 39.8613 53.2313 39.7903 53.1381 39.7193C53.4886 39.2487 53.8436 38.7826 54.1942 38.312C54.1365 38.2454 54.0744 38.1788 54.0167 38.1122C53.4354 38.4895 52.8541 38.8669 52.2728 39.2442C52.2062 39.2043 52.1441 39.1643 52.0775 39.1244C52.4059 38.6938 52.7343 38.2631 53.2135 37.6372C52.7431 37.7659 52.4991 37.8325 52.1973 37.9124C52.224 37.6549 52.2461 37.4152 52.2461 37.4197C49.2642 38.2543 46.2956 39.1821 43.2781 39.9057C40.0965 40.6737 37.6515 39.4263 35.8676 36.7493C35.6103 36.3631 35.2997 36.0124 34.9668 35.5862C34.7716 36.4829 34.5985 37.2687 34.4255 38.0545C34.3323 38.0323 34.2347 38.0101 34.1415 37.9879C34.0838 37.2954 34.0261 36.6028 33.9595 35.8082C33.3294 36.8647 32.7748 37.797 32.2201 38.7293C32.0692 38.6538 31.9139 38.5783 31.763 38.5029C31.9317 37.8103 32.1003 37.1222 32.3399 36.1322C31.4879 37.2998 30.84 38.1877 30.1922 39.0755C30.099 39.0134 30.0014 38.9557 29.9082 38.8935C30.3209 37.8636 30.7335 36.8292 31.1418 35.7993C29.7751 36.7848 29.7041 38.8403 27.6984 39.3552C28.2308 38.4674 28.6923 37.6993 29.1538 36.9358C29.074 36.8825 28.9941 36.8292 28.9142 36.7804C28.1421 37.6194 27.3655 38.4585 26.5934 39.302C26.4869 39.2043 26.3804 39.1066 26.2784 39.009C26.6378 38.4452 26.9972 37.8858 27.3522 37.322C27.299 37.282 27.2413 37.2421 27.1881 37.2021C26.3583 37.8592 25.5329 38.5206 24.7031 39.1777C24.6365 39.0889 24.57 39.0001 24.5034 38.9157C24.8806 38.3431 25.2533 37.7748 25.6305 37.2021C25.5773 37.1533 25.5196 37.1089 25.4663 37.0601C24.814 37.5528 24.1662 38.0412 23.5139 38.5339C23.4429 38.4718 23.3763 38.4096 23.3053 38.3475C23.7579 37.7615 24.215 37.1755 24.6676 36.5895C24.6055 36.5185 24.5434 36.4519 24.4812 36.3808C23.7668 36.9402 23.0479 37.4951 22.3335 38.0545C22.2492 37.979 22.1649 37.9035 22.0761 37.8325C22.6841 37.0689 23.292 36.3054 23.8999 35.5373C23.8378 35.4796 23.7757 35.4175 23.7136 35.3598C22.9991 35.9325 22.2847 36.5096 21.5703 37.0823C21.486 37.0112 21.4061 36.9402 21.3218 36.8736C21.9918 35.9813 22.6619 35.0845 23.5893 33.8459C21.7123 35.0224 20.279 36.0923 18.7037 36.8736C15.9081 38.2587 12.904 38.8891 9.77119 38.7559C7.78766 38.6716 6.86468 38.0856 5.86626 36.1189C8.56865 37.8059 11.1645 38.1921 13.9246 37.5528C16.6092 36.9313 19.1963 36.1455 21.5215 33.8815C20.8736 34.1167 20.5896 34.2188 20.208 34.3565C20.2701 33.988 20.3234 33.6639 20.4077 33.1578C19.7776 33.8948 19.2717 34.4852 18.7658 35.0712C18.6549 34.9824 18.544 34.8936 18.433 34.8049C18.4907 34.463 18.5484 34.1212 18.6327 33.6151C17.905 34.2188 16.9953 35.2133 16.8045 35.0934C15.6153 34.3343 15.318 35.8082 14.3639 35.8215C14.537 35.413 14.6967 35.0357 15.0029 34.3121C13.9157 35.1422 13.117 35.7504 12.3227 36.3586C12.2783 36.3098 12.2295 36.261 12.1851 36.2077C12.4647 35.7993 12.7443 35.3909 13.0238 34.978C12.9839 34.9203 12.9439 34.8626 12.904 34.8093C11.95 35.4264 11.0004 36.0434 10.0463 36.6605C10.0241 36.625 9.9975 36.5939 9.97531 36.5584C10.4945 36.0612 11.0137 35.564 11.5328 35.0668C11.4574 34.9691 11.3864 34.867 11.311 34.7693C10.8317 34.9913 10.3481 35.2088 9.7845 35.4663C9.81556 35.2088 9.84219 35.0002 9.88656 34.6761C9.37182 34.8981 8.91477 35.0979 8.45328 35.2976C8.4089 35.2488 8.36453 35.2 8.31572 35.1511C8.56421 34.8626 8.81271 34.5784 9.12776 34.21C8.86596 34.1833 8.72396 34.1301 8.60859 34.1656C7.2818 34.5873 5.9772 35.0845 4.63266 35.4352C3.49224 35.7327 2.09446 35.8881 1.52647 34.6894C1.11822 33.8282 1.14485 32.5186 1.49097 31.5952C2.3962 29.1535 4.6016 27.9149 7.08655 28.0792C7.50367 28.7806 7.90304 29.4598 8.30684 30.1346C8.44884 30.0991 8.5864 30.0636 8.7284 30.0281C8.00953 27.9282 8.2669 26.0637 10.1572 24.8473C10.5122 24.6164 11.3687 25.1625 12.0653 25.3756C11.7636 25.8728 11.595 26.148 11.3154 26.6142C11.95 26.3567 12.4026 26.1747 13.2501 25.8284C12.6466 26.5254 12.3138 26.9072 11.9855 27.289C12.0431 27.3689 12.1008 27.4488 12.1585 27.5287C12.8685 27.1069 13.5785 26.6896 14.324 26.2457C9.58038 22.6675 8.48434 19.5067 10.3214 15.1161C11.2666 12.8565 13.6939 10.5702 15.5886 11.2849C14.923 11.8931 14.3373 12.4258 13.756 12.9586C13.7959 13.0296 13.8359 13.0962 13.8758 13.1672C14.3595 12.9364 14.8476 12.71 15.3313 12.4791C15.4688 12.6167 15.6064 12.7544 15.744 12.892C15.1227 13.145 14.497 13.3981 13.8758 13.6556C14.0444 13.8642 14.213 14.0595 14.3861 14.2504ZM50.9992 36.9136C50.9637 36.7449 50.9282 36.5762 50.8972 36.403C50.1472 36.4474 49.4018 36.4918 48.643 36.5362C48.8116 36.2521 48.9758 35.968 49.1444 35.6794C49.0778 35.6128 49.0113 35.5418 48.9447 35.4752C48.0173 36.0878 47.0854 36.696 45.8163 37.5351C46.3799 36.7138 46.6772 36.2787 46.9789 35.8437C46.9168 35.7948 46.8502 35.746 46.7881 35.6972C45.5811 36.5407 44.3786 37.3841 43.1716 38.2232C43.145 38.1699 43.1228 38.1166 43.0962 38.0634C43.8949 37.2288 44.6892 36.3897 45.488 35.5551C43.713 36.4963 42.2087 37.7349 40.1764 38.0057C41.268 37.1222 42.3596 36.2343 43.4556 35.3509C43.3979 35.2932 43.3447 35.231 43.287 35.1733C41.836 35.9325 40.3849 36.6916 38.9339 37.4463C38.8673 37.3175 38.8008 37.1844 38.7342 37.0556C39.3022 36.6516 39.8702 36.2521 40.4382 35.8481C40.3982 35.8037 40.3583 35.7593 40.3139 35.7149C39.4087 35.9325 38.5035 36.1544 37.5938 36.372C37.5627 36.2388 37.5361 36.1056 37.505 35.9769C37.8157 35.635 38.1263 35.2932 38.4369 34.9514C37.7225 34.9869 36.8261 35.1778 36.7019 35.5995C36.5599 36.0745 37.0081 36.8381 37.3897 37.3353C38.5567 38.8536 40.203 39.7059 42.0578 39.3108C45.0708 38.6804 48.0173 37.7304 50.9992 36.9136ZM5.55564 32.9536C5.01871 33.1712 4.4951 33.3798 3.6653 33.7128C4.12236 32.9936 4.37529 32.594 4.63266 32.19C4.57497 32.1457 4.51285 32.1013 4.45516 32.0569C4.02473 32.3765 3.58987 32.6961 3.15944 33.0158C3.10619 32.9714 3.05738 32.9225 3.00856 32.8737C3.20381 32.5274 3.39906 32.1767 3.63424 31.7594C3.30587 31.826 3.06181 31.8793 2.78226 31.937C2.83994 31.5241 2.88875 31.1779 2.93757 30.8272C2.39176 31.3998 1.97908 32.008 1.79271 32.6784C1.46878 33.8371 2.22758 34.9558 3.38575 34.8626C5.29827 34.7072 7.16199 34.241 8.55977 32.6029C7.55248 32.8293 6.54075 33.0513 5.53789 33.2733C5.53345 33.3176 5.54233 33.1534 5.55564 32.9536ZM64.5422 36.5717C68.0922 37.464 71.1451 36.6294 74.5042 36.0656C72.9911 35.746 71.7797 35.493 70.3242 35.1822C70.2177 35.2577 69.8006 35.5551 69.2814 35.9236C69.4012 35.5285 69.4766 35.2887 69.6053 34.8537C68.8776 35.3553 68.314 35.7416 67.4044 36.3675C67.8348 35.6661 68.0389 35.342 68.2386 35.0179C68.1898 34.9691 68.141 34.9247 68.0922 34.8759C67.4842 35.3109 66.8763 35.746 66.0465 36.3409C66.295 35.7504 66.4148 35.4708 66.5302 35.1911C66.4681 35.1422 66.4059 35.0978 66.3438 35.049C65.8246 35.4841 65.3055 35.9236 64.5422 36.5717ZM33.7199 30.1568C33.8575 30.3566 33.995 30.5563 34.1326 30.7606C35.5925 29.7795 37.4695 29.4065 38.61 27.9504C38.5168 27.8128 38.4236 27.6796 38.3348 27.542C36.7951 28.4166 35.2597 29.2867 33.7199 30.1568ZM42.5504 30.5075C44.7114 29.957 45.5323 29.2911 45.6433 28.088C44.4984 28.9848 43.5266 29.7484 42.5504 30.5075ZM43.3713 31.4797C43.4778 31.6174 43.5887 31.7594 43.6952 31.897C44.778 31.1912 45.8651 30.4853 46.9479 29.7795C46.8236 29.6019 46.7038 29.4199 46.5796 29.2423C45.5146 29.9837 44.4407 30.7295 43.3713 31.4797ZM19.1963 24.4522C19.2717 24.5454 19.3471 24.6431 19.4181 24.7363C20.4166 24.0571 21.415 23.3778 22.409 22.6942C22.2891 22.5388 22.1693 22.3834 22.054 22.2236C21.0999 22.9694 20.1459 23.7108 19.1963 24.4522ZM51.3764 31.1601C51.2122 30.9648 51.048 30.7694 50.8839 30.5741C50.1384 31.2622 49.3929 31.9548 48.643 32.6429C48.7406 32.7583 48.8338 32.8737 48.9314 32.9847C49.7479 32.3809 50.5599 31.7683 51.3764 31.1601ZM34.2036 7.99089C34.2879 8.12851 34.3722 8.26614 34.4565 8.40376C35.3573 7.91542 36.2626 7.42709 37.1634 6.93876C37.0569 6.74786 36.9504 6.56141 36.8439 6.37051C35.9608 6.90768 35.0822 7.44929 34.2036 7.99089ZM50.3247 32.8338C50.449 32.9669 50.5777 33.1046 50.7019 33.2377C51.443 32.6029 52.1796 31.9681 52.9206 31.3332C52.7653 31.1645 52.6056 31.0003 52.4503 30.8316C51.7403 31.4975 51.0303 32.1678 50.3247 32.8338ZM35.1088 30.9026C35.1798 31.0447 35.2508 31.1912 35.3218 31.3332C36.3203 30.8627 37.3187 30.3921 38.3215 29.926C38.2328 29.7395 38.1396 29.5575 38.0508 29.371C37.0702 29.8816 36.0895 30.3921 35.1088 30.9026ZM22.9725 23.8706C22.8216 23.693 22.6708 23.5155 22.5199 23.3379C21.7922 24.0349 21.06 24.7274 20.3322 25.4244C20.4032 25.5088 20.4742 25.5931 20.5497 25.673C21.3573 25.0693 22.1649 24.4699 22.9725 23.8706Z" fill="white"/>
<path d="M35.9253 38.3652C35.5393 40.0788 31.0797 41.535 26.6689 41.4817C22.9592 41.4373 20.1104 39.919 19.64 37.6283C24.9072 41.828 30.3697 40.9756 35.9253 38.3652Z" fill="white"/>
<path d="M50.9992 36.9136C48.0217 37.7304 45.0708 38.6805 42.0534 39.3153C40.1986 39.706 38.5523 38.8536 37.3852 37.3398C37.0036 36.847 36.5554 36.0834 36.6974 35.604C36.8217 35.1822 37.7225 34.9913 38.4325 34.9558C38.1218 35.2976 37.8112 35.6395 37.5006 35.9813C37.5317 36.1145 37.5583 36.2477 37.5894 36.3764C38.4946 36.1589 39.3998 35.9369 40.3095 35.7194C40.3494 35.7638 40.3894 35.8082 40.4337 35.8526C39.8658 36.2566 39.2978 36.6561 38.7298 37.0601C38.7963 37.1888 38.8629 37.322 38.9295 37.4508C40.3805 36.6916 41.8315 35.9325 43.2826 35.1778C43.3358 35.2355 43.3935 35.2932 43.4512 35.3554C42.3596 36.2388 41.268 37.1267 40.1719 38.0101C42.1998 37.7393 43.7086 36.5007 45.4835 35.5596C44.6848 36.3942 43.8905 37.2332 43.0918 38.0678C43.1184 38.1211 43.1406 38.1744 43.1672 38.2276C44.3742 37.3842 45.5767 36.5407 46.7837 35.7016C46.8458 35.7505 46.9124 35.7993 46.9745 35.8481C46.6772 36.2832 46.3754 36.7183 45.8119 37.5395C47.0854 36.7005 48.0128 36.0923 48.9403 35.4797C49.0068 35.5463 49.0734 35.6173 49.14 35.6839C48.9713 35.968 48.8027 36.2566 48.6385 36.5407C49.3973 36.4963 50.1472 36.4519 50.8927 36.4075C50.9282 36.5762 50.9637 36.7449 50.9992 36.9136Z" fill="#4D4D4D"/>
<path d="M5.55564 32.9536C5.54233 33.1534 5.53345 33.3176 5.53789 33.2733C6.54075 33.0513 7.55248 32.8249 8.55977 32.6029C7.16199 34.241 5.29827 34.7072 3.38574 34.8626C2.22758 34.9558 1.46878 33.8371 1.79271 32.6784C1.97908 32.008 2.39176 31.3954 2.93757 30.8271C2.88875 31.1734 2.83994 31.5241 2.78226 31.937C3.06181 31.8793 3.30587 31.826 3.63424 31.7594C3.39906 32.1812 3.20381 32.5274 3.00856 32.8737C3.05738 32.9225 3.11062 32.9714 3.15944 33.0202C3.58987 32.7006 4.02473 32.3809 4.45516 32.0613C4.51285 32.1057 4.57497 32.1501 4.63266 32.1945C4.37529 32.5985 4.12236 32.998 3.6653 33.7172C4.4951 33.3798 5.01871 33.1712 5.55564 32.9536Z" fill="#4D4D4D"/>
<path d="M64.5422 36.5717C65.3055 35.928 65.8246 35.4885 66.3438 35.049C66.406 35.0979 66.4681 35.1423 66.5302 35.1911C66.4148 35.4708 66.295 35.7505 66.0465 36.3409C66.8763 35.746 67.4842 35.311 68.0922 34.8759C68.141 34.9247 68.1898 34.9691 68.2386 35.018C68.0389 35.342 67.8392 35.6661 67.4044 36.3675C68.314 35.7416 68.8776 35.3554 69.6053 34.8537C69.4722 35.2888 69.4012 35.524 69.2814 35.9236C69.8006 35.5551 70.2177 35.2577 70.3242 35.1822C71.7841 35.4885 72.9911 35.746 74.5042 36.0657C71.1451 36.6295 68.0966 37.4641 64.5422 36.5717Z" fill="#4D4D4D"/>
<path d="M33.7199 30.1568C35.2597 29.2867 36.7951 28.4121 38.3348 27.542C38.428 27.6796 38.5212 27.8128 38.61 27.9504C37.4695 29.4021 35.5925 29.775 34.1326 30.7606C33.995 30.5608 33.8575 30.3566 33.7199 30.1568Z" fill="#4D4D4D"/>
<path d="M42.5504 30.5075C43.5222 29.744 44.4984 28.9848 45.6433 28.0881C45.5323 29.2956 44.7114 29.9571 42.5504 30.5075Z" fill="#4D4D4D"/>
<path d="M43.3713 31.4798C44.4407 30.7339 45.5146 29.9837 46.584 29.2379C46.7082 29.4154 46.8281 29.5974 46.9523 29.775C45.8696 30.4809 44.7824 31.1867 43.6997 31.8926C43.5887 31.755 43.4778 31.6174 43.3713 31.4798Z" fill="#4D4D4D"/>
<path d="M19.1963 24.4522C20.1503 23.7108 21.1043 22.9694 22.054 22.228C22.1738 22.3834 22.2936 22.5388 22.4089 22.6986C21.4105 23.3778 20.4121 24.0571 19.4181 24.7407C19.3427 24.6431 19.2673 24.5454 19.1963 24.4522Z" fill="#4D4D4D"/>
<path d="M51.3764 31.1601C50.5599 31.7683 49.7479 32.3809 48.9314 32.9891C48.8338 32.8737 48.7406 32.7583 48.643 32.6473C49.3884 31.9592 50.1339 31.2667 50.8839 30.5786C51.048 30.7694 51.2122 30.9648 51.3764 31.1601Z" fill="#4D4D4D"/>
<path d="M34.2036 7.99092C35.0822 7.44932 35.9653 6.91215 36.8439 6.37054C36.9504 6.56144 37.0569 6.74789 37.1634 6.93879C36.2626 7.42712 35.3573 7.91545 34.4565 8.40379C34.3722 8.26617 34.2879 8.12855 34.2036 7.99092Z" fill="#4D4D4D"/>
<path d="M50.3247 32.8338C51.0303 32.1679 51.7403 31.4975 52.4458 30.8316C52.6011 31.0003 52.7609 31.1646 52.9162 31.3333C52.1751 31.9681 51.4385 32.6029 50.6975 33.2378C50.5777 33.1046 50.449 32.967 50.3247 32.8338Z" fill="#4D4D4D"/>
<path d="M35.1088 30.9026C36.0895 30.3921 37.0702 29.8816 38.0508 29.371C38.1396 29.5575 38.2328 29.7395 38.3215 29.926C37.3231 30.3965 36.3247 30.8671 35.3218 31.3332C35.2508 31.1867 35.1798 31.0447 35.1088 30.9026Z" fill="#4D4D4D"/>
<path d="M22.9725 23.8706C22.1649 24.4699 21.3573 25.0737 20.5452 25.673C20.4742 25.5887 20.4032 25.5043 20.3278 25.4244C21.0555 24.7274 21.7877 24.0349 22.5155 23.3379C22.6708 23.5155 22.8216 23.693 22.9725 23.8706Z" fill="#4D4D4D"/>
</g>
<defs>
<clipPath id="clip0_193_1806">
<rect width="87" height="43" fill="white"/>
</clipPath>
</defs>
</svg>
