<svg width="60" height="30" viewBox="0 0 60 30" fill="none" xmlns="http://www.w3.org/2000/svg">
<g clip-path="url(#clip0_193_1879)">
<path d="M3.13982 25.4595C3.01741 25.4781 2.72362 25.5493 2.42677 25.5617C0.807877 25.6329 -0.186716 24.5148 0.027504 22.8795C0.351895 20.4048 2.30742 18.9088 4.89642 19.0234C5.5299 18.1345 6.11136 17.3168 6.72953 16.4527C4.1895 12.5749 7.23754 6.98435 10.3743 7.06178C10.815 5.92199 11.0935 4.72336 11.7025 3.72914C13.0613 1.49911 15.2157 0.356228 17.7221 0.0805725C20.3815 -0.213667 22.9307 0.312867 25.281 1.70353C27.0988 2.77828 28.1424 4.34549 28.4239 6.44853C28.4668 6.77684 28.5402 7.09895 28.6106 7.48611C29.1584 7.40868 29.6695 7.30956 30.1836 7.2662C34.673 6.87904 37.0723 8.98208 37.3508 13.5443C37.3538 13.5784 37.3569 13.6125 37.3538 13.6465C37.3171 14.8111 37.1947 15.9044 38.4923 16.6757C39.0707 17.0195 39.2726 18.0168 39.6735 18.7725C41.4699 17.8124 43.3857 18.1128 45.3106 18.7291C46.957 19.2557 47.8017 20.3273 47.5997 21.8388C48.5606 22.4149 49.3287 22.9538 50.1642 23.3533C50.712 23.6135 51.3485 23.756 51.9575 23.8086C53.9375 23.9759 55.9267 24.0533 57.9067 24.2237C58.4178 24.267 58.9564 24.4591 59.4002 24.7192C59.6909 24.8927 60.0244 25.3356 59.9938 25.6205C59.9632 25.9148 59.5532 26.3267 59.2441 26.4041C58.3199 26.6271 57.362 26.813 56.4133 26.8285C53.5336 26.8749 50.6538 26.8192 47.7741 26.847C47.4436 26.8501 47.0458 27.0669 46.7918 27.3054C45.1239 28.8788 43.1072 29.3248 40.916 29.2753C40.5671 29.2691 40.1754 29.2567 39.8724 29.3992C37.2712 30.6071 35.4595 30.0434 34.0212 27.5253C32.8215 27.8506 31.628 28.2284 30.4131 28.4886C28.8646 28.8231 27.3283 28.8819 25.8961 27.9621C25.7156 27.8475 25.2902 28.0023 25.0362 28.1417C22.4839 29.5602 19.7786 30.2076 16.8958 29.6532C15.3106 29.3465 13.8722 28.6868 12.9542 27.1815C12.8226 26.9678 12.2809 26.878 11.9687 26.9369C10.7997 27.1661 9.65823 27.5439 8.48614 27.7514C7.26508 27.9682 5.99813 27.9961 4.92703 27.2528C4.31191 26.813 3.8345 26.1625 3.13982 25.4595ZM9.92141 9.94223C9.80206 9.80595 9.68271 9.67277 9.56642 9.53649C9.99486 9.35995 10.4264 9.1834 10.8548 9.00376C10.7599 8.90775 10.6651 8.81173 10.5702 8.71572C10.2366 8.87677 9.89999 9.03473 9.56642 9.19579C9.53888 9.14623 9.51134 9.09978 9.48379 9.05022C9.88775 8.67855 10.2886 8.30688 10.7477 7.88256C9.44095 7.3839 7.76697 8.97898 7.11513 10.5555C5.85123 13.6187 6.60406 15.8239 9.87551 18.3203C9.35832 18.63 8.87174 18.9243 8.38209 19.2154C8.34231 19.1597 8.30252 19.1039 8.26274 19.0482C8.49226 18.7818 8.71872 18.5154 9.13492 18.0292C8.55041 18.2676 8.24132 18.3946 7.80064 18.5774C7.99649 18.2522 8.10972 18.0601 8.31782 17.7132C7.83736 17.5677 7.24978 17.1867 7.0019 17.3447C5.69822 18.1933 5.52072 19.4942 6.01649 20.9592C5.91856 20.9839 5.82369 21.0087 5.72576 21.0335C5.45033 20.5627 5.17185 20.0888 4.88418 19.5995C3.16736 19.488 1.64946 20.349 1.02516 22.0525C0.789516 22.6967 0.771154 23.6104 1.04964 24.2113C1.44136 25.0475 2.40229 24.9391 3.19184 24.7316C4.11911 24.4869 5.01883 24.14 5.93386 23.8458C6.01343 23.821 6.11136 23.8582 6.29191 23.8768C6.07463 24.1338 5.90326 24.3321 5.73188 24.5334C5.76248 24.5675 5.79309 24.6015 5.82675 24.6356C6.14502 24.4962 6.46023 24.3568 6.81522 24.202C6.78768 24.4281 6.76932 24.5737 6.74484 24.7533C7.13349 24.5737 7.464 24.4188 7.79757 24.267C7.8496 24.3352 7.89856 24.4064 7.95059 24.4745C7.59254 24.8214 7.23448 25.1683 6.87643 25.5152C6.89173 25.54 6.91009 25.5617 6.92539 25.5865C7.58335 25.1559 8.23826 24.7254 8.89622 24.2949C8.92376 24.3352 8.9513 24.3754 8.97885 24.4126C8.78605 24.6975 8.59325 24.9825 8.40045 25.2705C8.43106 25.3046 8.46472 25.3387 8.49532 25.3758C9.04617 24.9515 9.59702 24.5272 10.3437 23.948C10.1326 24.4529 10.0224 24.7161 9.90305 25.0011C10.561 24.9949 10.7661 23.9635 11.5862 24.4931C11.7209 24.5799 12.3452 23.883 12.847 23.4617C12.7889 23.8148 12.7491 24.0533 12.7093 24.2918C12.7858 24.3538 12.8624 24.4157 12.9389 24.4776C13.2877 24.0657 13.6366 23.6569 14.0712 23.1427C14.013 23.4958 13.9763 23.7219 13.9335 23.979C14.1966 23.883 14.3956 23.8117 14.8393 23.6476C13.2357 25.2272 11.4516 25.7723 9.60008 26.209C7.69659 26.655 5.90938 26.3855 4.0426 25.2086C4.73117 26.5776 5.36771 26.9895 6.73566 27.0484C8.89622 27.1413 10.968 26.6984 12.896 25.7351C13.9824 25.19 14.9709 24.4436 16.2654 23.6228C15.6258 24.4869 15.1637 25.1095 14.7016 25.7351C14.7597 25.7847 14.8148 25.8342 14.873 25.8807C15.3657 25.4812 15.8584 25.0785 16.3511 24.679C16.3939 24.7192 16.4368 24.7626 16.4796 24.8029C16.0604 25.3356 15.6411 25.8683 15.2218 26.4041C15.28 26.4568 15.3381 26.5094 15.3993 26.559C15.892 26.1687 16.3878 25.7816 16.8805 25.3913C16.9234 25.4409 16.9662 25.4873 17.009 25.5369C16.6969 25.9457 16.3817 26.3546 16.0695 26.7634C16.1185 26.8068 16.1644 26.8501 16.2134 26.8935C16.6632 26.5497 17.11 26.209 17.5599 25.8652C17.5966 25.8993 17.6364 25.9303 17.6731 25.9643C17.413 26.3639 17.1559 26.7603 16.8958 27.1599C16.9417 27.2218 16.9876 27.2838 17.0335 27.3426C17.6058 26.8842 18.175 26.4227 18.7473 25.9643C18.784 25.9922 18.8238 26.0201 18.8605 26.0479C18.6126 26.4413 18.3647 26.8316 18.1199 27.2249C18.1934 27.293 18.2668 27.3612 18.3372 27.4293C18.8697 26.8439 19.4052 26.2586 19.9377 25.6701C19.9928 25.7073 20.0479 25.7444 20.103 25.7785C19.7847 26.3143 19.4665 26.8501 19.0992 27.4665C20.4855 27.1072 20.5314 25.6732 21.474 24.9856C21.1894 25.7042 20.9048 26.4258 20.6232 27.1444C20.6875 27.1877 20.7548 27.228 20.8191 27.2714C21.2659 26.6519 21.7127 26.0325 22.3003 25.2179C22.135 25.9055 22.0187 26.3886 21.9024 26.8718C22.0065 26.9245 22.1136 26.9771 22.2176 27.0298C22.6002 26.3794 22.9827 25.7289 23.4173 24.9918C23.4632 25.5462 23.503 26.0294 23.5428 26.5125C23.607 26.528 23.6743 26.5435 23.7386 26.559C23.858 26.0108 23.9773 25.4626 24.112 24.8369C24.3415 25.1343 24.5557 25.3789 24.7332 25.6484C25.9634 27.516 27.6497 28.3864 29.8439 27.8506C31.9249 27.3426 33.9722 26.6984 36.0287 26.1161C36.0287 26.113 36.0134 26.2802 35.9951 26.4599C36.2032 26.401 36.3745 26.3546 36.6959 26.2679C36.3654 26.7046 36.1389 27.005 35.9124 27.3054C35.9583 27.3333 36.0012 27.3612 36.0471 27.3891C36.448 27.1258 36.8489 26.8625 37.2498 26.5993C37.2896 26.6457 37.3324 26.6922 37.3722 26.7386C37.1304 27.0669 36.8856 27.3922 36.6438 27.7205C36.7081 27.77 36.7693 27.8196 36.8336 27.8691C37.2926 27.482 37.7517 27.0948 38.3637 26.5745C38.1924 27.0515 38.0975 27.3178 37.9996 27.5873C38.0455 27.6121 38.0883 27.6399 38.1342 27.6647C38.4188 27.4014 38.7065 27.1382 39.0431 26.8285C39.0921 27.0298 39.1349 27.1939 39.2665 27.7174C39.5389 27.2156 39.7072 26.9059 39.8755 26.5962C39.6276 27.959 38.8993 28.4607 37.4977 28.535C36.2736 28.6001 35.3708 28.0488 34.673 27.0298C35.5544 28.9532 37.2467 29.7182 38.8932 28.9532C39.4471 28.6961 39.9765 28.1665 40.2733 27.6214C40.5671 27.0824 40.5518 26.3701 40.711 25.5276C40.9925 25.9643 41.2649 26.3886 41.5403 26.8161C41.626 26.6302 41.7362 26.3948 41.8433 26.1625C41.8922 26.1811 41.9381 26.1997 41.9871 26.2183C41.9871 26.5621 41.9871 26.909 41.9871 27.3364C42.2993 27.0453 42.5533 26.8099 42.9236 26.4661C42.8593 26.8718 42.8226 27.1165 42.7644 27.4851C43.0766 27.1103 43.3061 26.8377 43.6335 26.4444C43.6182 26.7944 43.6091 26.9957 43.6029 27.0979C44.0161 27.0391 44.3956 26.9864 44.9495 26.9121C43.759 28.2997 42.3115 28.2222 40.6222 28.2036C42.1738 28.9749 45.0627 28.1107 45.9043 26.8656C45.332 26.6798 44.7597 26.494 44.2395 26.3236C46.7091 26.1564 49.1635 25.9705 51.6209 25.828C54.0936 25.6856 56.6092 26.5745 59.2992 25.4595C58.6167 25.2674 58.1577 25.0568 57.6833 25.0166C55.8013 24.8586 53.9069 24.8183 52.034 24.5984C51.1833 24.4993 50.2132 24.2763 49.5705 23.7591C48.7075 23.0653 47.8139 22.7401 46.7826 22.6069C46.5408 22.5759 46.3021 22.5078 45.8308 22.4056C46.3878 22.2848 46.6969 22.2197 47.0121 22.1516C47.0458 20.7269 46.3664 19.8256 45.1331 19.4694C44.1569 19.1875 43.1194 19.0482 42.1065 19.011C40.8976 18.9707 39.6797 19.0915 39.1992 20.5534C39.1686 20.6463 39.0064 20.6928 38.8717 20.7857C38.9421 16.7686 37.8282 16.4805 35.0556 15.6288C35.536 15.4584 36.3133 15.412 36.4755 15.0682C36.7204 14.5509 36.6132 13.8169 36.5245 13.1912C36.2062 10.9117 35.5911 8.76527 33.0082 8.15511C31.9953 7.91663 30.9058 7.96928 29.8531 7.95379C28.9595 7.9414 28.3933 8.27281 28.4668 9.36924C28.5127 10.0537 28.378 10.7878 28.1638 11.4475C28.0016 11.9493 27.5854 12.3643 27.2824 12.8196C27.1967 12.7669 27.1141 12.7112 27.0284 12.6585C28.1332 10.8838 27.8884 8.91704 27.7935 6.99984C27.6864 4.81627 26.548 3.23667 24.6475 2.20219C22.9827 1.29779 21.2078 0.786746 19.3257 0.703121C15.4514 0.517285 10.8946 3.24597 11.2894 8.35024C11.3597 9.24225 11.5281 10.1281 11.6566 11.0572C11.2557 11.2771 10.8273 11.5094 10.3958 11.7448C10.3743 11.6953 10.3499 11.6426 10.3284 11.5931C10.6589 11.2307 10.9864 10.8683 11.3169 10.5059C11.2649 10.4471 11.2159 10.3882 11.1639 10.3294C10.6865 10.5865 10.206 10.8404 9.72862 11.0975C9.69495 11.0387 9.65823 10.9798 9.62457 10.921C10.0561 10.5338 10.4845 10.1497 11.1363 9.56746C10.5457 9.7502 10.2336 9.84621 9.92141 9.94223ZM24.7761 26.7665C20.9446 28.5877 17.1774 29.1824 13.5417 26.2524C13.8692 27.8506 15.8339 28.9098 18.3892 28.9408C21.4342 28.978 24.5098 27.9621 24.7761 26.7665Z" fill="#4D4D4D"/>
<path d="M9.92145 9.94219C10.2336 9.84617 10.5458 9.74706 11.1333 9.56432C10.4815 10.1466 10.053 10.5338 9.62155 10.9178C9.65521 10.9767 9.69193 11.0355 9.7256 11.0944C10.203 10.8373 10.6835 10.5833 11.1609 10.3262C11.2129 10.3851 11.2619 10.4439 11.3139 10.5028C10.9834 10.8652 10.6559 11.2275 10.3254 11.5899C10.3468 11.6395 10.3713 11.6921 10.3927 11.7417C10.8212 11.5063 11.2496 11.274 11.6536 11.0541C11.525 10.1249 11.3567 9.23911 11.2863 8.3471C10.8946 3.24593 15.4514 0.517248 19.3288 0.693791C21.2078 0.777417 22.9858 1.28846 24.6506 2.19286C26.5511 3.22425 27.6864 4.80385 27.7966 6.99051C27.8915 8.90771 28.1363 10.8745 27.0315 12.6492C27.1172 12.7018 27.1998 12.7576 27.2855 12.8102C27.5885 12.3549 28.0016 11.9399 28.1669 11.4382C28.3811 10.7784 28.5158 10.0475 28.4699 9.35991C28.3964 8.26348 28.9626 7.93517 29.8562 7.94446C30.912 7.95685 31.9984 7.9042 33.0113 8.14578C35.5973 8.75594 36.2093 10.9023 36.5276 13.1819C36.6163 13.8045 36.7235 14.5416 36.4786 15.0589C36.3164 15.4026 35.5391 15.4491 35.0587 15.6195C37.8313 16.4681 38.9422 16.7592 38.8748 20.7764C39.0095 20.6835 39.1717 20.637 39.2023 20.5441C39.6828 19.0822 40.9007 18.9583 42.1096 19.0017C43.1256 19.0357 44.163 19.1782 45.1362 19.4601C46.3695 19.8162 47.0489 20.7206 47.0152 22.1423C46.7031 22.2104 46.394 22.2755 45.8339 22.3962C46.3052 22.4985 46.5439 22.5666 46.7857 22.5976C47.817 22.7338 48.7106 23.0591 49.5736 23.7497C50.2163 24.267 51.1833 24.49 52.0371 24.5891C53.91 24.809 55.8043 24.8493 57.6864 25.0072C58.1608 25.0475 58.6198 25.255 59.3023 25.4501C56.6153 26.5651 54.0998 25.6762 51.624 25.8187C49.1666 25.9581 46.7122 26.147 44.2426 26.3143C44.7628 26.4846 45.3351 26.6705 45.9074 26.8563C45.0658 28.1014 42.1769 28.9655 40.6253 28.1943C42.3146 28.2129 43.7621 28.2903 44.9526 26.9028C44.3987 26.9802 44.0192 27.0328 43.606 27.0886C43.6122 26.9864 43.6213 26.7851 43.6366 26.4351C43.3092 26.8284 43.0797 27.1041 42.7675 27.4757C42.8257 27.1103 42.8624 26.8625 42.9267 26.4567C42.5564 26.8005 42.3024 27.0359 41.9902 27.3271C41.9902 26.8966 41.9902 26.5528 41.9902 26.209C41.9412 26.1904 41.8953 26.1718 41.8464 26.1532C41.7393 26.3886 41.6291 26.6209 41.5434 26.8067C41.268 26.3793 40.9956 25.955 40.7141 25.5183C40.5549 26.3607 40.5702 27.0731 40.2764 27.612C39.9796 28.154 39.4502 28.6868 38.8963 28.9438C37.2498 29.7089 35.5575 28.9438 34.6761 27.0204C35.3739 28.0425 36.2766 28.5908 37.5008 28.5257C38.8993 28.4514 39.6307 27.9496 39.8786 26.5868C39.7103 26.8966 39.542 27.2063 39.2696 27.708C39.138 27.1846 39.0982 27.0204 39.0462 26.8191C38.7096 27.1288 38.4219 27.3921 38.1373 27.6554C38.0914 27.6306 38.0486 27.6027 38.0027 27.578C38.0975 27.3116 38.1955 27.0421 38.3668 26.5651C37.7548 27.0824 37.2957 27.4726 36.8367 27.8598C36.7724 27.8102 36.7112 27.7607 36.6469 27.7111C36.8887 27.3828 37.1335 27.0576 37.3753 26.7293C37.3355 26.6828 37.2927 26.6364 37.2529 26.5899C36.852 26.8532 36.4511 27.1165 36.0502 27.3797C36.0043 27.3519 35.9614 27.324 35.9155 27.2961C36.142 26.9957 36.3685 26.6952 36.699 26.2585C36.3746 26.3483 36.2063 26.3948 35.9982 26.4506C36.0165 26.2709 36.0318 26.1037 36.0318 26.1068C33.9753 26.689 31.928 27.3364 29.847 27.8412C27.6528 28.377 25.9665 27.5067 24.7363 25.6391C24.5588 25.3696 24.3446 25.1249 24.1151 24.8276C23.9804 25.4532 23.8611 26.0014 23.7417 26.5497C23.6774 26.5342 23.6101 26.5187 23.5459 26.5032C23.5061 26.02 23.4663 25.5369 23.4204 24.9825C22.9858 25.7196 22.6033 26.37 22.2207 27.0204C22.1167 26.9678 22.0096 26.9151 21.9055 26.8625C22.0218 26.3793 22.1381 25.8992 22.3034 25.2086C21.7158 26.0231 21.269 26.6426 20.8222 27.262C20.7579 27.2187 20.6906 27.1784 20.6263 27.135C20.9109 26.4165 21.1956 25.6948 21.4771 24.9763C20.5345 25.6638 20.4856 27.0979 19.1023 27.4572C19.4696 26.8377 19.7878 26.3019 20.1061 25.7692C20.051 25.732 19.9959 25.6948 19.9408 25.6608C19.4083 26.2461 18.8728 26.8315 18.3403 27.42C18.2669 27.3519 18.1934 27.2837 18.123 27.2156C18.3709 26.8222 18.6188 26.432 18.8636 26.0386C18.8269 26.0107 18.7871 25.9829 18.7504 25.955C18.1781 26.4134 17.6089 26.8749 17.0366 27.3333C16.9907 27.2713 16.9448 27.2094 16.8989 27.1505C17.159 26.751 17.4161 26.3545 17.6762 25.955C17.6395 25.9209 17.5997 25.8899 17.563 25.8559C17.1131 26.1997 16.6663 26.5404 16.2165 26.8842C16.1675 26.8408 16.1216 26.7974 16.0726 26.7541C16.3848 26.3452 16.7 25.9364 17.0121 25.5276C16.9693 25.478 16.9265 25.4316 16.8836 25.382C16.3909 25.7723 15.8951 26.1594 15.4024 26.5497C15.3443 26.497 15.2861 26.4444 15.2249 26.3948C15.6442 25.8621 16.0635 25.3293 16.4827 24.7935C16.4399 24.7533 16.397 24.7099 16.3542 24.6696C15.8615 25.0692 15.3688 25.4718 14.8761 25.8714C14.8179 25.8218 14.7628 25.7723 14.7047 25.7258C15.1668 25.1032 15.6289 24.4776 16.2685 23.6135C14.974 24.4342 13.9855 25.1807 12.8991 25.7258C10.9711 26.6921 8.89932 27.1319 6.73875 27.039C5.37081 26.9802 4.73427 26.5713 4.0457 25.1993C5.90942 26.3762 7.69968 26.6457 9.60318 26.1997C11.4547 25.7661 13.2388 25.2178 14.8424 23.6382C14.3956 23.8024 14.1997 23.8736 13.9366 23.9697C13.9794 23.7126 14.0161 23.4865 14.0743 23.1334C13.6397 23.6475 13.2908 24.0595 12.942 24.4683C12.8655 24.4064 12.7889 24.3444 12.7124 24.2825C12.7522 24.044 12.792 23.8055 12.8501 23.4524C12.3483 23.8736 11.7209 24.5674 11.5893 24.4838C10.7692 23.9542 10.5641 24.9825 9.90615 24.9917C10.0255 24.7068 10.1357 24.4435 10.3468 23.9387C9.59706 24.5179 9.04621 24.9422 8.49842 25.3665C8.46782 25.3324 8.43415 25.2984 8.40355 25.2612C8.59635 24.9763 8.78915 24.6913 8.98195 24.4033C8.9544 24.363 8.92686 24.3227 8.89932 24.2856C8.24136 24.7161 7.58645 25.1466 6.92849 25.5771C6.91319 25.5523 6.89483 25.5307 6.87953 25.5059C7.23758 25.159 7.59563 24.8121 7.95369 24.4652C7.90166 24.3971 7.8527 24.3258 7.80067 24.2577C7.47016 24.4126 7.13659 24.5643 6.74793 24.744C6.76936 24.5643 6.78772 24.4188 6.81832 24.1927C6.46333 24.3475 6.14812 24.4869 5.82985 24.6263C5.79925 24.5922 5.76864 24.5581 5.73498 24.5241C5.90636 24.3227 6.07773 24.1245 6.29501 23.8674C6.11446 23.8489 6.01653 23.8117 5.93696 23.8365C5.02193 24.1307 4.12221 24.4776 3.19494 24.7223C2.40845 24.9298 1.44446 25.0382 1.05274 24.2019C0.771193 23.6011 0.789554 22.6874 1.02826 22.0432C1.65256 20.3397 3.17352 19.4755 4.88728 19.5901C5.17495 20.0795 5.45037 20.5534 5.72886 21.0242C5.82679 20.9994 5.92166 20.9746 6.01959 20.9498C5.52382 19.4848 5.70132 18.184 7.005 17.3353C7.24982 17.1743 7.84046 17.5552 8.32092 17.7039C8.11282 18.0508 7.99653 18.2428 7.80373 18.568C8.24136 18.3884 8.5535 18.2614 9.13802 18.0198C8.72182 18.5061 8.4923 18.7725 8.26584 19.0388C8.30562 19.0946 8.34541 19.1503 8.38519 19.2061C8.87484 18.9118 9.36448 18.6207 9.87861 18.311C6.60716 15.8146 5.85127 13.6093 7.11823 10.5462C7.77007 8.96965 9.44405 7.37457 10.7508 7.87322C10.2917 8.29755 9.88779 8.66922 9.48689 9.04089C9.51443 9.09045 9.54198 9.1369 9.56952 9.18646C9.90309 9.0254 10.2397 8.86744 10.5733 8.70639C10.6682 8.8024 10.763 8.89842 10.8579 8.99443C10.4295 9.17097 9.99796 9.34752 9.56952 9.52716C9.68581 9.67273 9.8021 9.80901 9.92145 9.94219ZM35.1719 25.7537C35.1474 25.636 35.1229 25.5183 35.1015 25.3975C34.5843 25.4285 34.0702 25.4594 33.5469 25.4904C33.6632 25.2922 33.7764 25.094 33.8927 24.8926C33.8468 24.8462 33.8009 24.7966 33.755 24.7502C33.1154 25.1776 32.4727 25.6019 31.5975 26.1873C31.9861 25.6143 32.1912 25.3108 32.3993 25.0072C32.3564 24.9732 32.3105 24.9391 32.2677 24.905C31.4353 25.4935 30.6059 26.082 29.7735 26.6674C29.7552 26.6302 29.7399 26.593 29.7215 26.5559C30.2724 25.9736 30.8202 25.3882 31.371 24.8059C30.1469 25.4625 29.1095 26.3267 27.7078 26.5156C28.4607 25.8992 29.2135 25.2798 29.9694 24.6634C29.9296 24.6232 29.8929 24.5798 29.8531 24.5395C28.8524 25.0692 27.8517 25.5988 26.851 26.1253C26.8051 26.0355 26.7592 25.9426 26.7133 25.8528C27.105 25.5709 27.4967 25.2922 27.8884 25.0103C27.8609 24.9794 27.8333 24.9484 27.8027 24.9174C27.1784 25.0692 26.5541 25.224 25.9268 25.3758C25.9053 25.2829 25.887 25.19 25.8656 25.1001C26.0798 24.8617 26.294 24.6232 26.5082 24.3847C26.0155 24.4095 25.3973 24.5426 25.3116 24.8369C25.2137 25.1683 25.5228 25.701 25.786 26.0479C26.5908 27.1072 27.7262 27.7018 29.0054 27.4262C31.0833 26.9864 33.1154 26.3236 35.1719 25.7537ZM3.83148 22.9909C3.46119 23.1427 3.10007 23.2883 2.5278 23.5205C2.84301 23.0188 3.01744 22.74 3.19494 22.4582C3.15516 22.4272 3.11231 22.3962 3.07253 22.3653C2.77568 22.5883 2.47577 22.8113 2.17893 23.0343C2.1422 23.0033 2.10854 22.9692 2.07488 22.9352C2.20953 22.6936 2.34418 22.4489 2.50638 22.1578C2.27991 22.2042 2.1116 22.2414 1.9188 22.2816C1.95858 21.9936 1.99225 21.752 2.02591 21.5073C1.6495 21.9069 1.36489 22.3312 1.23636 22.7989C1.01296 23.6073 1.53626 24.3878 2.335 24.3227C3.65398 24.2143 4.9393 23.8891 5.9033 22.7462C5.20861 22.9042 4.51086 23.0591 3.81924 23.2139C3.81618 23.2449 3.8223 23.1303 3.83148 22.9909ZM44.5119 25.5152C46.9601 26.1377 49.0656 25.5554 51.3822 25.1621C50.3387 24.9391 49.5032 24.7625 48.4994 24.5457C48.426 24.5984 48.1383 24.8059 47.7803 25.063C47.8629 24.7873 47.9149 24.6201 48.0037 24.3165C47.5018 24.6665 47.1131 24.936 46.4858 25.3727C46.7826 24.8833 46.9234 24.6572 47.0611 24.4311C47.0274 24.3971 46.9938 24.3661 46.9601 24.332C46.5409 24.6356 46.1216 24.9391 45.5493 25.3541C45.7207 24.9422 45.8033 24.7471 45.8829 24.5519C45.84 24.5179 45.7972 24.4869 45.7544 24.4528C45.3963 24.7564 45.0383 25.063 44.5119 25.5152ZM23.2551 21.0396C23.35 21.179 23.4449 21.3184 23.5397 21.4609C24.5466 20.7764 25.8411 20.5162 26.6276 19.5003C26.5633 19.4043 26.499 19.3114 26.4378 19.2154C25.3759 19.8255 24.317 20.4326 23.2551 21.0396ZM29.3451 21.2843C30.8355 20.9003 31.4016 20.4357 31.4781 19.5963C30.6886 20.222 30.0184 20.7547 29.3451 21.2843ZM29.9113 21.9626C29.9847 22.0586 30.0612 22.1578 30.1347 22.2538C30.8814 21.7613 31.6311 21.2688 32.3778 20.7764C32.2922 20.6525 32.2095 20.5255 32.1238 20.4016C31.3894 20.9189 30.6488 21.4392 29.9113 21.9626ZM13.2388 17.0597C13.2908 17.1247 13.3429 17.1929 13.3918 17.2579C14.0804 16.784 14.7689 16.3101 15.4545 15.8332C15.3718 15.7248 15.2892 15.6164 15.2096 15.5049C14.5517 16.0252 13.8937 16.5424 13.2388 17.0597ZM35.432 21.7396C35.3188 21.6033 35.2056 21.4671 35.0923 21.3308C34.5782 21.8109 34.0641 22.294 33.5469 22.7741C33.6142 22.8546 33.6785 22.9352 33.7458 23.0126C34.3089 22.5914 34.8689 22.164 35.432 21.7396ZM23.5887 5.57506C23.6468 5.67108 23.705 5.76709 23.7631 5.86311C24.3844 5.52241 25.0087 5.18171 25.6299 4.84101C25.5565 4.70783 25.483 4.57775 25.4096 4.44457C24.8006 4.81933 24.1946 5.1972 23.5887 5.57506ZM34.7067 22.9073C34.7924 23.0002 34.8812 23.0962 34.9669 23.1891C35.4779 22.7462 35.9859 22.3033 36.497 21.8604C36.3899 21.7427 36.2797 21.6281 36.1726 21.5104C35.683 21.975 35.1933 22.4427 34.7067 22.9073ZM24.213 21.56C24.262 21.6591 24.3109 21.7613 24.3599 21.8604C25.0485 21.5321 25.737 21.2038 26.4286 20.8786C26.3674 20.7485 26.3032 20.6215 26.242 20.4914C25.5656 20.8476 24.8893 21.2038 24.213 21.56ZM15.8431 16.6539C15.7391 16.53 15.635 16.4062 15.531 16.2823C15.0291 16.7685 14.5241 17.2517 14.0222 17.738C14.0712 17.7968 14.1202 17.8557 14.1722 17.9114C14.7292 17.4902 15.2861 17.0721 15.8431 16.6539Z" fill="white"/>
<path d="M24.7761 26.7665C24.5098 27.962 21.4343 28.9779 18.3923 28.9407C15.8339 28.9098 13.8692 27.8505 13.5448 26.2523C17.1774 29.1823 20.9446 28.5876 24.7761 26.7665Z" fill="white"/>
<path d="M35.1719 25.7536C33.1184 26.3235 31.0833 26.9864 29.0023 27.4293C27.7231 27.7018 26.5878 27.1071 25.7829 26.051C25.5197 25.7072 25.2106 25.1745 25.3086 24.84C25.3943 24.5457 26.0155 24.4125 26.5051 24.3878C26.2909 24.6262 26.0767 24.8647 25.8625 25.1032C25.8839 25.1961 25.9023 25.2891 25.9237 25.3789C26.548 25.2271 27.1723 25.0722 27.7996 24.9205C27.8272 24.9515 27.8547 24.9824 27.8853 25.0134C27.4936 25.2953 27.1019 25.574 26.7102 25.8559C26.7561 25.9457 26.802 26.0386 26.8479 26.1284C27.8486 25.5988 28.8493 25.0692 29.85 24.5426C29.8868 24.5829 29.9266 24.6231 29.9663 24.6665C29.2135 25.2829 28.4607 25.9023 27.7048 26.5187C29.1033 26.3297 30.1438 25.4656 31.3679 24.809C30.8171 25.3913 30.2693 25.9766 29.7185 26.5589C29.7368 26.5961 29.7521 26.6333 29.7705 26.6704C30.6029 26.082 31.4322 25.4935 32.2646 24.9081C32.3075 24.9422 32.3534 24.9762 32.3962 25.0103C32.1912 25.3138 31.9831 25.6174 31.5944 26.1904C32.4727 25.605 33.1123 25.1807 33.7519 24.7532C33.7978 24.7997 33.8437 24.8492 33.8896 24.8957C33.7733 25.0939 33.657 25.2953 33.5438 25.4935C34.0671 25.4625 34.5843 25.4315 35.0984 25.4006C35.1229 25.5183 35.1474 25.636 35.1719 25.7536Z" fill="#4D4D4D"/>
<path d="M3.83148 22.9909C3.8223 23.1303 3.81618 23.2449 3.81924 23.2139C4.51087 23.059 5.20861 22.9011 5.9033 22.7462C4.93931 23.8891 3.65398 24.2143 2.335 24.3227C1.53627 24.3878 1.01296 23.6073 1.23636 22.7989C1.36489 22.3312 1.6495 21.9038 2.02591 21.5073C1.99225 21.7489 1.95859 21.9936 1.9188 22.2816C2.1116 22.2414 2.27992 22.2042 2.50638 22.1577C2.34418 22.452 2.20953 22.6936 2.07488 22.9352C2.10854 22.9692 2.14526 23.0033 2.17893 23.0374C2.47577 22.8144 2.77568 22.5914 3.07253 22.3684C3.11231 22.3993 3.15516 22.4303 3.19494 22.4613C3.01744 22.7431 2.84301 23.0219 2.5278 23.5236C3.10007 23.2882 3.46119 23.1427 3.83148 22.9909Z" fill="#4D4D4D"/>
<path d="M44.5119 25.5152C45.0383 25.0661 45.3963 24.7594 45.7544 24.4528C45.7972 24.4869 45.8401 24.5178 45.8829 24.5519C45.8033 24.747 45.7207 24.9422 45.5493 25.3541C46.1216 24.9391 46.5409 24.6355 46.9601 24.332C46.9938 24.3661 47.0274 24.3971 47.0611 24.4311C46.9234 24.6572 46.7857 24.8833 46.4858 25.3727C47.1131 24.936 47.5018 24.6665 48.0037 24.3165C47.9119 24.6201 47.8629 24.7842 47.7803 25.063C48.1383 24.8059 48.426 24.5984 48.4994 24.5457C49.5063 24.7594 50.3387 24.9391 51.3822 25.1621C49.0656 25.5554 46.9632 26.1377 44.5119 25.5152Z" fill="#4D4D4D"/>
<path d="M23.2551 21.0396C24.317 20.4326 25.3759 19.8224 26.4378 19.2153C26.5021 19.3113 26.5664 19.4043 26.6276 19.5003C25.8411 20.5131 24.5466 20.7733 23.5397 21.4608C23.4449 21.3215 23.35 21.179 23.2551 21.0396Z" fill="#4D4D4D"/>
<path d="M29.3451 21.2843C30.0153 20.7516 30.6886 20.222 31.4781 19.5963C31.4016 20.4388 30.8355 20.9003 29.3451 21.2843Z" fill="#4D4D4D"/>
<path d="M29.9113 21.9626C30.6488 21.4423 31.3894 20.9188 32.1269 20.3985C32.2126 20.5224 32.2952 20.6494 32.3809 20.7733C31.6342 21.2657 30.8844 21.7582 30.1377 22.2507C30.0612 22.1546 29.9847 22.0586 29.9113 21.9626Z" fill="#4D4D4D"/>
<path d="M13.2388 17.0597C13.8968 16.5424 14.5547 16.0252 15.2096 15.5079C15.2923 15.6163 15.3749 15.7247 15.4545 15.8362C14.7659 16.3101 14.0773 16.784 13.3918 17.261C13.3398 17.1928 13.2878 17.1247 13.2388 17.0597Z" fill="#4D4D4D"/>
<path d="M35.432 21.7396C34.8689 22.1639 34.3089 22.5913 33.7458 23.0157C33.6785 22.9351 33.6142 22.8546 33.5469 22.7772C34.061 22.2971 34.5751 21.8139 35.0923 21.3339C35.2055 21.467 35.3188 21.6033 35.432 21.7396Z" fill="#4D4D4D"/>
<path d="M23.5887 5.57508C24.1946 5.19721 24.8036 4.82245 25.4096 4.44458C25.483 4.57776 25.5565 4.70785 25.6299 4.84103C25.0087 5.18173 24.3844 5.52242 23.7631 5.86312C23.705 5.76711 23.6468 5.67109 23.5887 5.57508Z" fill="#4D4D4D"/>
<path d="M34.7067 22.9073C35.1933 22.4427 35.683 21.975 36.1695 21.5104C36.2767 21.6281 36.3868 21.7427 36.4939 21.8604C35.9829 22.3033 35.4749 22.7462 34.9638 23.1892C34.8812 23.0962 34.7924 23.0002 34.7067 22.9073Z" fill="#4D4D4D"/>
<path d="M24.213 21.56C24.8893 21.2038 25.5656 20.8476 26.242 20.4915C26.3032 20.6215 26.3674 20.7485 26.4286 20.8786C25.7401 21.2069 25.0515 21.5352 24.3599 21.8604C24.3109 21.7582 24.262 21.6591 24.213 21.56Z" fill="#4D4D4D"/>
<path d="M15.8431 16.6539C15.2861 17.072 14.7292 17.4933 14.1691 17.9114C14.1202 17.8525 14.0712 17.7937 14.0192 17.7379C14.5211 17.2517 15.026 16.7685 15.5279 16.2822C15.635 16.4061 15.7391 16.53 15.8431 16.6539Z" fill="#4D4D4D"/>
</g>
<defs>
<clipPath id="clip0_193_1879">
<rect width="60" height="30" fill="white"/>
</clipPath>
</defs>
</svg>
