<svg width="171" height="66" viewBox="0 0 171 66" fill="none" xmlns="http://www.w3.org/2000/svg">
<g clip-path="url(#clip0_337_19)">
<path d="M138.736 8.95584C138.384 8.82365 138.042 8.6474 137.678 8.58131C134.01 7.88731 130.584 6.64254 127.852 3.99876C124.834 1.07958 121.21 0.870286 117.321 1.27787C114.523 1.57529 111.692 1.6524 108.872 1.76256C102.56 2.01592 97.4049 4.47243 93.5825 9.58374C93.1308 10.1896 92.5029 10.6743 91.9521 11.2141C91.864 11.1259 91.7759 11.0488 91.6878 10.9607C92.8554 9.066 94.0231 7.16028 95.2238 5.21049C95.0035 5.24354 94.7942 5.22151 94.629 5.2876C90.9167 7.0391 87.0171 6.85184 83.0845 6.43324C80.4737 6.15784 77.841 5.55198 75.2633 5.71721C70.163 6.03667 65.0847 6.71965 60.0175 7.40262C57.2195 7.77716 55.9857 9.36342 55.9307 12.1614C55.9197 12.8774 56.0188 13.6045 55.9747 14.3095C55.8205 16.5787 57.1094 17.9447 58.8278 19.0573C62.2868 21.3155 66.1202 22.0866 70.174 21.8002C74.2278 21.5138 78.2706 21.0401 82.3354 20.8528C84.3953 20.7537 85.6732 19.7182 86.7968 18.2311C87.3476 17.5041 87.8543 16.755 88.4602 16.083C88.8898 15.5983 89.4295 15.2128 89.9142 14.7942C90.1235 15.3009 90.1015 15.5983 89.9693 15.8076C88.2729 18.2091 86.3341 20.4012 84.3293 22.5603C82.743 24.2677 81.5974 26.3827 80.3746 28.1453C82.2693 31.1856 84.9682 32.5736 87.8653 33.7303C88.6364 34.0387 89.044 34.0387 89.6829 33.4218C91.4234 31.7474 93.6926 31.1195 95.9949 30.5908C95.6314 31.0094 95.2238 31.3288 94.7722 31.5822C93.5604 32.2431 92.3157 32.838 91.115 33.5099C90.3108 33.9616 90.1125 34.5675 90.0795 35.5919C90.0354 37.4646 91.3463 38.5001 92.0403 39.8991C92.3047 40.4278 92.536 40.9786 92.7783 41.5184C92.6351 41.5845 92.5029 41.6616 92.3597 41.7277C90.7404 40.6151 89.6939 39.0288 88.7686 37.3104C88.3941 36.6164 87.9314 35.9114 87.3476 35.3936C85.7062 33.9175 83.6353 33.7413 81.5533 33.8184C79.0637 33.9065 76.5742 33.9726 74.0956 34.226C72.6966 34.3692 71.3417 34.8759 69.9647 35.2284C75.8361 38.2908 76.3428 41.6726 75.9242 45.4841C75.726 44.8011 75.6048 44.4706 75.5387 44.1291C75.1311 41.97 74.338 40.0974 72.4763 38.6984C69.1716 36.1978 65.2941 35.6139 61.3945 35.4157C58.9159 35.2945 56.867 34.6666 54.8291 33.2345C52.3946 31.5051 49.7288 30.04 46.5563 30.051C46.2919 30.051 45.9724 29.8197 45.7742 29.5993C44.1879 27.8258 42.7999 25.832 41.0154 24.3008C38.8673 22.4501 36.4548 20.8859 34.0314 19.3988C32.0926 18.2091 27.6973 19.5199 27.3008 22.4722C26.9813 22.362 26.6508 22.2959 26.3864 22.1307C23.7757 20.5664 21.187 18.9802 18.5763 17.4049C17.0561 16.4906 15.6241 16.8872 14.2912 17.8345C13.0574 18.7158 12.3634 19.8504 12.5176 21.4697C12.6829 23.2653 13.509 24.6643 14.864 25.7328C17.8492 28.1012 20.6362 30.6128 22.7953 33.8184C23.7427 35.2174 25.2739 36.2529 26.6288 37.3434C28.5345 38.8856 30.4953 40.3838 32.4892 41.8158C34.2517 43.0936 36.0583 44.3274 37.9089 45.451C39.3189 46.3102 40.8832 46.9051 42.3152 47.7202C44.3311 48.8769 46.2258 50.2429 48.2857 51.3004C49.7949 52.0825 51.6015 52.3138 53.0776 53.129C56.6247 55.0898 60.5463 55.6516 64.4128 55.8719C69.1165 56.1363 73.2144 57.6564 77.1139 60.113C80.2534 62.0848 83.6132 63.1753 87.3255 61.7984C89.3304 61.0493 91.2912 60.1791 93.3071 59.4961C97.6913 58.02 102.12 56.665 106.504 55.211C109.379 54.2526 112.287 53.6137 115.35 53.6357C121.1 53.6798 126.641 52.6222 131.972 50.4081C133.537 49.7582 135.288 49.3616 136.973 49.2184C144.74 48.5685 152.462 49.0972 160.151 50.2649C162.288 50.5843 164.359 51.3444 166.452 51.8952C166.044 52.5672 165.725 53.0849 165.416 53.5916C164.337 55.3431 163.83 55.6185 161.759 55.233C159.313 54.7813 156.912 54.0873 154.455 53.7789C150.479 53.2722 146.458 53.0849 142.47 52.5782C139.265 52.1706 136.224 52.6994 133.118 53.3493C126.806 54.6602 120.538 56.2574 114.05 56.5108C112.585 56.5659 111.031 56.5328 109.665 56.9625C104.752 58.5157 99.9165 60.2782 95.0255 61.9085C93.6486 62.3712 92.1945 62.6025 90.8065 63.0321C89.4075 63.4728 88.0636 64.1007 86.6536 64.5193C83.7564 65.3785 80.9034 65.2463 78.1715 63.8363C77.9291 63.7151 77.5215 63.3626 77.5546 63.2965C78.2486 61.8865 76.8165 62.0627 76.2878 61.6662C74.8557 60.5866 73.3466 59.6062 71.8484 58.6038C71.4959 58.3725 71.0993 58.1522 70.6918 58.075C66.7481 57.348 62.7714 56.7532 58.8498 55.927C56.8119 55.4974 54.8291 54.7373 52.8352 54.0984C50.4008 53.3162 47.9883 52.479 45.5538 51.7079C44.4302 51.3554 43.2295 51.2012 42.1169 50.8157C39.4181 49.8683 36.7633 48.7778 34.0644 47.8524C31.4978 46.9712 28.909 46.1891 26.3093 45.4069C24.1282 44.757 21.9691 43.9529 19.744 43.5893C16.3511 43.0496 13.5531 41.5735 11.1076 39.2161C10.0501 38.2026 8.88243 37.2553 7.61562 36.5613C5.77599 35.5589 3.79316 34.8539 1.89845 33.9395C1.29258 33.6531 0.378276 33.1905 0.312181 32.7058C0.0478035 30.8331 -0.271653 28.7511 1.4468 27.3631C2.44924 26.559 3.70503 25.9531 4.94981 25.5786C9.0697 24.3448 14.2361 26.0523 16.7256 29.5112C15.9215 29.1257 15.3707 28.8723 14.8419 28.5969C12.2312 27.231 9.52134 26.1955 6.53608 26.1955C3.36354 26.2065 1.97556 28.0682 1.47985 30.9983C1.33665 31.8796 1.73321 32.3863 2.59244 32.7278C6.01834 34.0607 9.24595 35.68 12.077 38.1365C13.7404 39.5796 15.6791 40.8354 17.706 41.6616C20.6913 42.8733 23.8859 43.5893 26.9593 44.6028C31.0792 45.9577 35.166 47.4008 39.2749 48.7888C40.046 49.0532 40.8611 49.2074 41.6432 49.4167C39.7706 47.9295 37.7877 46.7288 35.849 45.429C33.756 44.03 31.696 42.5869 29.6691 41.0998C27.9947 39.877 26.4636 38.434 24.7231 37.3104C23.0707 36.2418 21.4514 35.2504 20.4379 33.4549C19.6007 31.9787 18.6314 30.5357 17.4967 29.2689C16.1088 27.7267 14.4454 26.4378 12.9913 24.9617C11.9228 23.8381 10.8432 22.4722 11.1737 20.7537C11.6914 18.0108 14.148 16.2483 16.9349 16.4906C20.6913 16.8101 23.9409 18.3853 26.8491 20.7317C27.2236 20.1038 27.5431 19.3547 28.0388 18.7378C29.5149 16.8982 32.1146 17.1846 34.2737 18.2091C38.7461 20.3571 42.3703 23.6729 45.653 27.3301C46.6444 28.4317 47.757 28.674 49.0128 28.674C54.2122 28.685 59.4116 28.652 64.6221 28.6189C64.8975 28.6189 65.2059 28.63 65.4483 28.5418C69.5571 26.9776 73.7872 27.0988 78.0503 27.5504C78.4468 27.5945 79.0637 27.6496 79.2179 27.4292C80.3195 25.9201 81.322 24.3448 82.4676 22.6264C81.4982 22.7255 80.7491 22.8247 79.9891 22.8687C74.9328 23.1111 69.8546 23.6729 64.8094 23.4966C60.0395 23.3314 54.058 20.5224 54.1792 13.296C54.2232 10.9056 55.0714 8.93381 56.7899 7.33653C58.3541 5.87143 60.4361 5.72823 62.4079 5.52995C69.9978 4.80291 77.6096 4.7258 85.1995 5.38674C90.1566 5.81635 94.6841 4.4504 99.1344 2.76499C102.076 1.6524 104.885 0.0220735 108.101 0.0110578C112.739 4.20576e-05 117.376 0.198325 122.014 0.451688C123.402 0.528798 124.889 0.85927 126.101 1.49818C128.613 2.8421 130.981 4.46142 133.404 5.98159C134.242 6.49933 135.024 7.32551 135.927 7.51278C140.08 8.36099 144.255 9.28631 148.463 9.70491C153.982 10.2447 159.545 10.2998 165.086 10.6192C166.562 10.7073 168.038 10.9938 169.503 11.192C169.305 11.5005 169.128 11.5776 168.952 11.6106C168.335 11.6988 167.718 11.8089 167.102 11.853C159.225 12.4699 151.426 11.9852 143.737 10.0574C142.074 9.63882 140.388 9.30835 138.714 8.93381L138.736 8.95584ZM59.3786 33.2125C62.1876 33.3116 64.9856 34.3141 67.7616 34.986C68.6208 35.1953 69.2377 35.3275 70.0859 34.6556C71.54 33.5099 73.1813 32.6727 75.2082 32.7829C77.7308 32.9151 80.2534 32.8159 82.776 32.8159C82.8421 32.6838 82.9082 32.5516 82.9853 32.4194C82.027 31.7254 81.0355 31.0865 80.1323 30.3264C77.5656 28.1783 74.6244 27.9029 71.4849 28.4427C70.1189 28.685 68.753 28.9054 67.376 29.1367C65.6466 29.4231 64.3687 30.2713 63.7739 32.0008C63.6968 32.2211 63.5536 32.4194 63.4104 32.6066C63.3663 32.6617 63.2451 32.6617 62.6393 32.838C63.0909 31.5712 63.4434 30.6018 63.829 29.5222C59.643 29.5222 55.3358 29.5222 51.0176 29.5222C50.9736 29.6654 50.9295 29.8086 50.8744 29.9408C53.8267 30.734 56.0078 33.0913 59.3786 33.2125Z" fill="#333333"/>
<path d="M26.4746 23.3975C27.7304 24.5652 28.843 25.9422 30.264 26.8565C32.3239 28.1784 33.6018 29.8528 34.494 32.144C35.5846 34.931 37.3141 37.2884 39.9909 39.0399C42.9982 41.0117 45.675 43.5013 48.484 45.7705C50.7643 47.6101 53.2318 49.0532 56.1069 49.8133C57.5169 50.1878 58.8058 51.025 60.2158 51.4326C63.19 52.2918 66.2084 52.9638 69.1936 53.779C71.1214 54.3077 73.0491 54.8475 74.8998 55.5745C75.6929 55.883 76.2988 56.6761 76.9928 57.2489C78.7333 58.681 80.7822 59.4411 82.9743 59.2318C86.962 58.8572 90.9277 58.2734 94.8933 57.7116C95.9178 57.5684 96.9092 57.1828 98.165 56.8413C95.0696 55.5305 92.1174 55.7618 89.4626 56.9074C86.6315 58.1302 84.2301 57.5794 81.6304 56.5219C77.4995 54.8255 73.3245 53.2172 69.1165 51.719C65.5694 50.4522 61.9673 49.3616 58.3651 48.2491C57.2415 47.9076 55.9527 47.9737 54.9062 47.489C53.5403 46.8611 52.1853 46.0349 51.1058 44.9994C48.0654 42.0802 44.8048 39.5356 41.0594 37.5638C38.636 36.286 36.8184 34.204 35.5515 31.7475C34.0865 28.9054 32.0155 26.6362 29.3717 24.8626C28.5015 24.2788 27.7083 23.5958 26.8711 22.9569C26.7389 23.0891 26.6068 23.2433 26.4746 23.3975Z" fill="#333333"/>
<path d="M125.77 14.4528C120.428 15.4772 115.008 16.2263 110.426 19.6522C110.448 19.498 110.47 19.2997 110.459 19.3768C109.324 20.4013 108.046 21.591 106.735 22.7256C104.058 25.0499 100.699 25.8761 97.46 26.9887C96.3805 27.3522 95.334 27.8259 94.2434 28.1453C91.4124 28.9605 88.5593 29.7096 85.7613 30.4807C89.9693 30.4586 94.2324 30.9103 98.4074 28.9164C103.783 26.3498 108.421 22.7146 113.323 19.4539C116.253 17.5041 119.348 15.8077 122.984 15.4332C123.964 15.334 124.911 15.0586 125.881 14.8603C125.848 14.7171 125.815 14.5849 125.77 14.4528Z" fill="#333333"/>
<path d="M145.136 29.0596C152.979 31.0424 160.58 32.9591 168.523 34.964C164.524 31.6813 147.78 27.3742 145.136 29.0596Z" fill="#333333"/>
<path d="M143.054 20.28C144.288 20.4893 145.511 20.8418 146.744 20.8638C148.937 20.9189 151.129 20.7537 153.321 20.7206C156.075 20.6876 158.818 20.7096 161.979 20.7096C155.535 18.7158 149.311 19.5419 143.153 19.4758C143.12 19.7512 143.087 20.0156 143.054 20.28Z" fill="#333333"/>
<path d="M141.06 19.9936C141.336 21.3816 141.424 22.8356 141.909 24.1355C143.506 28.4537 145.059 32.7498 144.376 37.5086C144.508 37.5306 144.64 37.5527 144.773 37.5747C144.949 37.101 145.202 36.6494 145.279 36.1647C145.819 32.8049 145.533 29.5112 144.211 26.3497C143.308 24.2016 142.382 22.0645 141.479 19.9275C141.347 19.9495 141.204 19.9716 141.06 19.9936Z" fill="#333333"/>
<path d="M110.954 18.4514C113.466 16.3143 115.944 14.0781 118.566 12.0292C121.199 9.96927 124.063 8.29487 127.544 7.89831C127.5 7.70002 127.467 7.51276 127.423 7.31447C126.487 7.35854 125.44 7.13822 124.647 7.49073C119.205 9.90317 114.733 13.6155 110.965 18.198C110.91 18.2641 110.954 18.3853 110.954 18.4514Z" fill="#333333"/>
<path d="M77.1911 8.4491C74.8117 9.6388 73.9965 18.6387 75.9353 20.2139C75.9353 18.2751 75.77 16.2372 75.9793 14.2434C76.1776 12.3156 76.7614 10.4209 77.1911 8.4491Z" fill="#333333"/>
<path d="M138.736 8.95584C138.549 9.15412 138.163 9.45154 138.207 9.55069C139.033 11.3132 139.915 13.0427 140.895 14.7391C140.917 12.5249 140.08 10.6302 138.703 8.92279C138.692 8.91177 138.736 8.95584 138.736 8.95584Z" fill="#333333"/>
<path d="M63.84 29.5223C63.4544 30.6018 63.1019 31.5712 62.6503 32.838C63.2561 32.6618 63.3773 32.6618 63.4214 32.6067C63.5646 32.4194 63.7078 32.2211 63.7849 32.0008C64.3797 30.2713 65.6576 29.4341 67.387 29.1367C68.753 28.9054 70.1189 28.6851 71.4959 28.4427C74.6354 27.8919 77.5766 28.1784 80.1433 30.3264C81.0466 31.0865 82.049 31.7254 82.9963 32.4194C82.9303 32.5516 82.8642 32.6838 82.7871 32.816C80.2645 32.816 77.7308 32.9151 75.2192 32.7829C73.1923 32.6728 71.54 33.51 70.0969 34.6556C69.2487 35.3276 68.6318 35.1954 67.7726 34.9861C64.9856 34.3141 62.1986 33.3117 59.3896 33.2125C56.0188 33.0914 53.8487 30.734 50.9075 29.9519C50.9516 29.8087 50.9956 29.6655 51.0507 29.5333C55.3468 29.5223 59.654 29.5223 63.84 29.5223Z" fill="#E3BB94"/>
<path d="M160.195 50.2869C162.332 50.6064 164.403 51.3664 166.496 51.9172L168.71 34.975C161.054 33.0362 152.726 30.9873 145.136 29.0706C147.637 27.4733 163.742 31.45 168.732 34.6445L170.241 13.979C170.285 13.0647 169.382 11.9962 169.47 11.181C169.272 11.4895 169.095 11.5666 168.919 11.5996C168.302 11.6877 167.685 11.7979 167.069 11.842C159.192 12.4588 151.393 11.9741 143.704 10.0464C142.041 9.62779 140.355 9.29732 138.681 8.92278L138.725 8.95583C138.725 8.95583 138.714 8.95583 138.714 8.96685C140.08 10.6523 140.906 12.5359 140.873 14.7391C139.893 13.0427 139.011 11.3132 138.185 9.55068C138.141 9.46255 138.516 9.16513 138.714 8.96685L138.703 8.95583C138.361 8.82364 138.02 8.65841 137.656 8.5813C133.988 7.89832 130.562 6.64252 127.83 3.99875C124.812 1.07957 121.188 0.870275 117.299 1.27786C114.501 1.57528 111.67 1.65239 108.85 1.76255C102.538 2.01591 97.3829 4.47242 93.5604 9.58373C93.1088 10.1896 92.4809 10.6743 91.9301 11.2141C91.842 11.1369 91.7539 11.0488 91.6657 10.9607C92.8334 9.06599 94.0011 7.16026 95.2018 5.21048C94.9815 5.24353 94.7722 5.22149 94.6069 5.28759C90.8946 7.03909 86.9951 6.85182 83.0624 6.43323C80.4517 6.15783 77.819 5.55197 75.2413 5.7172C70.141 6.03666 65.0627 6.71963 59.9955 7.40261C57.1975 7.77715 55.9637 9.36341 55.9086 12.1614C55.8976 12.8774 55.9968 13.6045 55.9527 14.3095C55.7985 16.5787 57.0873 17.9447 58.8058 19.0573C62.2647 21.3155 66.0982 22.0866 70.152 21.8002C74.2058 21.5138 78.2486 21.0401 82.3134 20.8528C84.3733 20.7537 85.6511 19.7182 86.7747 18.2311C87.3255 17.504 87.8323 16.755 88.4381 16.083C88.8677 15.5983 89.4075 15.2128 89.8922 14.7942C90.1015 15.3009 90.0795 15.5983 89.9473 15.8076C88.2509 18.2091 86.3121 20.4012 84.3072 22.5493C82.721 24.2567 81.5753 26.3717 80.3526 28.1342C82.2473 31.1746 84.9461 32.5626 87.8433 33.7192C88.6144 34.0277 89.022 34.0277 89.6609 33.4108C91.4014 31.7364 93.6706 31.1085 95.9729 30.5797C95.6094 30.9983 95.2018 31.3178 94.7502 31.5712C93.5384 32.2321 92.2936 32.827 91.0929 33.4989C90.2888 33.9506 90.0905 34.5564 90.0574 35.5809C90.0134 37.4536 91.3242 38.489 92.0182 39.888C92.2826 40.4168 92.5139 40.9676 92.7563 41.5074C92.6131 41.5735 92.4809 41.6506 92.3377 41.7167C90.7184 40.6041 89.6719 39.0178 88.7466 37.2993C88.372 36.6054 87.9094 35.9003 87.3255 35.3826C85.6842 33.9065 83.6132 33.7302 81.5313 33.8074C79.0417 33.8955 76.5521 33.9616 74.0736 34.2149C72.6746 34.3581 71.3197 34.8649 69.9427 35.2174C75.8141 38.2797 76.3208 41.6616 75.9022 45.473C75.7039 44.79 75.5828 44.4596 75.5167 44.1181C75.1091 41.959 74.3159 40.0863 72.4543 38.6873C69.1496 36.1867 65.272 35.6029 61.3724 35.4046C58.8939 35.2835 56.845 34.6556 54.8071 33.2235C52.3726 31.5051 49.7068 30.029 46.5342 30.04C46.2699 30.04 45.9504 29.8086 45.7521 29.5883C44.1659 27.8148 42.7779 25.8209 40.9933 24.2897C38.8453 22.4391 36.4328 20.8749 34.0093 19.3877C32.0706 18.198 27.6753 19.5089 27.2787 22.4611C26.9593 22.351 26.6288 22.2849 26.3644 22.1196C23.7537 20.5554 21.165 18.9691 18.5543 17.3939C17.0341 16.4796 15.602 16.8762 14.2691 17.8235C13.0354 18.7048 12.3414 19.8394 12.4956 21.4587C12.6608 23.2543 13.487 24.6533 14.8419 25.7218C17.8272 28.0902 20.6142 30.6018 22.7733 33.8074C23.7206 35.2064 25.2518 36.2418 26.6068 37.3324C28.5125 38.8746 30.4733 40.3727 32.4671 41.8048C34.2297 43.0826 36.0362 44.3164 37.8869 45.44C39.2969 46.2992 40.8611 46.8941 42.2932 47.7092C44.3091 48.8659 46.2038 50.2318 48.2637 51.2893C49.7729 52.0715 51.5794 52.3028 53.0556 53.118C56.6026 55.0788 60.5242 55.6406 64.3908 55.8609C69.0945 56.1252 73.1923 57.6454 77.0919 60.1019C80.2314 62.0738 83.5912 63.1643 87.3035 61.7873C89.3084 61.0383 91.2692 60.168 93.2851 59.4851C97.6693 58.0089 102.098 56.654 106.482 55.1999C109.357 54.2416 112.265 53.6026 115.328 53.6247C121.078 53.6687 126.619 52.6112 131.95 50.3971C133.515 49.7471 135.266 49.3506 136.951 49.2074C144.784 48.5905 152.517 49.1192 160.195 50.2869ZM77.1911 8.44911C76.7614 10.4099 76.1776 12.3046 75.9793 14.2434C75.77 16.2372 75.9353 18.2752 75.9353 20.2139C73.9965 18.6497 74.8117 9.63881 77.1911 8.44911ZM98.165 56.8192C96.8982 57.1607 95.9178 57.5463 94.8933 57.6895C90.9277 58.2513 86.962 58.8351 82.9743 59.2097C80.7822 59.419 78.7333 58.6589 76.9928 57.2268C76.2988 56.654 75.6929 55.8609 74.8998 55.5524C73.0491 54.8254 71.1104 54.2856 69.1936 53.7569C66.2084 52.9417 63.19 52.2697 60.2158 51.4105C58.8058 51.0029 57.528 50.1657 56.1069 49.7912C53.2318 49.0311 50.7643 47.5991 48.484 45.7484C45.675 43.4792 42.9982 40.9896 39.9909 39.0178C37.3141 37.2663 35.5846 34.9089 34.494 32.1219C33.6018 29.8307 32.3239 28.1563 30.264 26.8344C28.843 25.9201 27.7304 24.5431 26.4746 23.3754C26.6068 23.2212 26.7389 23.067 26.8711 22.9128C27.6973 23.5517 28.5015 24.2347 29.3717 24.8185C32.0155 26.592 34.0865 28.8503 35.5515 31.7033C36.8184 34.1599 38.6249 36.2418 41.0594 37.5197C44.8048 39.5025 48.0654 42.0361 51.1058 44.9553C52.1853 45.9908 53.5403 46.8169 54.9062 47.4448C55.9527 47.9295 57.2415 47.8634 58.3651 48.2049C61.9673 49.3065 65.5694 50.4081 69.1165 51.6749C73.3245 53.173 77.4995 54.7813 81.6304 56.4778C84.2301 57.5463 86.6426 58.086 89.4626 56.8633C92.1064 55.7397 95.0696 55.5194 98.165 56.8192ZM110.459 19.3657C110.47 19.3437 110.47 19.3547 110.459 19.3657C110.448 19.4098 110.437 19.5309 110.426 19.6411C115.008 16.2152 120.428 15.4661 125.77 14.4417C125.815 14.5739 125.848 14.706 125.892 14.8382C124.922 15.0365 123.964 15.3119 122.995 15.4111C119.37 15.7856 116.264 17.482 113.334 19.4318C108.432 22.6925 103.794 26.3277 98.4184 28.8943C94.2434 30.8882 89.9913 30.4475 85.7723 30.4586C88.5703 29.6875 91.4234 28.9384 94.2544 28.1232C95.345 27.8038 96.3915 27.3301 97.471 26.9666C100.71 25.865 104.069 25.0278 106.746 22.7035C108.057 21.5799 109.324 20.4012 110.459 19.3657ZM127.533 7.89832C124.052 8.28387 121.188 9.96928 118.555 12.0292C115.933 14.0782 113.466 16.3143 110.943 18.4514C110.943 18.3853 110.899 18.2641 110.954 18.2091C114.722 13.6155 119.194 9.9142 124.636 7.49074C125.429 7.13823 126.475 7.35855 127.412 7.31448C127.456 7.51277 127.5 7.70004 127.533 7.89832ZM143.054 20.28C143.087 20.0156 143.12 19.7513 143.153 19.4869C149.322 19.553 155.546 18.7268 161.979 20.7206C158.829 20.7206 156.075 20.6986 153.321 20.7317C151.129 20.7537 148.926 20.9299 146.744 20.8749C145.511 20.8418 144.288 20.4893 143.054 20.28ZM145.29 36.1647C145.213 36.6494 144.949 37.1121 144.784 37.5747C144.651 37.5527 144.519 37.5307 144.387 37.5086C145.07 32.7498 143.517 28.4537 141.92 24.1355C141.435 22.8247 141.347 21.3816 141.071 19.9936C141.215 19.9716 141.347 19.9495 141.49 19.9275C142.404 22.0646 143.33 24.2016 144.222 26.3497C145.544 29.5112 145.83 32.8049 145.29 36.1647Z" fill="#E3BB94"/>
<path d="M18.7305 30.723L18.7195 30.712C18.6864 30.6679 18.6534 30.6239 18.6314 30.5908C18.6644 30.6349 18.6975 30.6789 18.7305 30.723Z" fill="#E3BB94"/>
<path d="M24.8002 37.3434C26.5407 38.467 28.0719 39.899 29.7463 41.1328C31.7731 42.6199 33.8331 44.063 35.9261 45.462C37.8538 46.7508 39.8477 47.9625 41.7204 49.4497C40.9272 49.2404 40.1231 49.0751 39.352 48.8218C35.2431 47.4338 31.1563 45.9907 27.0364 44.6358C23.963 43.6223 20.7684 42.9173 17.7831 41.6946C15.7563 40.8684 13.8065 39.6126 12.1541 38.1695C9.32306 35.713 6.08443 34.0937 2.66955 32.7608C1.81032 32.4193 1.41375 31.9126 1.55696 31.0313C2.04165 28.1122 3.44065 26.2395 6.61319 26.2285C9.58744 26.2175 12.3083 27.264 14.9191 28.6299C15.4478 28.9053 17.9264 30.3043 18.7415 30.7009C19.4025 31.5821 19.9973 32.5185 20.5371 33.4768C21.5395 35.2834 23.1478 36.2748 24.8002 37.3434Z" fill="#E3BB94"/>
</g>
<defs>
<clipPath id="clip0_337_19">
<rect width="170.094" height="65.07" fill="white" transform="translate(0.157959)"/>
</clipPath>
</defs>
</svg>
