<svg width="284" height="201" viewBox="0 0 284 201" fill="none" xmlns="http://www.w3.org/2000/svg">
<g clip-path="url(#clip0_422_2)">
<path d="M110.184 46.742C110.184 46.742 99.0953 115.04 141.454 115.04C183.814 115.04 173.912 44.0835 173.912 44.0835L111.491 46.742" fill="#814C4A"/>
<path d="M110.184 46.742C110.184 46.742 99.0953 115.04 141.454 115.04C183.814 115.04 173.912 44.0835 173.912 44.0835L111.491 46.742" stroke="#1A1A1A" stroke-miterlimit="10"/>
<g opacity="0.2">
<path d="M114.267 56.3613C114.267 56.3613 114.259 57.1019 114.252 58.4052C114.237 59.7011 114.281 61.5524 114.356 63.774C114.437 65.9881 114.578 68.5725 114.831 71.3199C114.942 72.6973 115.128 74.1116 115.298 75.5483C115.491 76.9849 115.706 78.4363 115.981 79.8803C116.226 81.3243 116.545 82.761 116.887 84.1605C117.05 84.864 117.258 85.5453 117.428 86.234C117.621 86.9153 117.829 87.5818 118.03 88.2334C118.252 88.8851 118.475 89.5219 118.69 90.144C118.928 90.7586 119.15 91.3658 119.395 91.9434C119.648 92.521 119.9 93.0764 120.138 93.617C120.397 94.1502 120.657 94.6612 120.895 95.1499C121.437 96.1052 121.919 96.9938 122.416 97.7417C122.876 98.5193 123.381 99.1117 123.752 99.6449C124.561 100.652 125.044 101.222 125.044 101.222C125.044 101.222 124.903 101.096 124.643 100.867C124.391 100.63 123.99 100.304 123.537 99.83C123.107 99.3412 122.52 98.7859 121.971 98.0601C121.689 97.6973 121.362 97.3344 121.073 96.9123C120.783 96.4902 120.479 96.0385 120.16 95.572C119.87 95.0906 119.566 94.5871 119.254 94.0613C118.957 93.5281 118.683 92.9654 118.386 92.3877C118.104 91.8027 117.844 91.1955 117.555 90.5809C117.287 89.9588 117.05 89.3072 116.798 88.6481C116.337 87.3152 115.862 85.9378 115.506 84.5012C115.135 83.072 114.801 81.6057 114.534 80.1321C114.267 78.6585 114.066 77.17 113.888 75.7112C113.717 74.2523 113.613 72.8009 113.539 71.4087C113.45 70.0092 113.435 68.654 113.428 67.3729C113.42 66.0918 113.458 64.8773 113.509 63.7666C113.606 61.5302 113.814 59.6789 113.955 58.383C114.126 57.0944 114.267 56.3613 114.267 56.3613Z" fill="#B76A6A" stroke="#1A1A1A" stroke-miterlimit="10"/>
<path d="M119.492 56.3613C119.492 56.3613 119.536 57.05 119.618 58.2571C119.663 58.8569 119.715 59.59 119.774 60.4268C119.841 61.2636 119.915 62.2115 119.997 63.2408C120.093 64.2701 120.197 65.3809 120.308 66.5583C120.427 67.7358 120.561 68.9724 120.717 70.2535C120.85 71.5346 121.058 72.8528 121.229 74.1857C121.385 75.526 121.652 76.8738 121.867 78.229C122.097 79.5841 122.372 80.9245 122.617 82.25C122.943 83.5607 123.188 84.864 123.507 86.1081C123.864 87.3374 124.138 88.5518 124.487 89.6774C124.851 90.7956 125.192 91.8546 125.511 92.8321C125.882 93.7873 126.224 94.6685 126.528 95.4535C126.602 95.6534 126.677 95.8386 126.743 96.0237C126.825 96.2014 126.907 96.3718 126.988 96.5347C127.144 96.8605 127.285 97.1641 127.411 97.4381C127.916 98.5415 128.206 99.1709 128.206 99.1709C128.206 99.1709 127.827 98.5933 127.159 97.5788C126.996 97.3196 126.81 97.0382 126.617 96.7272C126.521 96.5717 126.417 96.4088 126.313 96.2459C126.224 96.0681 126.127 95.8904 126.031 95.6979C125.645 94.9425 125.207 94.0909 124.747 93.1505C124.331 92.1952 123.916 91.1437 123.47 90.0255C123.047 88.9073 122.683 87.6928 122.283 86.4488C121.919 85.1973 121.585 83.8865 121.258 82.5536C120.991 81.2133 120.687 79.8507 120.449 78.4807C120.256 77.1034 119.997 75.7334 119.856 74.3782C119.685 73.0231 119.551 71.6827 119.462 70.3794C119.343 69.0835 119.299 67.8246 119.247 66.6324C119.18 65.4401 119.195 64.3145 119.18 63.2778C119.165 59.1161 119.492 56.3613 119.492 56.3613Z" fill="#B76A6A" stroke="#1A1A1A" stroke-miterlimit="10"/>
<path d="M127.478 58.2349C127.478 58.2349 127.627 60.8045 127.849 64.6552C127.961 66.5731 128.094 68.8169 128.228 71.2162C128.31 72.4159 128.391 73.6525 128.473 74.9114C128.562 76.1703 128.658 77.444 128.777 78.7177C128.874 79.9914 128.992 81.2651 129.133 82.5166C129.274 83.7681 129.401 84.9973 129.564 86.1822C129.727 87.367 129.891 88.5074 130.076 89.596C130.269 90.6697 130.462 91.6917 130.662 92.6247C130.878 93.5504 131.093 94.402 131.308 95.1499C131.546 95.8904 131.731 96.5421 131.946 97.0605C132.139 97.5862 132.318 97.9935 132.444 98.2601C132.57 98.5341 132.637 98.6822 132.637 98.6822C132.637 98.6822 132.548 98.5489 132.377 98.2971C132.206 98.0454 131.946 97.6825 131.687 97.1789C131.397 96.6902 131.108 96.0608 130.789 95.335C130.64 94.9648 130.484 94.5723 130.314 94.165C130.165 93.7429 130.017 93.2986 129.861 92.8395C129.72 92.3729 129.571 91.8842 129.423 91.3806C129.289 90.8697 129.156 90.3439 129.022 89.8033C128.77 88.7148 128.51 87.567 128.31 86.3747C128.109 85.1751 127.894 83.9384 127.753 82.6721C127.597 81.4058 127.456 80.1247 127.345 78.8362C127.241 77.5477 127.159 76.2592 127.092 74.9929C127.018 73.7266 126.996 72.4751 126.966 71.2681C126.922 68.8465 126.959 66.5954 127.033 64.6626C127.152 60.7971 127.478 58.2349 127.478 58.2349Z" fill="#B76A6A" stroke="#1A1A1A" stroke-miterlimit="10"/>
<path d="M168.65 56.3613C168.65 56.3613 168.657 57.1019 168.665 58.4052C168.687 59.7011 168.635 61.5524 168.561 63.774C168.479 65.9881 168.338 68.5725 168.086 71.3199C167.974 72.6973 167.789 74.1116 167.618 75.5483C167.425 76.9849 167.21 78.4363 166.935 79.8803C166.69 81.3243 166.371 82.761 166.03 84.1605C165.866 84.864 165.659 85.5453 165.488 86.234C165.295 86.9153 165.087 87.5818 164.887 88.2334C164.664 88.8851 164.441 89.5219 164.226 90.144C163.989 90.7586 163.766 91.3658 163.521 91.9434C163.269 92.521 163.016 93.0764 162.779 93.617C162.519 94.1502 162.267 94.6612 162.022 95.1499C161.48 96.1052 160.997 96.9938 160.5 97.7417C160.04 98.5193 159.535 99.1117 159.164 99.6449C158.355 100.652 157.873 101.222 157.873 101.222C157.873 101.222 158.014 101.096 158.273 100.867C158.526 100.63 158.927 100.304 159.379 99.83C159.81 99.3412 160.396 98.7859 160.945 98.0601C161.228 97.6973 161.554 97.3344 161.844 96.9123C162.133 96.4902 162.437 96.0385 162.757 95.572C163.046 95.0906 163.35 94.5871 163.662 94.0613C163.959 93.5281 164.234 92.9654 164.53 92.3877C164.812 91.8027 165.072 91.1955 165.362 90.5809C165.629 89.9588 165.866 89.3072 166.119 88.6481C166.579 87.3152 167.054 85.9378 167.41 84.5012C167.781 83.072 168.115 81.6057 168.383 80.1321C168.65 78.6585 168.85 77.17 169.028 75.7112C169.199 74.2523 169.303 72.8009 169.385 71.4087C169.474 70.0092 169.489 68.654 169.496 67.3729C169.503 66.0918 169.466 64.8773 169.414 63.7666C169.318 61.5302 169.11 59.6789 168.969 58.383C168.791 57.0944 168.65 56.3613 168.65 56.3613Z" fill="#B76A6A" stroke="#1A1A1A" stroke-miterlimit="10"/>
<path d="M163.425 56.3613C163.425 56.3613 163.38 57.05 163.298 58.2571C163.254 58.8569 163.202 59.59 163.142 60.4268C163.076 61.2636 163.001 62.2115 162.92 63.2408C162.823 64.2701 162.719 65.3809 162.608 66.5583C162.489 67.7358 162.356 68.9724 162.2 70.2535C162.066 71.5346 161.858 72.8528 161.688 74.1857C161.532 75.526 161.265 76.8738 161.049 78.229C160.819 79.5841 160.545 80.9245 160.3 82.25C159.973 83.5607 159.728 84.864 159.409 86.1081C159.053 87.3374 158.778 88.5518 158.429 89.6774C158.066 90.7956 157.724 91.8546 157.405 92.8321C157.034 93.7873 156.692 94.6685 156.388 95.4535C156.314 95.6534 156.24 95.8386 156.173 96.0237C156.091 96.2014 156.01 96.3718 155.928 96.5347C155.772 96.8605 155.631 97.1641 155.505 97.4381C155 98.5415 154.711 99.1709 154.711 99.1709C154.711 99.1709 155.089 98.5933 155.757 97.5788C155.921 97.3196 156.106 97.0382 156.299 96.7272C156.396 96.5717 156.5 96.4088 156.603 96.2459C156.692 96.0681 156.789 95.8904 156.885 95.6979C157.271 94.9425 157.709 94.0909 158.17 93.1505C158.585 92.1952 159.001 91.1437 159.446 90.0255C159.869 88.9073 160.233 87.6928 160.634 86.4488C160.997 85.1973 161.324 83.8865 161.658 82.5536C161.925 81.2133 162.23 79.8507 162.467 78.4807C162.66 77.1034 162.92 75.7334 163.061 74.3782C163.232 73.0231 163.365 71.6827 163.454 70.3794C163.573 69.0835 163.617 67.8246 163.669 66.6324C163.736 65.4401 163.721 64.3145 163.736 63.2778C163.751 59.1161 163.425 56.3613 163.425 56.3613Z" fill="#B76A6A" stroke="#1A1A1A" stroke-miterlimit="10"/>
<path d="M155.438 58.2349C155.438 58.2349 155.29 60.8045 155.067 64.6552C154.956 66.5731 154.822 68.8169 154.688 71.2162C154.607 72.4159 154.525 73.6525 154.444 74.9114C154.354 76.1703 154.258 77.444 154.139 78.7177C154.043 79.9914 153.924 81.2651 153.783 82.5166C153.642 83.7681 153.516 84.9973 153.352 86.1822C153.189 87.367 153.018 88.5074 152.84 89.596C152.647 90.6697 152.454 91.6917 152.254 92.6247C152.039 93.5504 151.823 94.402 151.608 95.1499C151.371 95.8904 151.185 96.5421 150.97 97.0605C150.777 97.5862 150.599 97.9935 150.473 98.2601C150.346 98.5341 150.28 98.6822 150.28 98.6822C150.28 98.6822 150.369 98.5489 150.539 98.2971C150.71 98.0454 150.97 97.6825 151.23 97.1789C151.519 96.6902 151.809 96.0608 152.128 95.335C152.276 94.9648 152.432 94.5723 152.603 94.165C152.744 93.7429 152.9 93.2986 153.056 92.8395C153.197 92.3729 153.345 91.8842 153.493 91.3806C153.62 90.8697 153.761 90.3439 153.894 89.8033C154.147 88.7148 154.399 87.567 154.607 86.3747C154.807 85.1751 155.022 83.9384 155.163 82.6721C155.319 81.4058 155.46 80.1247 155.572 78.8362C155.676 77.5477 155.757 76.2592 155.824 74.9929C155.898 73.7266 155.921 72.4751 155.943 71.2681C155.987 68.8465 155.958 66.5954 155.876 64.6626C155.765 60.7971 155.438 58.2349 155.438 58.2349Z" fill="#B76A6A" stroke="#1A1A1A" stroke-miterlimit="10"/>
</g>
<path d="M148.795 70.8015H141.462H134.121L127.849 96.2088L141.462 115.04L155.067 94.6537L148.795 70.8015Z" fill="#FFAE8A"/>
<path d="M148.795 70.8015H141.462H134.121L132.592 76.9923C136.934 81.3466 145.945 84.2272 151.504 81.1096L148.795 70.8015Z" fill="#F79B77"/>
<path d="M115.424 45.7792C115.424 45.7792 111.008 38.685 108.358 42.0617C105.701 45.4311 109.976 53.562 115.424 52.1773V45.7792Z" fill="#FFAE8A"/>
<path d="M167.492 45.7792C167.492 45.7792 171.908 38.685 174.551 42.0617C177.2 45.4311 172.932 53.562 167.492 52.1773V45.7792Z" fill="#FFAE8A"/>
<path d="M141.551 7.24243C111.505 7.24243 113.866 45.5349 114.452 54.8728C115.038 64.2108 120.783 67.4173 128.295 73.297C135.806 79.1694 141.551 78.5547 141.551 78.5547C141.551 78.5547 147.296 79.1768 154.807 73.297C162.319 67.4173 168.056 64.2108 168.642 54.8728C169.236 45.5349 171.596 7.24243 141.551 7.24243Z" fill="#FFAE8A"/>
<path opacity="0.5" d="M168.776 41.1658C168.962 46.1939 168.694 50.4593 168.546 52.8364C167.96 62.1744 162.215 65.3809 154.711 71.2606C147.199 77.1329 141.454 76.5183 141.454 76.5183C141.454 76.5183 135.71 77.1329 128.198 71.2606C120.687 65.3809 114.949 62.1744 114.356 52.8364C114.326 52.3625 114.289 51.8071 114.259 51.185C114.318 52.6661 114.4 53.9176 114.459 54.8654C115.046 64.2034 120.791 67.4099 128.302 73.2896C135.813 79.162 141.558 78.5473 141.558 78.5473C141.558 78.5473 147.303 79.1694 154.815 73.2896C162.326 67.4099 168.063 64.2034 168.65 54.8654C168.813 52.1773 169.132 47.0677 168.776 41.1658Z" fill="#FFBCA1"/>
<path d="M179.509 90.7067L152.38 84.4419C152.38 92.9209 142.82 92.8913 142.048 92.7432V92.7357C142.048 92.7357 142.041 92.7357 142.019 92.7432C142.004 92.7432 141.989 92.7357 141.989 92.7357V92.7432C141.217 92.8987 130.751 92.9209 130.751 84.4419L104.528 90.7067L110.125 116.529C110.125 116.529 102.918 132.272 115.476 143.402L117.777 181.791H141.996H142.048H167.061L168.568 143.402C181.119 132.272 173.92 116.529 173.92 116.529L179.509 90.7067Z" fill="#FAC849" stroke="#1A1A1A" stroke-miterlimit="10"/>
<path d="M141.981 95.3572V95.3424C141.981 95.3424 141.996 95.3424 142.019 95.3498C142.041 95.3424 142.056 95.3424 142.056 95.3424V95.3572C143.021 95.5497 154.948 95.5794 155.097 85.0713L152.38 84.4419C152.38 92.9209 142.82 92.8913 142.048 92.7432V92.7357C142.048 92.7357 142.041 92.7357 142.019 92.7432C142.004 92.7432 141.989 92.7357 141.989 92.7357V92.7432C141.217 92.8987 130.751 92.9209 130.751 84.4419L127.805 85.1454C128.027 95.5794 141.017 95.5497 141.981 95.3572Z" fill="#F9B212" stroke="#1A1A1A" stroke-miterlimit="10"/>
<path d="M149.129 41.847C149.129 41.847 148.944 39.6847 149.686 39.2478C150.428 38.8109 157.034 38.5961 159.454 39.2478C161.873 39.8995 162.898 42.8986 162.898 42.8986C162.898 42.8986 162.022 41.6471 158.296 41.262C155.564 40.988 150.057 42.2839 149.129 41.847Z" fill="#AA6868"/>
<path d="M133.973 41.847C133.973 41.847 134.158 39.6847 133.416 39.2478C132.674 38.8109 126.068 38.5961 123.648 39.2478C121.229 39.8995 120.204 42.8986 120.204 42.8986C120.204 42.8986 121.08 41.6471 124.806 41.262C127.538 40.988 133.045 42.2839 133.973 41.847Z" fill="#AA6868"/>
<path d="M157.806 49.2005C157.806 50.7927 156.93 52.0886 155.846 52.0886C154.763 52.0886 153.887 50.7927 153.887 49.2005C153.887 47.6084 154.763 46.3125 155.846 46.3125C156.93 46.3125 157.806 47.6084 157.806 49.2005Z" fill="#111B24"/>
<path d="M129.631 49.2005C129.631 50.7927 128.755 52.0886 127.671 52.0886C126.588 52.0886 125.712 50.7927 125.712 49.2005C125.712 47.6084 126.588 46.3125 127.671 46.3125C128.755 46.3125 129.631 47.6084 129.631 49.2005Z" fill="#111B24"/>
<path d="M132.874 64.0627C132.874 64.0627 135.435 70.1128 141.551 70.1128C147.667 70.1128 150.213 64.0627 150.213 64.0627C150.213 64.0627 143.065 67.2544 132.874 64.0627Z" fill="#F4472A"/>
<path d="M132.889 64.1072C132.889 64.1072 137.105 67.5728 141.662 67.5728C146.22 67.5728 150.109 64.1072 150.109 64.1072C150.109 64.1072 142.961 68.1208 132.889 64.1072Z" fill="white"/>
<path d="M150.45 63.8999C150.45 63.8999 144.423 63.5297 143.258 63.8999C142.108 64.2628 142.041 64.2998 141.662 64.2998C141.261 64.2998 141.217 64.2702 140.066 63.8999C138.901 63.5297 132.874 63.8999 132.874 63.8999C139.963 67.4322 149.144 65.2254 150.45 63.8999Z" fill="#F4472A"/>
<path d="M131.457 63.4408C137.476 66.5436 145.685 66.7509 151.645 63.4408C151.779 63.3667 151.645 63.1964 151.512 63.2705C145.633 66.5436 137.535 66.3362 131.59 63.2705C131.449 63.1964 131.316 63.3667 131.457 63.4408Z" fill="#F4472A"/>
<path d="M138.411 58.2347C138.411 58.2347 138.849 58.3828 139.502 58.605C139.814 58.6938 140.163 58.8123 140.519 58.8864C140.697 58.9308 140.876 58.953 141.054 58.99C141.232 58.9974 141.41 59.0419 141.588 59.0271C141.766 59.0493 141.937 59.0271 142.115 59.0123C142.293 59.0197 142.456 58.953 142.635 58.9382C142.805 58.9086 142.969 58.8419 143.139 58.8049C143.31 58.7753 143.458 58.6864 143.614 58.642C143.763 58.5827 143.919 58.5457 144.037 58.4791C144.156 58.4198 144.275 58.3754 144.371 58.3384C144.564 58.2643 144.698 58.2273 144.698 58.2273C144.698 58.2273 144.668 58.3458 144.579 58.5457C144.49 58.7383 144.371 59.0419 144.119 59.3085C143.993 59.4492 143.874 59.6269 143.689 59.7528C143.51 59.8787 143.325 60.0342 143.102 60.1378C142.872 60.2267 142.642 60.3674 142.367 60.397C142.108 60.4563 141.833 60.4933 141.558 60.4711C141.284 60.4711 141.024 60.4118 140.764 60.3526C140.512 60.2785 140.274 60.1897 140.067 60.0712C139.636 59.849 139.302 59.5602 139.057 59.2788C138.538 58.7383 138.411 58.2347 138.411 58.2347Z" fill="#F89675"/>
<g opacity="0.1">
<path d="M128.451 57.124C128.451 59.7751 126.001 61.9226 122.988 61.9226C119.967 61.9226 117.525 59.7751 117.525 57.124C117.525 54.473 119.974 52.3254 122.988 52.3254C126.009 52.3254 128.451 54.473 128.451 57.124Z" fill="#F4472A"/>
<path d="M166.275 57.124C166.275 59.7751 163.825 61.9226 160.812 61.9226C157.791 61.9226 155.349 59.7751 155.349 57.124C155.349 54.473 157.798 52.3254 160.812 52.3254C163.825 52.3254 166.275 54.473 166.275 57.124Z" fill="#F4472A"/>
</g>
<path d="M179.383 90.7068C179.383 90.7068 189.076 94.0243 193.722 105.051C198.369 116.077 209.74 149.312 207.892 156.702C205.902 164.633 167.44 179.918 167.44 179.918L161.621 169.891C161.621 169.891 185.417 153.274 189.38 150.104L173.912 116.521L179.383 90.7068Z" fill="#F4B425" stroke="#1A1A1A" stroke-miterlimit="10"/>
<path d="M104.625 90.7068C104.625 90.7068 94.9314 94.0243 90.285 105.051C85.6386 116.077 74.2677 149.312 76.1158 156.702C78.105 164.633 116.567 179.918 116.567 179.918L122.387 169.891C122.387 169.891 98.5906 153.274 94.6271 150.104L110.125 116.521L104.625 90.7068Z" fill="#F4B425" stroke="#1A1A1A" stroke-miterlimit="10"/>
<path d="M154.926 142.891C149.678 141.27 144.705 139.9 142.004 139.9C139.295 139.9 134.329 141.27 129.081 142.891C123.826 144.513 120.078 143.639 120.078 143.639C123.804 145.942 128.963 146.268 134.084 144.387C138.597 142.728 142.004 142.765 142.004 142.765C142.004 142.765 145.366 142.854 149.923 144.387C155.134 146.142 160.203 145.942 163.929 143.639C163.929 143.639 160.181 144.513 154.926 142.891Z" fill="#F4B425"/>
<path d="M174.506 43.4614C173.385 42.4839 172.465 42.5728 171.715 43.2023C171.626 43.2467 171.559 43.3133 171.515 43.3874C170.209 44.7129 169.489 47.6824 169.266 49.0746C169.177 49.6448 170.053 49.8892 170.142 49.319C170.298 48.3637 170.854 45.5497 171.879 44.2908C172.48 45.3794 172.539 46.6753 171.856 47.7787C171.552 48.2822 172.339 48.734 172.643 48.2378C173.497 46.8382 173.43 45.1054 172.606 43.7354C172.984 43.6021 173.4 43.691 173.868 44.0983C174.298 44.4908 174.944 43.8465 174.506 43.4614Z" fill="#F4885D"/>
<path d="M108.937 43.4614C110.058 42.4839 110.978 42.5728 111.728 43.2023C111.817 43.2467 111.884 43.3133 111.929 43.3874C113.235 44.7129 113.955 47.6824 114.177 49.0746C114.274 49.6448 113.398 49.8892 113.302 49.319C113.146 48.3637 112.589 45.5497 111.565 44.2908C110.964 45.3794 110.904 46.6753 111.587 47.7787C111.891 48.2822 111.105 48.734 110.8 48.2378C109.947 46.8382 110.014 45.1054 110.845 43.7354C110.466 43.6021 110.051 43.691 109.583 44.0983C109.138 44.4908 108.492 43.8465 108.937 43.4614Z" fill="#F4885D"/>
<path d="M162.964 172.216C162.964 172.216 154.607 172.09 153.271 173.297C151.935 174.504 147.934 181.887 148.543 182.613C149.151 183.339 158.6 181.643 161.027 180.68C163.454 179.71 166.661 178.592 166.661 178.592L162.964 172.216Z" fill="#FFAE8A"/>
<path d="M120.702 172.216C120.702 172.216 129.059 172.09 130.395 173.297C131.731 174.504 135.732 181.887 135.123 182.613C134.515 183.339 125.066 181.643 122.639 180.68C120.212 179.71 117.005 178.592 117.005 178.592L120.702 172.216Z" fill="#FFAE8A"/>
<path d="M114.192 44.0759C114.192 44.0759 128.629 36.6484 132.585 22.4971C132.585 22.4971 144.401 42.4319 168.895 44.0759C168.895 44.0759 171.248 40.8176 173.897 41.4544C173.897 41.4544 175.575 3.14722 141.454 3.14722C107.334 3.14722 110.244 41.1582 110.244 41.1582C110.244 41.1582 112.121 41.6988 114.192 44.0759Z" fill="#814C4A" stroke="#333333" stroke-miterlimit="10"/>
<g opacity="0.2">
<path d="M137.031 16.3359C137.031 16.3359 137.372 16.7654 137.988 17.4763C138.612 18.1946 139.502 19.2018 140.631 20.357C141.18 20.942 141.818 21.5492 142.471 22.1935C143.132 22.8377 143.867 23.4746 144.594 24.1633C145.366 24.8075 146.131 25.511 146.962 26.1553C147.37 26.4885 147.786 26.8143 148.201 27.1476C148.624 27.4734 149.062 27.7696 149.5 28.088C149.938 28.399 150.354 28.7323 150.799 29.0285C151.244 29.3173 151.69 29.6061 152.128 29.8949C152.996 30.4873 153.902 30.9983 154.763 31.5018C155.616 32.0276 156.492 32.4423 157.309 32.8718C157.717 33.0791 158.118 33.2865 158.504 33.4864C158.897 33.6642 159.283 33.8345 159.654 33.9974C160.396 34.3084 161.064 34.6491 161.673 34.8934C162.289 35.123 162.831 35.3303 163.269 35.4933C164.152 35.8487 164.664 36.0486 164.664 36.0486C164.664 36.0486 164.13 35.9598 163.194 35.7747C162.727 35.6784 162.155 35.5599 161.502 35.4266C160.856 35.2711 160.144 35.0267 159.357 34.7824C158.964 34.6565 158.555 34.5306 158.132 34.3899C157.717 34.2344 157.301 34.0492 156.863 33.8641C155.995 33.4938 155.06 33.1458 154.161 32.6348C153.256 32.1461 152.284 31.6944 151.386 31.0871C150.925 30.7983 150.465 30.5095 149.998 30.2133C149.537 29.9171 149.099 29.5839 148.647 29.2655C148.209 28.9322 147.756 28.6212 147.326 28.2806C146.902 27.9325 146.479 27.5845 146.064 27.2438C145.641 26.9106 145.24 26.5551 144.861 26.1849C144.475 25.822 144.097 25.4592 143.718 25.1111C142.991 24.3854 142.301 23.6671 141.685 22.9562C141.061 22.2527 140.49 21.5714 139.992 20.9124C139.48 20.2755 139.057 19.6535 138.671 19.1055C138.3 18.5575 137.988 18.0614 137.743 17.6541C137.268 16.8247 137.031 16.3359 137.031 16.3359Z" fill="#B76A6A" stroke="#333333" stroke-miterlimit="10"/>
<path d="M140.549 11.2561C140.549 11.2561 141.974 12.5372 144.156 14.3589C144.705 14.8106 145.299 15.2994 145.923 15.8177C146.554 16.3287 147.222 16.8619 147.919 17.4098C149.33 18.4836 150.807 19.6462 152.358 20.7126L153.501 21.5346C153.894 21.7937 154.28 22.0529 154.666 22.3121C155.438 22.8305 156.195 23.334 156.945 23.8006C157.687 24.2819 158.414 24.7262 159.112 25.1335C159.81 25.5482 160.463 25.9481 161.094 26.2813C161.71 26.6294 162.281 26.9478 162.786 27.2292C163.298 27.4958 163.751 27.7253 164.122 27.9179C164.857 28.3103 165.28 28.5473 165.28 28.5473C165.28 28.5473 164.82 28.4214 164.011 28.1844C163.61 28.0586 163.12 27.9105 162.564 27.7401C162.014 27.5402 161.398 27.3032 160.73 27.0292C160.396 26.8885 160.04 26.7626 159.691 26.6071C159.342 26.4368 158.979 26.2665 158.607 26.0888C157.858 25.7333 157.071 25.3631 156.299 24.9039C155.512 24.4596 154.688 24.0227 153.909 23.4895C153.508 23.2378 153.108 22.9786 152.707 22.7194L151.527 21.8974C150.74 21.342 149.983 20.7496 149.24 20.172C148.483 19.6018 147.808 18.9649 147.11 18.3947C145.774 17.1951 144.564 16.0251 143.6 14.9661C142.612 13.922 141.863 12.9889 141.343 12.3299C140.809 11.656 140.549 11.2561 140.549 11.2561Z" fill="#B76A6A" stroke="#333333" stroke-miterlimit="10"/>
<path d="M142.731 7.38306C142.731 7.38306 144.631 7.42749 147.407 8.09396C148.097 8.27168 148.847 8.442 149.626 8.70859C150.012 8.83448 150.413 8.96037 150.821 9.09366C151.222 9.24917 151.63 9.40468 152.046 9.5676C152.885 9.87862 153.716 10.2859 154.57 10.6858C155.401 11.1301 156.24 11.5818 157.064 12.078L158.251 12.8777L158.845 13.2776L159.402 13.7219C160.144 14.3069 160.871 14.892 161.487 15.5436C161.806 15.862 162.126 16.1657 162.423 16.4841C162.734 16.7803 162.964 17.1505 163.232 17.4616C163.736 18.1132 164.248 18.6982 164.59 19.3351C164.961 19.9497 165.288 20.5199 165.577 21.0161C165.815 21.5418 165.993 22.0232 166.149 22.4008C166.453 23.171 166.609 23.6079 166.609 23.6079C166.609 23.6079 166.334 23.2154 165.889 22.5267C165.666 22.1861 165.399 21.7714 165.095 21.2975C164.738 20.8532 164.33 20.3644 163.914 19.8164C163.521 19.2536 162.949 18.7501 162.423 18.1725C161.903 17.5801 161.257 17.0543 160.619 16.4767C160.003 15.8768 159.261 15.3881 158.555 14.8327L158.021 14.418L157.45 14.0478L156.299 13.2998C155.52 12.8111 154.718 12.3594 153.931 11.9225C153.115 11.5374 152.35 11.0635 151.549 10.7302C151.155 10.5525 150.769 10.3674 150.391 10.197C150.005 10.0341 149.634 9.87121 149.263 9.7157C148.528 9.39728 147.823 9.1455 147.177 8.87891C145.871 8.39757 144.765 8.00509 143.978 7.76072C143.184 7.51635 142.731 7.38306 142.731 7.38306Z" fill="#B76A6A" stroke="#333333" stroke-miterlimit="10"/>
<path d="M130.848 16.3359C130.848 16.3359 130.766 16.7654 130.558 17.4986C130.351 18.2317 130.024 19.2758 129.527 20.4829C129.052 21.7047 128.384 23.0821 127.604 24.5187C127.181 25.2222 126.803 25.9775 126.306 26.6884C125.838 27.4067 125.355 28.1399 124.828 28.8434C124.561 29.1914 124.301 29.5469 124.034 29.8875C123.752 30.2207 123.478 30.554 123.203 30.8872C122.669 31.5685 122.06 32.1609 121.496 32.7533C120.947 33.3605 120.338 33.8789 119.774 34.3825C119.492 34.6342 119.217 34.8712 118.957 35.1082C118.675 35.3229 118.401 35.5303 118.141 35.7302C117.614 36.1227 117.139 36.4855 116.701 36.7818C116.248 37.0632 115.855 37.3001 115.528 37.5075C114.875 37.9 114.497 38.1073 114.497 38.1073C114.497 38.1073 114.808 37.7963 115.358 37.2779C115.632 37.0261 115.974 36.7151 116.36 36.3597C116.731 35.9894 117.146 35.5673 117.599 35.1082C117.829 34.8786 118.059 34.6491 118.304 34.4047C118.534 34.1529 118.779 33.8863 119.024 33.6123C119.522 33.0717 120.049 32.5089 120.561 31.8943C121.088 31.2945 121.615 30.665 122.127 29.9986C122.387 29.6727 122.654 29.3395 122.914 29.0137L123.663 27.9844C124.19 27.3179 124.673 26.6144 125.14 25.9183C125.623 25.237 126.061 24.5335 126.506 23.8671C126.922 23.1858 127.352 22.5415 127.723 21.9047C128.094 21.2678 128.458 20.6754 128.777 20.12C130.069 17.891 130.848 16.3359 130.848 16.3359Z" fill="#B76A6A" stroke="#333333" stroke-miterlimit="10"/>
<path d="M133.988 8.71606C133.988 8.71606 133.884 8.74568 133.683 8.81233C133.483 8.87157 133.208 8.99006 132.845 9.11595C132.496 9.27146 132.058 9.42697 131.583 9.66393C131.1 9.87868 130.581 10.1675 130.009 10.4711C129.72 10.6118 129.445 10.8117 129.148 10.9969C128.859 11.182 128.54 11.3523 128.25 11.5819C127.953 11.7966 127.642 12.0114 127.33 12.241C127.033 12.4853 126.721 12.7297 126.409 12.9815C125.764 13.4554 125.214 14.0849 124.591 14.6328C124.005 15.2327 123.44 15.8695 122.891 16.5138C122.387 17.195 121.808 17.8319 121.355 18.5428C120.924 19.2611 120.397 19.9128 120.019 20.6237C119.64 21.3346 119.247 22.0084 118.876 22.6527C118.557 23.3266 118.252 23.9634 117.978 24.5484C117.837 24.8446 117.696 25.126 117.569 25.3926C117.443 25.6666 117.347 25.9332 117.25 26.1776C117.05 26.6737 116.872 27.1032 116.723 27.4513C116.419 28.1622 116.233 28.5621 116.233 28.5621C116.233 28.5621 116.3 28.1326 116.449 27.3698C116.523 26.9922 116.619 26.533 116.723 25.9999C116.783 25.7333 116.835 25.4519 116.909 25.1557C117.005 24.8669 117.102 24.5632 117.198 24.2448C117.406 23.6154 117.621 22.9193 117.889 22.201C118.2 21.5049 118.527 20.7644 118.891 20.009C119.054 19.624 119.291 19.2685 119.507 18.8908C119.722 18.5132 119.952 18.1429 120.182 17.7652C120.642 17.0099 121.236 16.3212 121.763 15.5955C122.357 14.9216 122.973 14.2552 123.611 13.6331C124.279 13.0481 124.925 12.4483 125.63 11.9744C125.979 11.73 126.306 11.4708 126.654 11.2635C127.003 11.0635 127.352 10.8636 127.686 10.6636C128.354 10.2786 129.029 9.98976 129.653 9.73058C130.284 9.48621 130.863 9.28627 131.39 9.15297C131.909 8.99006 132.384 8.92341 132.763 8.84936C133.55 8.71606 133.988 8.71606 133.988 8.71606Z" fill="#B76A6A" stroke="#333333" stroke-miterlimit="10"/>
</g>
<path d="M112.5 36.1746L108.136 36.1524C108.136 35.797 108.685 0.370361 142.048 0.370361C175.315 0.370361 175.701 35.8044 175.701 36.1672H171.337C171.337 34.8861 170.928 4.72463 142.048 4.72463C129.868 4.72463 121.206 9.96013 116.315 20.2904C112.582 28.1622 112.5 36.0932 112.5 36.1746Z" fill="#5D93F4" stroke="#1A1A1A" stroke-miterlimit="10"/>
<path opacity="0.5" d="M112.5 36.1747C112.5 36.0932 112.582 28.1622 116.315 20.2905C121.214 9.96019 129.868 4.72469 142.048 4.72469C170.936 4.72469 171.337 34.8862 171.337 36.1673H173.63C173.422 31.6353 170.951 3.15479 142.041 3.15479C113.034 3.15479 110.437 31.6649 110.214 36.1673L112.5 36.1747Z" fill="#1A65D3" stroke="#1A1A1A" stroke-miterlimit="10"/>
<path d="M170.787 53.266C166.802 56.665 162.816 60.0714 158.83 63.4704C157.865 64.2924 159.09 65.8475 160.062 65.0181C164.048 61.6191 168.034 58.2127 172.02 54.8137C172.984 53.9917 171.76 52.4366 170.787 53.266Z" fill="#5D93F4" stroke="#1A1A1A" stroke-miterlimit="10"/>
<path d="M163.395 61.1748C164.13 62.1005 163.974 63.4408 163.053 64.174L159.721 66.8176C158.793 67.5507 157.45 67.3952 156.722 66.477C155.987 65.5587 156.143 64.211 157.064 63.4779L160.396 60.8342C161.317 60.1011 162.66 60.2566 163.395 61.1748Z" fill="#1A65D3" stroke="#1A1A1A" stroke-miterlimit="10"/>
<path opacity="0.5" d="M163.395 61.1748C162.89 60.5453 162.111 60.2861 161.369 60.412C161.487 60.5083 161.591 60.612 161.688 60.7379C162.422 61.6561 162.267 63.0039 161.346 63.737L158.014 66.3806C157.724 66.6102 157.383 66.7435 157.041 66.8027C157.806 67.4248 158.919 67.4544 159.721 66.8176L163.053 64.1739C163.981 63.4408 164.13 62.1004 163.395 61.1748Z" fill="#0952AA" stroke="#1A1A1A" stroke-miterlimit="10"/>
<path d="M111.966 33.8716H110.325V34.7158C108.648 36.4856 107.46 40.8695 107.46 46.0161C107.46 51.1628 108.648 55.5467 110.325 57.3165V58.1607H111.966C114.46 58.1607 116.478 52.7253 116.478 46.0161C116.471 39.307 114.452 33.8716 111.966 33.8716Z" fill="#1A65D3" stroke="#1A1A1A" stroke-miterlimit="10"/>
<path d="M110.318 33.8716C109.91 33.8716 109.524 34.0271 109.153 34.3011C107.453 35.1971 104.499 37.9148 104.499 46.0161C104.499 53.3103 106.889 56.1465 108.603 57.2499C109.13 57.8349 109.709 58.1607 110.318 58.1607C112.812 58.1607 114.831 52.7253 114.831 46.0161C114.831 39.307 112.812 33.8716 110.318 33.8716Z" fill="#5D93F4" stroke="#1A1A1A" stroke-miterlimit="10"/>
<path opacity="0.2" d="M111.617 34.3826C112.76 36.5819 113.509 40.1809 113.509 44.2537C113.509 50.9629 111.491 56.3983 108.997 56.3983C108.388 56.3983 107.809 56.0725 107.282 55.4875C106.97 55.2875 106.636 55.0283 106.295 54.6951C107.03 55.991 107.876 56.776 108.603 57.2425C109.13 57.8275 109.709 58.1533 110.318 58.1533C112.812 58.1533 114.831 52.7179 114.831 46.0088C114.831 40.5215 113.472 35.8858 111.617 34.3826Z" fill="#814C4A" stroke="#1A1A1A" stroke-miterlimit="10"/>
<path opacity="0.2" d="M108.744 37.1299C108.744 37.1299 108.692 37.352 108.603 37.7371C108.522 38.1222 108.41 38.648 108.299 39.27C108.247 39.5884 108.18 39.9142 108.128 40.2697C108.069 40.6177 108.01 40.988 107.958 41.3731C107.891 41.7507 107.861 42.1506 107.802 42.5505C107.757 42.9504 107.713 43.3577 107.668 43.765C107.631 44.1723 107.594 44.5869 107.557 44.9868C107.542 45.3941 107.49 45.794 107.468 46.1865C107.453 46.5789 107.423 46.964 107.386 47.3269C107.364 47.6971 107.342 48.0452 107.319 48.371C107.252 49.0301 107.238 49.5781 107.186 49.9779C107.149 50.3778 107.104 50.6148 107.104 50.6148C107.104 50.6148 107.008 50.4149 106.866 50.0594C106.733 49.6965 106.518 49.1782 106.377 48.5191C106.302 48.1933 106.213 47.8304 106.154 47.438C106.102 47.0455 106.05 46.6382 106.013 46.2013C105.983 45.7718 105.976 45.3201 105.968 44.8609C105.968 44.4018 106.013 43.9353 106.043 43.4762C106.102 43.017 106.161 42.5505 106.25 42.1062C106.347 41.6619 106.436 41.225 106.577 40.8177C106.696 40.4104 106.837 40.0253 106.993 39.6699C107.134 39.3144 107.304 39.0034 107.46 38.7146C107.787 38.1518 108.106 37.7445 108.351 37.4853C108.581 37.241 108.744 37.1299 108.744 37.1299Z" fill="white" stroke="#1A1A1A" stroke-miterlimit="10"/>
<path d="M171.225 33.8716H172.866V34.7158C174.543 36.4856 175.731 40.8695 175.731 46.0161C175.731 51.1628 174.543 55.5467 172.866 57.3165V58.1607H171.225C168.731 58.1607 166.713 52.7253 166.713 46.0161C166.713 39.307 168.731 33.8716 171.225 33.8716Z" fill="#1A65D3" stroke="#1A1A1A" stroke-miterlimit="10"/>
<path d="M172.866 33.8716C173.266 33.8716 173.66 34.0271 174.031 34.3011C175.731 35.1971 178.685 37.9148 178.685 46.0161C178.685 53.3103 176.295 56.1465 174.58 57.2499C174.053 57.8349 173.474 58.1607 172.866 58.1607C170.372 58.1607 168.353 52.7253 168.353 46.0161C168.36 39.307 170.379 33.8716 172.866 33.8716Z" fill="#5D93F4" stroke="#1A1A1A" stroke-miterlimit="10"/>
<path opacity="0.2" d="M171.574 34.3826C170.431 36.5819 169.682 40.1809 169.682 44.2537C169.682 50.9629 171.7 56.3983 174.194 56.3983C174.803 56.3983 175.382 56.0725 175.909 55.4875C176.221 55.2875 176.555 55.0283 176.896 54.6951C176.161 55.991 175.315 56.776 174.588 57.2425C174.061 57.8275 173.482 58.1533 172.873 58.1533C170.379 58.1533 168.36 52.7179 168.36 46.0088C168.36 40.5215 169.711 35.8858 171.574 34.3826Z" fill="#814C4A" stroke="#1A1A1A" stroke-miterlimit="10"/>
<path opacity="0.2" d="M174.447 37.1299C174.447 37.1299 174.499 37.352 174.588 37.7371C174.669 38.1222 174.781 38.648 174.892 39.27C174.944 39.5884 175.011 39.9142 175.063 40.2697C175.122 40.6177 175.181 40.988 175.233 41.3731C175.3 41.7507 175.33 42.1506 175.389 42.5505C175.434 42.9504 175.478 43.3577 175.523 43.765C175.56 44.1723 175.597 44.5869 175.634 44.9868C175.656 45.3941 175.701 45.794 175.723 46.1865C175.738 46.5789 175.768 46.964 175.805 47.3269C175.827 47.6971 175.849 48.0452 175.872 48.371C175.939 49.0301 175.953 49.5781 176.005 49.9779C176.042 50.3778 176.087 50.6148 176.087 50.6148C176.087 50.6148 176.183 50.4149 176.324 50.0594C176.458 49.6965 176.673 49.1782 176.814 48.5191C176.889 48.1933 176.97 47.8304 177.037 47.438C177.089 47.0455 177.141 46.6382 177.178 46.2013C177.208 45.7718 177.215 45.3201 177.223 44.8609C177.223 44.4018 177.178 43.9353 177.148 43.4762C177.089 43.017 177.03 42.5505 176.941 42.1062C176.844 41.6619 176.755 41.225 176.614 40.8177C176.495 40.4104 176.354 40.0253 176.198 39.6699C176.057 39.3144 175.887 39.0034 175.731 38.7146C175.404 38.1518 175.085 37.7445 174.84 37.4853C174.61 37.241 174.447 37.1299 174.447 37.1299Z" fill="white" stroke="#1A1A1A" stroke-miterlimit="10"/>
<path d="M271.813 187.908H12.1949V200.622H271.813V187.908Z" fill="#5D93F4" stroke="#1A1A1A" stroke-miterlimit="10"/>
<path d="M283.629 191.366C283.629 193.269 281.996 194.824 279.992 194.824H4.00806C2.01146 194.824 0.371124 193.269 0.371124 191.366C0.371124 189.463 2.01146 187.908 4.00806 187.908H279.992C281.996 187.908 283.629 189.463 283.629 191.366Z" fill="#2D80E2" stroke="#1A1A1A" stroke-miterlimit="10"/>
<path d="M206.244 184.849C206.244 186.538 204.871 187.908 203.171 187.908H80.829C79.1367 187.908 77.7636 186.538 77.7636 184.849C77.7636 183.161 79.1367 181.783 80.829 181.783H203.171C204.871 181.783 206.244 183.161 206.244 184.849Z" fill="#184A7C" stroke="#1A1A1A" stroke-miterlimit="10"/>
<path d="M196.543 176.985C196.543 180.177 193.923 182.791 190.724 182.791H93.2688C90.0698 182.791 87.4497 180.177 87.4497 176.985V123.719C87.4497 120.528 90.0698 117.914 93.2688 117.914H190.724C193.923 117.914 196.543 120.528 196.543 123.719V176.985Z" fill="#1D5393" stroke="#1A1A1A" stroke-miterlimit="10"/>
<path d="M146.301 149.904C146.301 152.274 144.371 154.199 141.996 154.199C139.621 154.199 137.691 152.274 137.691 149.904C137.691 147.534 139.621 145.609 141.996 145.609C144.379 145.609 146.301 147.534 146.301 149.904Z" fill="#5D93F4" stroke="#1A1A1A" stroke-miterlimit="10"/>
<path opacity="0.6" d="M190.724 117.914H169.733C168.509 157.324 114.742 175.889 90.7749 182.213C91.532 182.576 92.3781 182.783 93.2688 182.783H190.724C193.923 182.783 196.543 180.169 196.543 176.978V123.712C196.543 120.528 193.93 117.914 190.724 117.914Z" fill="#114068" stroke="#1A1A1A" stroke-miterlimit="10"/>
</g>
<defs>
<clipPath id="clip0_422_2">
<rect width="284" height="201" fill="white"/>
</clipPath>
</defs>
</svg>
