<svg width="208" height="30" viewBox="0 0 208 30" fill="none" xmlns="http://www.w3.org/2000/svg">
<g clip-path="url(#clip0_104_55)">
<path d="M29.29 29.29H0V0H29.29V29.29ZM0.85 28.44H28.44V0.85H0.85V28.44Z" fill="white"/>
<path d="M18.18 23.87H5.58002L9.34002 19.84H19.02L18.18 23.87Z" fill="white"/>
<path d="M19.87 16.66H7.28003L11.04 12.63H20.71L19.87 16.66Z" fill="white"/>
<path d="M21.55 9.45001H8.96002L12.72 5.42001H22.4L21.55 9.45001Z" fill="white"/>
<path d="M81.38 19.29H68.79L72.55 15.25H82.23L81.38 19.29Z" fill="white"/>
<path d="M83.08 12.08H70.48L74.24 8.03998H83.92L83.08 12.08Z" fill="white"/>
<path d="M84.76 4.85999H72.16L75.92 0.829987H85.6L84.76 4.85999Z" fill="white"/>
<path d="M37.6 19.14C36.22 18.77 35.1 18.29 34.24 17.71L36.3 13.79C37.24 14.39 38.23 14.84 39.29 15.15C40.35 15.46 41.41 15.61 42.47 15.61C43.48 15.61 44.26 15.46 44.81 15.17C45.37 14.88 45.64 14.48 45.64 13.97C45.64 13.53 45.39 13.19 44.89 12.94C44.39 12.69 43.61 12.43 42.55 12.15C41.35 11.83 40.35 11.51 39.56 11.18C38.77 10.85 38.08 10.36 37.51 9.68C36.94 9.01 36.65 8.13 36.65 7.03C36.65 5.71 37.01 4.55 37.74 3.55C38.46 2.55 39.5 1.78 40.84 1.23C42.18 0.680004 43.75 0.410004 45.55 0.410004C46.87 0.410004 48.11 0.550004 49.26 0.820004C50.41 1.09 51.39 1.49 52.22 2L50.31 5.9C49.59 5.44 48.79 5.09 47.91 4.85C47.04 4.61 46.14 4.49 45.22 4.49C44.18 4.49 43.36 4.66 42.77 4.99C42.18 5.33 41.88 5.76 41.88 6.29C41.88 6.75 42.14 7.1 42.65 7.35C43.16 7.6 43.96 7.86 45.03 8.14C46.23 8.44 47.22 8.75 48.01 9.07C48.79 9.39 49.47 9.87 50.04 10.53C50.6 11.18 50.89 12.04 50.89 13.1C50.89 14.41 50.52 15.56 49.79 16.55C49.06 17.55 48.02 18.32 46.67 18.87C45.32 19.42 43.75 19.69 41.97 19.69C40.43 19.69 38.98 19.51 37.6 19.14Z" fill="white"/>
<path d="M102.04 2.36001C103.35 3.40001 104 4.87001 104 6.75001C104 8.30001 103.62 9.66001 102.87 10.83C102.12 11.99 101.05 12.89 99.67 13.53C98.28 14.17 96.67 14.48 94.84 14.48H91.13L90.18 19.32H84.94L88.65 0.790009H96.49C98.88 0.790009 100.73 1.32001 102.04 2.36001ZM97.76 9.53001C98.39 8.98001 98.7 8.21001 98.7 7.20001C98.7 6.44001 98.45 5.87001 97.95 5.49001C97.45 5.11001 96.73 4.92001 95.79 4.92001H93.04L91.95 10.35H95.07C96.24 10.35 97.13 10.08 97.76 9.53001Z" fill="white"/>
<path d="M118.95 4.95001H113.26L114.11 0.790009H130.71L129.86 4.95001H124.2L121.31 19.32H116.07L118.95 4.95001Z" fill="white"/>
<path d="M146.69 11.08C145.79 12.31 144.53 13.2 142.9 13.77L146.05 19.33H140.57L137.82 14.41H135.17L134.19 19.33H128.95L132.66 0.799988H140.57C142.93 0.799988 144.77 1.31999 146.08 2.35999C147.39 3.39999 148.04 4.84999 148.04 6.69999C148.04 8.38999 147.59 9.84999 146.69 11.08ZM141.98 5.48999C141.47 5.10999 140.75 4.91999 139.84 4.91999H137.09L135.98 10.35H139.1C140.26 10.35 141.16 10.08 141.8 9.52999C142.44 8.97999 142.75 8.20999 142.75 7.19999C142.74 6.43999 142.49 5.86999 141.98 5.48999Z" fill="white"/>
<path d="M161.88 15.72H153.99L151.85 19.32H146.32L158.2 0.790009H163.36L167.83 19.32H162.62L161.88 15.72ZM161.09 11.86L159.85 5.85001L156.3 11.86H161.09Z" fill="white"/>
<path d="M190.65 0.790009L186.94 19.32H182.63L176.52 9.16001L174.48 19.32H169.35L173.06 0.790009H177.37L183.51 10.93L185.52 0.790009H190.65Z" fill="white"/>
<path d="M193.22 19.14C191.84 18.77 190.72 18.29 189.86 17.71L191.92 13.79C192.86 14.39 193.85 14.84 194.91 15.15C195.97 15.46 197.03 15.61 198.09 15.61C199.1 15.61 199.88 15.46 200.43 15.17C200.99 14.88 201.26 14.48 201.26 13.97C201.26 13.53 201.01 13.19 200.51 12.94C200.01 12.69 199.23 12.43 198.17 12.15C196.97 11.83 195.97 11.51 195.18 11.18C194.39 10.85 193.7 10.36 193.13 9.68C192.56 9.01 192.27 8.13 192.27 7.03C192.27 5.71 192.63 4.55 193.36 3.55C194.08 2.55 195.12 1.78 196.46 1.23C197.8 0.680004 199.37 0.410004 201.17 0.410004C202.49 0.410004 203.73 0.550004 204.88 0.820004C206.03 1.09 207.01 1.49 207.84 2L205.93 5.89C205.21 5.43 204.41 5.08 203.53 4.84C202.66 4.6 201.76 4.48 200.84 4.48C199.8 4.48 198.98 4.65 198.39 4.98C197.8 5.32 197.5 5.75 197.5 6.28C197.5 6.74 197.76 7.09 198.27 7.34C198.78 7.59 199.58 7.85 200.65 8.13C201.85 8.43 202.84 8.74 203.63 9.06C204.41 9.38 205.09 9.86 205.65 10.52C206.21 11.17 206.5 12.03 206.5 13.09C206.5 14.4 206.13 15.55 205.4 16.54C204.67 17.54 203.63 18.31 202.28 18.86C200.93 19.41 199.36 19.68 197.58 19.68C196.05 19.69 194.6 19.51 193.22 19.14Z" fill="white"/>
<path d="M73.57 0.790009H70.48H60.58H53.88L53.03 4.95001H58.72L55.84 19.32H61.08L63.96 4.95001H69.69L73.57 0.790009Z" fill="white"/>
<path d="M97.8 29.26H100.05L100.2 28.54H98.47L97.8 29.26Z" fill="white"/>
<path d="M98.0801 27.97H100.33L100.48 27.25H98.7501L98.0801 27.97Z" fill="white"/>
<path d="M98.3201 26.68H100.57L100.72 25.96H98.9901L98.3201 26.68Z" fill="white"/>
<path d="M35.11 29.12C34.88 29.01 34.7 28.84 34.58 28.64C34.46 28.43 34.4 28.19 34.4 27.92C34.4 27.56 34.48 27.22 34.65 26.92C34.82 26.62 35.05 26.38 35.35 26.2C35.65 26.02 36.01 25.93 36.41 25.93C36.67 25.93 36.91 25.97 37.11 26.05C37.31 26.13 37.47 26.25 37.58 26.41L37.33 26.63C37.12 26.37 36.8 26.24 36.37 26.24C36.05 26.24 35.76 26.31 35.51 26.46C35.26 26.61 35.07 26.81 34.93 27.06C34.79 27.31 34.73 27.59 34.73 27.89C34.73 28.22 34.84 28.48 35.05 28.68C35.26 28.87 35.56 28.97 35.96 28.97C36.39 28.97 36.74 28.84 37.01 28.58L37.21 28.81C37.07 28.96 36.88 29.08 36.66 29.16C36.44 29.24 36.19 29.28 35.93 29.28C35.62 29.29 35.34 29.23 35.11 29.12Z" fill="white"/>
<path d="M38.42 29.12C38.19 29.01 38.02 28.84 37.9 28.64C37.78 28.43 37.72 28.19 37.72 27.92C37.72 27.56 37.8 27.23 37.97 26.92C38.13 26.62 38.37 26.38 38.67 26.2C38.97 26.02 39.32 25.93 39.72 25.93C40.04 25.93 40.32 25.99 40.55 26.1C40.78 26.21 40.95 26.38 41.08 26.58C41.2 26.79 41.26 27.03 41.26 27.3C41.26 27.66 41.18 27.99 41.01 28.3C40.85 28.6 40.61 28.84 40.31 29.02C40.01 29.2 39.66 29.29 39.26 29.29C38.92 29.29 38.65 29.23 38.42 29.12ZM40.12 28.75C40.37 28.6 40.55 28.4 40.69 28.15C40.82 27.9 40.89 27.62 40.89 27.32C40.89 26.99 40.78 26.73 40.57 26.54C40.36 26.35 40.06 26.25 39.67 26.25C39.35 26.25 39.07 26.32 38.83 26.47C38.58 26.62 38.4 26.82 38.26 27.07C38.13 27.32 38.06 27.6 38.06 27.9C38.06 28.23 38.17 28.49 38.38 28.69C38.59 28.88 38.89 28.98 39.28 28.98C39.59 28.98 39.87 28.9 40.12 28.75Z" fill="white"/>
<path d="M45.07 25.96L44.41 29.26H44.13L42.55 26.53L42 29.26H41.66L42.32 25.96H42.6L44.18 28.69L44.73 25.96H45.07Z" fill="white"/>
<path d="M46.44 26.26L46.18 27.56H47.89L47.83 27.86H46.12L45.84 29.26H45.5L46.16 25.96H48.42L48.36 26.26H46.44Z" fill="white"/>
<path d="M49.14 25.96H49.48L48.82 29.26H48.48L49.14 25.96Z" fill="white"/>
<path d="M50.56 25.96H51.81C52.14 25.96 52.42 26.02 52.65 26.13C52.88 26.24 53.06 26.4 53.18 26.6C53.3 26.8 53.36 27.04 53.36 27.31C53.36 27.69 53.28 28.03 53.11 28.33C52.94 28.63 52.7 28.86 52.39 29.02C52.08 29.19 51.72 29.27 51.31 29.27H49.9L50.56 25.96ZM51.33 28.96C51.67 28.96 51.97 28.89 52.23 28.75C52.49 28.61 52.68 28.42 52.82 28.17C52.96 27.92 53.03 27.64 53.03 27.32C53.03 26.99 52.92 26.74 52.71 26.55C52.5 26.36 52.19 26.27 51.78 26.27H50.85L50.31 28.97H51.33V28.96Z" fill="white"/>
<path d="M54.7401 26.26L54.5 27.43H56.21L56.1501 27.73H54.44L54.19 28.96H56.18L56.12 29.26H53.8L54.46 25.96H56.7201L56.66 26.26H54.7401Z" fill="white"/>
<path d="M60.37 25.96L59.71 29.26H59.43L57.85 26.53L57.3 29.26H56.96L57.62 25.96H57.9L59.48 28.69L60.03 25.96H60.37Z" fill="white"/>
<path d="M61.51 29.12C61.28 29.01 61.1 28.84 60.98 28.64C60.86 28.43 60.8 28.19 60.8 27.92C60.8 27.56 60.88 27.22 61.05 26.92C61.22 26.62 61.45 26.38 61.75 26.2C62.05 26.02 62.4101 25.93 62.8101 25.93C63.0701 25.93 63.31 25.97 63.51 26.05C63.71 26.13 63.87 26.25 63.98 26.41L63.73 26.63C63.52 26.37 63.2001 26.24 62.7701 26.24C62.4501 26.24 62.16 26.31 61.91 26.46C61.66 26.61 61.4701 26.81 61.3301 27.06C61.1901 27.31 61.1301 27.59 61.1301 27.89C61.1301 28.22 61.2401 28.48 61.4501 28.68C61.6601 28.87 61.9601 28.97 62.3601 28.97C62.7901 28.97 63.14 28.84 63.41 28.58L63.6101 28.81C63.4701 28.96 63.2801 29.08 63.0601 29.16C62.8401 29.24 62.5901 29.28 62.3301 29.28C62.0201 29.29 61.74 29.23 61.51 29.12Z" fill="white"/>
<path d="M65.12 26.26L64.88 27.43H66.59L66.53 27.73H64.82L64.57 28.96H66.56L66.5 29.26H64.17L64.83 25.96H67.09L67.03 26.26H65.12Z" fill="white"/>
<path d="M69.23 25.96H69.57L68.91 29.26H68.57L69.23 25.96Z" fill="white"/>
<path d="M73.4 25.96L72.74 29.26H72.46L70.88 26.53L70.33 29.26H69.99L70.65 25.96H70.93L72.51 28.69L73.06 25.96H73.4Z" fill="white"/>
<path d="M76 26.26L75.76 27.43H77.47L77.41 27.73H75.7L75.45 28.96H77.44L77.38 29.26H75.05L75.71 25.96H77.97L77.91 26.26H76Z" fill="white"/>
<path d="M81.56 25.96L79.44 29.26H79.1L78.29 25.96H78.65L79.34 28.82L81.19 25.96H81.56Z" fill="white"/>
<path d="M82.33 26.26L82.09 27.43H83.8L83.74 27.73H82.03L81.78 28.96H83.77L83.71 29.26H81.38L82.04 25.96H84.3L84.24 26.26H82.33Z" fill="white"/>
<path d="M87.3 27.72C87.12 27.94 86.87 28.08 86.55 28.16L87.17 29.26H86.8L86.21 28.21C86.18 28.21 86.12 28.21 86.04 28.21H85.1L84.89 29.26H84.54L85.2 25.96H86.39C86.76 25.96 87.05 26.04 87.26 26.21C87.47 26.37 87.57 26.6 87.57 26.9C87.57 27.23 87.48 27.5 87.3 27.72ZM86.91 27.66C87.11 27.49 87.21 27.25 87.21 26.92C87.21 26.7 87.14 26.54 86.99 26.42C86.84 26.31 86.63 26.25 86.36 26.25H85.48L85.15 27.9H86.04C86.42 27.91 86.71 27.83 86.91 27.66Z" fill="white"/>
<path d="M89.25 28.15L89.03 29.26H88.69L88.92 28.12L88.03 25.96H88.38L89.14 27.82L90.64 25.96H91.01L89.25 28.15Z" fill="white"/>
<path d="M92.4 29.17C92.18 29.09 92.01 28.99 91.9 28.87L92.07 28.6C92.18 28.72 92.33 28.82 92.53 28.89C92.72 28.96 92.93 29 93.13 29C93.42 29 93.66 28.94 93.83 28.83C94.01 28.72 94.1 28.56 94.1 28.35C94.1 28.24 94.07 28.15 94 28.08C93.93 28.01 93.85 27.95 93.75 27.91C93.65 27.87 93.51 27.82 93.34 27.77C93.14 27.71 92.97 27.65 92.84 27.6C92.71 27.55 92.6 27.46 92.51 27.35C92.42 27.24 92.38 27.1 92.38 26.93C92.38 26.73 92.44 26.55 92.55 26.4C92.66 26.25 92.82 26.14 93.02 26.06C93.22 25.98 93.45 25.94 93.71 25.94C93.91 25.94 94.1 25.96 94.28 26.01C94.46 26.06 94.61 26.13 94.74 26.22L94.59 26.5C94.47 26.41 94.33 26.35 94.18 26.3C94.03 26.25 93.86 26.23 93.69 26.23C93.4 26.23 93.17 26.29 92.99 26.41C92.81 26.53 92.73 26.69 92.73 26.9C92.73 27.01 92.76 27.11 92.83 27.18C92.9 27.25 92.98 27.31 93.09 27.35C93.19 27.39 93.33 27.44 93.5 27.49C93.7 27.55 93.87 27.61 94 27.66C94.13 27.71 94.23 27.79 94.32 27.9C94.41 28 94.45 28.14 94.45 28.3C94.45 28.51 94.39 28.69 94.28 28.84C94.17 28.99 94.01 29.1 93.8 29.18C93.6 29.26 93.36 29.3 93.1 29.3C92.85 29.29 92.62 29.25 92.4 29.17Z" fill="white"/>
<path d="M96.22 26.26H95.06L95.12 25.96H97.79L97.72 26.26H96.56L95.96 29.26H95.62L96.22 26.26Z" fill="white"/>
<path d="M103.56 26.2C103.77 26.36 103.87 26.59 103.87 26.89C103.87 27.31 103.73 27.64 103.46 27.87C103.19 28.1 102.81 28.22 102.34 28.22H101.41L101.2 29.26H100.86L101.52 25.96H102.7C103.06 25.96 103.35 26.04 103.56 26.2ZM103.21 27.66C103.41 27.49 103.52 27.25 103.52 26.92C103.52 26.7 103.45 26.54 103.3 26.42C103.15 26.31 102.94 26.25 102.66 26.25H101.79L101.46 27.9H102.34C102.72 27.91 103.01 27.83 103.21 27.66Z" fill="white"/>
</g>
<defs>
<clipPath id="clip0_104_55">
<rect width="207.83" height="29.29" fill="white"/>
</clipPath>
</defs>
</svg>
