<svg width="16" height="25" viewBox="0 0 16 25" fill="none" xmlns="http://www.w3.org/2000/svg">
<path d="M4.33342 9.16369L4.17044 9.18476C3.90231 9.18476 3.53955 9.00568 3.27142 8.91614C3.18731 8.91614 2.3987 8.83714 2.29355 8.67913C2.30932 8.45265 2.3356 8.23143 2.38292 8.02075C2.74042 8.19456 3.09267 8.19456 3.45018 8.2841C3.79191 8.36837 3.97591 8.53692 4.30187 8.63172C4.30187 8.80554 4.31239 8.98461 4.33342 9.16369Z" fill="#FF004A" stroke="#1A1A1A" stroke-width="0.2269" stroke-miterlimit="10"/>
<path d="M4.30188 8.63174C4.31765 7.71001 4.67515 6.87256 5.33759 6.21418C5.8791 5.67168 6.59412 5.13444 7.31438 5.0449C7.67189 4.95536 8.03465 5.0449 8.30278 5.13444C8.4237 5.13444 8.56565 5.13444 8.7076 5.14498C8.70234 5.17131 8.69708 5.19238 8.68656 5.21871C8.76542 5.19765 8.83904 5.17657 8.91264 5.16604C9.01254 5.18184 9.11242 5.19764 9.2018 5.22925C9.21231 5.19764 9.22283 5.16077 9.2386 5.12917C9.88001 5.10284 10.4215 5.39252 10.9105 5.95083C11.7201 6.76195 11.9882 7.84169 11.8989 9.01096C11.8989 9.91162 11.6307 10.9914 10.9998 11.7129C10.4583 12.345 9.56456 12.7031 8.66554 12.7927C6.79916 12.9507 5.19564 11.7551 4.57001 10.0854C4.47538 9.82735 4.40177 9.55873 4.35445 9.28485C4.3492 9.24798 4.34394 9.21111 4.33868 9.17424C4.31239 8.98463 4.30188 8.80555 4.30188 8.63174Z" fill="white" stroke="#1A1A1A" stroke-width="0.2269" stroke-miterlimit="10"/>
<path d="M8.03465 3.15419C8.30277 3.15419 8.66553 3.24373 8.93366 3.33327C9.05458 3.35961 9.18602 3.39121 9.31746 3.42281L9.29118 3.51235C9.29118 3.78096 9.11242 4.14439 9.02304 4.41301C8.87584 4.63949 8.78646 4.86597 8.7076 5.13986C8.56565 5.12932 8.4237 5.12932 8.30278 5.12932C8.03465 5.03978 7.67189 4.95024 7.31438 5.03978C6.59412 5.12932 5.8791 5.67182 5.33759 6.20906C4.68041 6.86744 4.31765 7.70489 4.30187 8.62662C3.97066 8.53182 3.79191 8.36327 3.45018 8.279C3.09267 8.18946 2.74042 8.18946 2.38292 8.01565C2.44075 7.73123 2.53012 7.45734 2.64053 7.19926C3.08741 6.02998 3.71831 5.03978 4.70671 4.22866C5.15359 3.96004 5.60571 3.59662 6.14197 3.41754C6.49948 3.23846 6.86225 3.23847 7.21975 3.14893C7.55097 3.14893 7.7823 3.14893 8.02414 3.18579L8.03465 3.15419Z" fill="#FF004A" stroke="#1A1A1A" stroke-width="0.2269" stroke-miterlimit="10"/>
<path d="M2.31984 9.65357L2.46178 9.63777C2.55116 9.72731 2.72991 9.72731 2.90866 9.72731C3.08742 9.72731 3.26617 9.81685 3.45018 9.81685C3.62893 9.90639 3.7183 9.90639 3.80768 9.90639C3.98643 9.90639 4.16518 9.99593 4.34919 9.99593L4.56475 10.0802C5.19038 11.7498 6.78864 12.9455 8.66028 12.7874C9.5593 12.6979 10.4583 12.3398 10.9946 11.7077C11.6255 10.9861 11.8936 9.90639 11.8936 9.00573C11.983 7.83645 11.7148 6.75671 10.9052 5.94559C10.4163 5.38729 9.87475 5.09761 9.23334 5.12394C9.41209 4.62884 9.66446 4.20221 9.91681 3.69658L9.92206 3.62284C9.71702 3.55437 9.51198 3.4859 9.3122 3.43323C9.18076 3.39636 9.04934 3.36476 8.92842 3.34369C8.66029 3.25415 8.29752 3.16461 8.02939 3.16461L8.02414 3.20148C7.7823 3.16461 7.55097 3.16461 7.21976 3.16461C6.86225 3.25415 6.49948 3.25415 6.14198 3.43323C5.60046 3.61231 5.15359 3.97573 4.70671 4.24435C3.71831 5.05547 3.08741 6.04567 2.64053 7.21495C2.52487 7.47303 2.44075 7.74165 2.38292 8.03133C2.33561 8.24728 2.30933 8.46323 2.29356 8.68971C2.27253 8.9952 2.28303 9.32175 2.31984 9.65357ZM7.76127 23.6744C6.6835 22.5946 5.87386 21.3358 5.15359 20.0717C4.07582 18.1809 3.1768 16.29 2.27778 14.3992C1.74153 13.3194 1.2 12.1501 0.931869 10.9809C0.753117 10.0802 0.842493 9.17954 0.931869 8.18934C1.02125 6.93053 1.28938 5.5769 2.00965 4.49716C2.72992 3.32789 3.80768 2.42723 4.97483 1.79519C5.78447 1.43703 6.59412 1.25269 7.39851 1.25269C7.64035 1.25269 7.88744 1.25268 8.11877 1.26849V1.25269C8.74966 1.25269 9.46467 1.43176 10.0956 1.61084C12.0724 2.24288 14.0491 3.85986 14.7694 5.84026C15.579 7.82065 15.4003 10.4331 14.5907 12.4082C14.1438 13.5775 13.5129 14.5677 12.9714 15.6474C12.3405 16.8167 11.8042 17.8965 11.1733 18.9762C10.4531 20.1455 9.82743 21.3147 9.19654 22.3945C8.83903 22.937 8.47627 23.4742 7.85064 23.5638V23.6533H7.76127V23.6744Z" fill="#C1272D"/>
<path d="M8.72337 1.23688C8.26597 1.04727 7.73497 1.03147 7.24077 1.0262C6.7308 1.01567 6.22084 1.08414 5.72665 1.21581C5.17987 1.36329 4.69618 1.57924 4.21775 1.87419C3.84973 2.10067 3.49749 2.35349 3.17153 2.63264C2.51435 3.19095 1.95181 3.88092 1.52596 4.62884C1.07907 5.40836 0.82672 6.28795 0.690027 7.16754C0.616423 7.63631 0.584879 8.10507 0.54282 8.5791C0.500761 9.06893 0.463956 9.55877 0.474471 10.0486C0.495501 11.0388 0.805687 11.9763 1.17896 12.8823C1.5575 13.804 2.00964 14.6994 2.43549 15.6C2.86135 16.5007 3.30296 17.3961 3.76036 18.2757C4.22827 19.1763 4.71721 20.0665 5.25346 20.9303C5.51108 21.3463 5.78447 21.7572 6.06837 22.1575C6.37856 22.5894 6.74132 22.9791 7.11986 23.3478C7.28284 23.5058 7.4353 23.6796 7.59302 23.8429C7.80858 24.0589 8.14506 23.7218 7.92951 23.5058C7.54571 23.1161 7.225 22.6842 6.92007 22.2259C6.66772 21.8467 6.41011 21.478 6.16827 21.0935C5.64252 20.2455 5.1746 19.3712 4.71195 18.4916C4.25981 17.6278 3.82345 16.7588 3.40286 15.8792C2.98752 15.0154 2.55641 14.1621 2.15159 13.2931C1.94655 12.8559 1.75729 12.4135 1.59957 11.9605C1.4471 11.5392 1.30516 11.1073 1.24207 10.6648C1.11063 9.73784 1.22103 8.77925 1.31566 7.85226C1.39978 7.0306 1.55751 6.18788 1.89924 5.42943C2.23046 4.68678 2.72465 4.00207 3.30823 3.43323C3.58687 3.15935 3.88653 2.90126 4.20198 2.66951C4.51743 2.43776 4.85391 2.19548 5.21141 2.03747C5.63201 1.85312 6.05785 1.71618 6.50473 1.61611C6.96213 1.51603 7.41952 1.49497 7.88217 1.4739C8.13979 1.46337 8.40267 1.4581 8.66028 1.48443C8.79171 1.49497 8.84429 1.28955 8.72337 1.23688Z" fill="black" stroke="#1A1A1A" stroke-width="0.2269" stroke-miterlimit="10"/>
<path d="M8.11877 1.28422C8.22392 1.31582 8.32907 1.35796 8.43422 1.37903C8.5604 1.40536 8.68132 1.4317 8.79699 1.4791C9.07563 1.58971 9.35952 1.66872 9.64342 1.75825C10.0798 1.90046 10.5109 2.06374 10.9262 2.26389C11.6833 2.63258 12.3773 3.13294 12.9819 3.72285C13.5549 4.28115 14.0439 4.93953 14.3699 5.67691C14.6958 6.41429 14.8903 7.21488 14.9587 8.02073C15.1006 9.75885 14.7326 11.4812 13.9966 13.0507C13.597 13.904 13.1344 14.7256 12.6927 15.5526C12.2301 16.4269 11.7832 17.3065 11.3048 18.1703C10.7948 19.0973 10.2375 20.0032 9.72228 20.9249C9.4857 21.3463 9.24913 21.7624 9.01254 22.1785C8.82853 22.4998 8.59195 22.8474 8.30805 23.0897C8.17136 23.2055 8.00311 23.2898 7.82436 23.3267C7.4984 23.3899 7.56674 23.885 7.89796 23.8428C8.88635 23.7164 9.39107 22.6841 9.8327 21.9099C10.3637 20.9829 10.8999 20.0611 11.4467 19.1394C11.9725 18.2545 12.4456 17.3328 12.9241 16.4216C13.392 15.5368 13.8809 14.6572 14.333 13.7618C14.7536 12.9243 15.1111 12.0553 15.332 11.1441C15.5423 10.2487 15.6421 9.31642 15.6053 8.39469C15.5685 7.49403 15.4056 6.61444 15.0796 5.77172C14.7694 4.9606 14.3173 4.23902 13.7337 3.60171C13.1449 2.95387 12.4351 2.40609 11.6675 1.99C11.2417 1.75825 10.8053 1.55811 10.3374 1.41063C9.85372 1.25789 9.32273 1.14728 8.81276 1.16835C8.69709 1.17361 8.58669 1.16835 8.47103 1.17362C8.35011 1.17888 8.23444 1.21048 8.11877 1.24209C8.09249 1.24735 8.09774 1.27896 8.11877 1.28422Z" fill="black" stroke="#1A1A1A" stroke-width="0.2269" stroke-miterlimit="10"/>
<path d="M8.31855 3.21731C7.93476 3.02243 7.45633 3.00136 7.041 3.06457C6.76761 3.1067 6.49422 3.11724 6.23135 3.20678C5.979 3.29105 5.73189 3.37532 5.50056 3.507C5.09048 3.73348 4.66989 3.9863 4.32291 4.30232C3.98117 4.61307 3.67625 4.95543 3.40812 5.32939C3.13999 5.69808 2.91917 6.0931 2.72464 6.50393C2.49858 6.96743 2.28829 7.45199 2.17262 7.95763C2.0517 8.47906 2.02015 9.02683 2.06747 9.5588C2.10953 10.0486 2.16737 10.5437 2.32509 11.0125C2.49333 11.5023 2.75093 11.9448 3.05586 12.3609C3.38708 12.8085 3.74985 13.2562 4.20724 13.5775C4.39125 13.7092 4.67515 13.5091 4.52269 13.2984C4.23879 12.9086 3.90758 12.5715 3.6079 12.1976C3.34503 11.871 3.11371 11.5181 2.93495 11.1389C2.7562 10.7544 2.67733 10.3699 2.61424 9.95382C2.54064 9.47979 2.49333 9.00576 2.53539 8.52646C2.60899 7.65214 2.97701 6.77782 3.42389 6.0299C3.63944 5.67701 3.88128 5.33992 4.15993 5.03443C4.30713 4.87642 4.4596 4.72368 4.62258 4.5762C4.7803 4.43399 4.95379 4.32338 5.12729 4.20751C5.33233 4.07057 5.54263 3.92836 5.75819 3.81248C6.0158 3.67027 6.29444 3.5228 6.57308 3.44379C6.85172 3.36479 7.15139 3.28578 7.44055 3.28052C7.72445 3.27525 8.01361 3.28578 8.29751 3.28578C8.33957 3.27525 8.33958 3.22785 8.31855 3.21731Z" fill="black" stroke="#1A1A1A" stroke-width="0.2269" stroke-miterlimit="10"/>
<path d="M8.01888 3.21199C8.26598 3.23833 8.50782 3.31207 8.73914 3.40161C8.95996 3.48588 9.18604 3.54908 9.40685 3.62809C9.65395 3.71236 9.89577 3.81244 10.1324 3.92304C10.3374 4.01785 10.5214 4.14426 10.7159 4.26013C11.0997 4.49188 11.3679 4.8395 11.6307 5.19766C11.7569 5.37147 11.9146 5.51895 12.0356 5.69802C12.146 5.85603 12.2406 6.02458 12.3194 6.20366C12.5192 6.64609 12.6296 7.11485 12.7979 7.56782C12.8662 7.74689 13.1712 7.67842 13.1659 7.48881C13.1501 7.00951 13.0239 6.52494 12.8294 6.08778C12.7348 5.8771 12.6244 5.67169 12.493 5.47681C12.3563 5.27666 12.1828 5.10812 12.0356 4.91851C11.7464 4.54455 11.4415 4.12845 11.0156 3.89671C10.8316 3.79663 10.6581 3.67022 10.4636 3.59122C10.2112 3.48588 9.93259 3.42267 9.66972 3.34894C9.39633 3.2752 9.12295 3.23833 8.84956 3.18039C8.58143 3.12245 8.30279 3.08032 8.02414 3.09612C7.96631 3.09612 7.94528 3.20673 8.01888 3.21199Z" fill="black" stroke="#1A1A1A" stroke-width="0.2269" stroke-miterlimit="10"/>
<path d="M13.1817 8.34203C13.25 8.43684 13.2079 8.59485 13.2079 8.70019C13.2027 8.84767 13.1974 8.99514 13.1974 9.14262C13.1922 9.42704 13.2079 9.71146 13.2395 9.99588C13.25 10.1012 13.4235 10.1328 13.4393 10.0117C13.4761 9.68512 13.4866 9.35857 13.4813 9.02674C13.4761 8.86873 13.4813 8.70546 13.455 8.54745C13.4393 8.43157 13.4077 8.30516 13.3131 8.22089C13.2237 8.14715 13.1133 8.25249 13.1817 8.34203Z" fill="black" stroke="#1A1A1A" stroke-width="0.2269" stroke-miterlimit="10"/>
<path d="M9.22809 5.18194C9.02305 5.07134 8.81275 5.03447 8.58142 5.00813C8.47627 4.9976 8.37112 4.9976 8.26597 4.96073C8.14505 4.91859 8.02413 4.87645 7.90321 4.85012C7.3985 4.74478 6.8675 4.86592 6.4101 5.09767C5.96848 5.31888 5.57943 5.6349 5.22718 5.97726C4.90648 6.28801 4.63309 6.64091 4.43331 7.0412C3.64995 8.59497 4.13364 10.5069 5.29027 11.7394C5.82127 12.3029 6.49422 12.7138 7.23026 12.9297C8.07671 13.1773 8.97573 13.1246 9.80115 12.8349C10.2165 12.6874 10.6213 12.4662 10.9578 12.1713C11.3048 11.8605 11.5676 11.4708 11.7622 11.0494C12.1354 10.2488 12.2195 9.35342 12.2038 8.47909C12.188 7.61003 11.9357 6.73045 11.3889 6.04573C10.8526 5.37682 10.1586 4.81325 9.26488 4.83432C9.01252 4.83959 8.7812 4.89752 8.54462 4.98179C8.26072 5.08187 8.4237 5.54537 8.71286 5.48216C9.07562 5.40316 9.44889 5.36102 9.80639 5.48743C10.1376 5.6033 10.4057 5.82452 10.6423 6.0826C10.8894 6.34595 11.1155 6.61984 11.2732 6.94639C11.4362 7.27821 11.5308 7.6311 11.5834 7.9998C11.636 8.38429 11.6149 8.75825 11.5992 9.14274C11.5834 9.50089 11.5361 9.85905 11.4362 10.2014C11.2417 10.8967 10.8736 11.555 10.248 11.9553C9.02829 12.7348 7.40376 12.6611 6.23135 11.8395C5.13781 11.0705 4.43331 9.6589 4.58052 8.31055C4.67515 7.45202 5.11152 6.74098 5.73716 6.16687C6.07889 5.85085 6.4732 5.5559 6.90957 5.38209C7.12512 5.29782 7.35119 5.22408 7.58252 5.19774C7.71395 5.18194 7.85063 5.19248 7.98207 5.20828C8.09773 5.22408 8.20815 5.27148 8.32381 5.27148C8.61823 5.27148 8.90738 5.22408 9.20179 5.26621C9.24385 5.27675 9.27015 5.20301 9.22809 5.18194Z" fill="black" stroke="#1A1A1A" stroke-width="0.2269" stroke-miterlimit="10"/>
<path d="M2.33034 8.11046C2.64053 8.30007 2.99278 8.33694 3.33977 8.42648C3.50801 8.46861 3.66047 8.53708 3.81294 8.61609C3.97592 8.70036 4.16518 8.81097 4.35445 8.7899C4.50692 8.7741 4.50166 8.56869 4.40177 8.49495C4.33342 8.44755 4.24931 8.42648 4.1757 8.38961C4.11261 8.36327 4.04952 8.33694 3.99169 8.30534C3.83397 8.2316 3.6815 8.15786 3.51326 8.12099C3.1505 8.04198 2.77197 8.04199 2.41973 7.91031C2.28303 7.86818 2.21468 8.04199 2.33034 8.11046Z" fill="black" stroke="#1A1A1A" stroke-width="0.2269" stroke-miterlimit="10"/>
<path d="M2.14634 8.6633C2.15686 8.77917 2.21469 8.84764 2.30932 8.91085C2.39344 8.96878 2.49332 9.00565 2.59321 9.04252C2.80876 9.11626 3.04536 9.1742 3.27668 9.19527C3.22937 9.18473 3.18204 9.1742 3.13998 9.16367C3.30822 9.24267 3.47646 9.32694 3.64996 9.39542C3.74459 9.43228 3.84448 9.46915 3.94437 9.49022C4.12312 9.52709 4.25457 9.48495 4.36497 9.34801C4.44383 9.2532 4.42805 9.13733 4.37022 9.03726C4.26507 8.86345 4.08106 8.85818 3.91283 8.81604C3.81819 8.78971 3.72882 8.75811 3.63945 8.73177C3.48172 8.68437 3.33977 8.64223 3.17153 8.64223C3.02432 8.64223 2.87711 8.6317 2.72991 8.6159C2.60373 8.60536 2.46177 8.60009 2.34611 8.54216C2.25673 8.48949 2.14108 8.56323 2.14634 8.6633Z" fill="black" stroke="#1A1A1A" stroke-width="0.2269" stroke-miterlimit="10"/>
</svg>
