<svg width="290" height="32" viewBox="0 0 290 32" fill="none" xmlns="http://www.w3.org/2000/svg">
<g clip-path="url(#clip0_105_112)">
<path d="M78.7551 31.3255H57.7132L63.9972 24.6266H80.1662L78.7551 31.3255Z" fill="#021035"/>
<path d="M81.5849 19.3457H60.5429L66.827 12.6467H82.9959L81.5849 19.3457Z" fill="#021035"/>
<path d="M84.3915 7.37342H63.3496L69.6413 0.6745H85.8026L84.3915 7.37342Z" fill="#021035"/>
<path d="M5.61325 31.0802C3.31552 30.4671 1.44187 29.6776 0 28.7042L3.4466 22.1969C5.01183 23.1933 6.6773 23.9444 8.44301 24.458C10.2087 24.9715 11.9821 25.2244 13.7478 25.2244C15.4287 25.2244 16.7318 24.9792 17.6571 24.4963C18.5823 24.0134 19.0527 23.3466 19.0527 22.4958C19.0527 21.76 18.6363 21.1928 17.7959 20.7789C16.9554 20.365 15.6523 19.9281 13.8789 19.4606C11.8742 18.9317 10.2087 18.3952 8.88251 17.8587C7.5563 17.3145 6.41514 16.4867 5.45904 15.3753C4.50294 14.264 4.02489 12.8 4.02489 10.9835C4.02489 8.78371 4.62631 6.85988 5.83686 5.20431C7.04741 3.54874 8.76685 2.26874 11.0106 1.35665C13.2544 0.452216 15.8759 0 18.883 0C21.096 0 23.1547 0.22994 25.0746 0.682156C26.9945 1.13437 28.6445 1.78587 30.0247 2.63665L26.8403 9.09796C25.6297 8.33916 24.2958 7.75665 22.8385 7.36575C21.3812 6.96719 19.8854 6.77557 18.351 6.77557C16.6084 6.77557 15.2514 7.0515 14.2644 7.61102C13.2775 8.17054 12.784 8.88335 12.784 9.76479C12.784 10.5236 13.2081 11.1138 14.064 11.52C14.9198 11.9339 16.246 12.3708 18.0426 12.8383C20.0473 13.3365 21.7051 13.8501 23.0159 14.3789C24.3267 14.9078 25.4524 15.7126 26.4008 16.7933C27.3415 17.8817 27.8118 19.2996 27.8118 21.0548C27.8118 23.224 27.2027 25.1325 25.9767 26.788C24.7507 28.4436 23.0159 29.7236 20.7567 30.6357C18.5052 31.5401 15.8837 32 12.9074 32C10.3475 32 7.91869 31.6934 5.61325 31.0802Z" fill="#021035"/>
<path d="M113.26 3.21151C115.442 4.94373 116.529 7.37343 116.529 10.5083C116.529 13.0913 115.904 15.3447 114.648 17.2762C113.391 19.2077 111.61 20.7023 109.296 21.76C106.983 22.8177 104.292 23.3389 101.224 23.3389H95.032L93.4437 31.3792H84.6845L90.8761 0.61319H103.969C107.978 0.61319 111.078 1.4793 113.26 3.21151ZM106.112 15.1224C107.161 14.218 107.685 12.9227 107.685 11.2518C107.685 9.99475 107.269 9.04433 106.428 8.41582C105.588 7.78732 104.385 7.47307 102.827 7.47307H98.2319L96.4199 16.4867H101.64C103.575 16.4867 105.071 16.0268 106.112 15.1224Z" fill="#021035"/>
<path d="M141.511 7.51905H132.004L133.415 0.62085H161.142L159.731 7.51905H150.27L145.451 31.3868H136.7L141.511 7.51905Z" fill="#021035"/>
<path d="M187.851 17.6901C186.348 19.7289 184.243 21.2158 181.529 22.1509L186.787 31.3792H177.635L173.039 23.201H168.621L166.987 31.3792H158.227L164.419 0.61319H177.642C181.59 0.61319 184.659 1.4793 186.841 3.20385C189.023 4.93606 190.11 7.33511 190.11 10.4086C190.11 13.2292 189.355 15.6589 187.851 17.6901ZM179.979 8.41582C179.123 7.78732 177.928 7.47307 176.401 7.47307H171.806L169.947 16.4867H175.167C177.11 16.4867 178.614 16.0345 179.678 15.1224C180.742 14.218 181.266 12.9227 181.266 11.2518C181.266 9.99475 180.835 9.04433 179.979 8.41582Z" fill="#021035"/>
<path d="M213.234 25.4084H200.057L196.472 31.3868H187.234L207.089 0.61319H215.709L223.181 31.3792H214.468L213.234 25.4084ZM211.908 18.9854L209.826 9.006L203.904 18.9854H211.908Z" fill="#021035"/>
<path d="M261.302 0.61319L255.11 31.3792H247.901L237.684 14.5016L234.276 31.3792H225.702L231.894 0.61319H239.103L249.358 17.4448L252.72 0.61319H261.302Z" fill="#021035"/>
<path d="M265.589 31.0802C263.291 30.4671 261.417 29.6776 259.975 28.7042L263.422 22.1969C264.987 23.1933 266.653 23.9444 268.418 24.458C270.184 24.9715 271.957 25.2244 273.723 25.2244C275.404 25.2244 276.707 24.9792 277.64 24.4963C278.565 24.0134 279.036 23.3466 279.036 22.4958C279.036 21.76 278.619 21.1928 277.779 20.7789C276.938 20.365 275.635 19.9281 273.87 19.4606C271.865 18.9317 270.199 18.3952 268.873 17.8587C267.547 17.3145 266.406 16.4867 265.45 15.3753C264.494 14.264 264.016 12.8 264.016 10.9835C264.016 8.78372 264.617 6.85989 265.828 5.20432C267.038 3.54875 268.758 2.26875 271.001 1.35665C273.237 0.45222 275.867 -0.00765991 278.874 -0.00765991C281.087 -0.00765991 283.145 0.22228 285.065 0.674496C286.977 1.12671 288.635 1.77821 290.015 2.62899L286.831 9.0903C285.62 8.3315 284.287 7.74899 282.829 7.35809C281.372 6.95953 279.876 6.76791 278.342 6.76791C276.599 6.76791 275.242 7.04384 274.255 7.60336C273.268 8.16288 272.775 8.87569 272.775 9.75713C272.775 10.5159 273.199 11.1061 274.055 11.5123C274.911 11.9262 276.237 12.3631 278.033 12.8307C280.038 13.3289 281.696 13.8424 283.007 14.3713C284.317 14.9001 285.443 15.7049 286.391 16.7856C287.332 17.874 287.803 19.292 287.803 21.0472C287.803 23.2163 287.193 25.1248 285.967 26.7804C284.741 28.4359 283.007 29.7159 280.747 30.628C278.496 31.5325 275.874 31.9923 272.898 31.9923C270.323 32 267.886 31.6934 265.589 31.0802Z" fill="#021035"/>
<path d="M65.7013 0.61319H60.5352H44.0039H32.8082L31.3972 7.51906H40.9043L36.0852 31.3868H44.8366L49.6557 7.51906H59.2167L65.7013 0.61319Z" fill="#021035"/>
</g>
<defs>
<clipPath id="clip0_105_112">
<rect width="290" height="32" fill="white"/>
</clipPath>
</defs>
</svg>
